<mxfile host="Electron" agent="Mozilla/5.0 (X11; Linux x86_64) AppleWebKit/537.36 (KHTML, like Gecko) draw.io/26.0.16 Chrome/132.0.6834.196 Electron/34.2.0 Safari/537.36" version="26.0.16" pages="3">
  <diagram name="fit" id="9pAUh8N8AbIgrKFqY4uZ">
    <mxGraphModel dx="979" dy="543" grid="0" gridSize="10" guides="1" tooltips="1" connect="1" arrows="1" fold="1" page="1" pageScale="1" pageWidth="1169" pageHeight="827" math="0" shadow="0">
      <root>
        <mxCell id="0" />
        <mxCell id="1" parent="0" />
        <mxCell id="6rXkhQfJWV-fS7qRB5Xs-1" value="" style="shape=image;verticalLabelPosition=bottom;labelBackgroundColor=default;verticalAlign=top;aspect=fixed;imageAspect=0;image=data:image/png,iVBORw0KGgoAAAANSUhEUgAAATAAAAGBCAIAAABuD3p0AAAACXBIWXMAAA7EAAAOxAGVKw4bAAAgAElEQVR4nOydd1xN/x/H3+fu5m1r0lRGJNmJbF+bZET2yJa9t2QUoWiIRNa3rK8Ryl5FCg1p7zTubd59fn+cXJefbiHuxef56I9zP/vcevX5nM8579fB2JVVgEAg5AOSrAeAQCA+gQSJQMgRSJAIhByBBIlAyBFIkAiEHIEEiUDIEUiQCIQcgQSJQMgRSJAIhByBBIlAyBFIkAiEHIEEiUDIEUiQCIQcgQSJQMgRv1qQJ8+F5+Tl/+JOEYjfBYr0bHZFpd/xk/Gv3/IFgsH9+sxwGSfO2n3Qj0KmuM+b1fjOrkbejn+bOH7UsO8cLALxp9OAIA8GBOcXFa9ePF9ZSYlE/mw67edgj5G+nGDvPXp6wD8o/ETA/zdVWlYefPrcIc/tVCr1BweNQPypNCDIxJTUqRPHtm/b+v+zbNtbf1NP/92Ksm1vrddM55tqIRB/FVh9Fh7DJ03ncLiSKYc9t1uYmZSUlU2cvZBI6dmt84Zli4nj2FcJa7d7SpZv16bV3i3rxR9nLF7h6jymV4+uTTl8BOLPol5BcrgcAJg0d/FsVxeH7p0BgEajkzBMKBTm5BcAQOj5cBzHxYIUiUQ8Pu/+4+d+wSFhAYcAgISRaDQakctiVzjPcAvx9dbVQTMkAlEv9S5ZGXQGAGCA0Wk04piATCYbGxkCgKqyCruyQpxOIpEYdAadRsMwTLI8QWFxMQBoa2o27egRiD+MX3Tbo6KyikajkcnkX9MdAvGb8osESafRBALBr+kLgfh9aWJBUmkUHl+A4/gX6Uymqkgkqq6pbdruEIg/jG8WJLGpk5NfUFldVVNbSxyLRCIi17RFcwGfH371Rk5efkJisriWkb4eg0HPysltsoEjEH8iDdyH/H/K2ewZi5aLPxLHF4KPqqooA4Cujs7caZNDz4cfO3XGwsxk/47NRDEymWxrbf3qzZvWlhZNM3AE4k+k3tseTc7TF3H+x0MDffaSMOzX9IhA/Hb8uofLu3bsoKGhfjP63i/rEYH47fil0R6rF827cPFqQVHxr+wUgfiN+HVLVoIyFktJUZH+8QkeBAIhya8WJAKBkAJyDEAg5AgkSARCjkCCRCDkCCRIBEKO+M0EeeBGeaf1mVXcumdlL7+o6rYpS7ZDQiCakN9MkABQyRGdecyW9SgQiJ/C7ydIEgbH77O5fBwAvgwqQSB+c7754fIm5OHTmF0+vr67dzQ31AeAfYf936WlNWhL18aIXl4lioitHN9NVTK9hodviyi5GV9FIWOjOqksH6JBJWMA4HG5tJojasakhD2pIGHg0kPVrZ86UaW8Wrg1oiT6ba0yA3PtyZzlqIYes0XIFlkK0r5rp94vuu45dOTAzs2xrxKiHjw6uGsbocb5q9anZ2ZLFt6+ZkVHG2sAoJBgRm9mUDR7bBcVycBL95NF5dWiE3P1OQJ8w/kPNVx821gtIuu/V9XTejGDZ+vFZXG2hJd0NVfsYEwX4TArsNBClxa+1KCgXLD23AclOsmlx2ciRyB+MbIUJADMm+462311cNj52/ceTJk41tS4OZG+3n0Rl8eTLKmrrU0cYACjO6kciiy/EV8tzn1XyLuXXHNzdfPmmhQA2OqkPe1ogfs/6upKZACwNqItGqgOAJb6tLNPK19mcjoY02+9rv5QKTy7UItMwkx1qHP6ql14XokEiZAtMhakooLCyoVuKzZtb2vV0mnYEHG6FPtWDMPoVGyKA/NoFGtqLyaRmJLP01GlEGoEgA7GdBzH3xfxO5mSAUCJ9ulSmalIYtUIAeB1NreYLWi/OpNIF+G4Ev33u6JG/GHIWJAAUF1TjeN4DYcjFApJlLrxSFmyEld5E7qr+t8pv59U86nE55d/GIb9n5EIkf6pvKU+bc8EHckqP3guCMQPImNBstgVXr4B86dPuRJ568SZCzMnjSfSpS1ZMQAAFQZpfHfmsbsspiIZAFrq0j6wBbllfEMNKgAkZHMBwLyZtM2hlrq00EcVGspkTWUyAOA4cPiiJj9BBOKbkPEizcvX39S4xYh/BqxYMDfi6vXXSSlEul4zHWMjQ8kfBoNOZImnsSkOTAq57oOlPs3eSnHl6eKUfF58NmfzvyUjOyprKEtznRzcXkmPSZ4fXBSfzXlfxHc/VbT535LPCoxzvR51t0lPF4FoAFkK8tqtqPi3ScvcZgGApbmZ0/Ahnj6+NbWNdabTViGPslMRf9w/uZmxFm3CobyZAYXdLBQ2j9GSXp1KwU646euokqceKZxwKI9KxtaM+FRFIBCKRCIaBb0XCPFLQfGQXyc7N3/W0pXHfPYa6OnKeiyIvwi0r/h1UtMzRg8dhNSI+MWgGRKBkCPQDIlAyBFIkAiEHIEEiUDIEUiQCIQcgQSJQMgRSJAIhBzxmwkSeeog/mx+M0EC8tRB/NH8foJEnjqIPxhZCnLOsjWHj50Qf0zLyBrg5PI+PUN6rTZGdAaVFBFb+UV6DQ9fc/aD7dqMzhsyPS6X8oV1avW4XLr+3IeDN8u7b86y35Lld7tcXKW8Wrg0tMhmTab9liz/KNZX4ycRiF+JLOMhR/4zICDk9MxJE4iXYUXevd/KwsLc1ASQpw7ib0WWguzTs0fgybB7j58O6O0gEAij7j+aM3USkYU8dRB/J7IUJJ1G+6ev47XIqAG9HZ69jMMBd+jWmchCnjqIvxMZW3gMG9T//JVrGVnZt6IfDO7Tm/bxRa7IUwfxdyJjQepoa3W363gm4nLMq/g5U13E6chTB/F3IvtF2sghA6MfPulg3UZymYo8dRB/J7IXZNtWlgoMxrBB/b61IvLUQfx5yN4x4Pa9hyfOXDjh602Sp0s45KmDkAmyvIasqq5JTn0fcPL05LFj5EqNgDx1EDJCljPktVtR/iGn/+nvOGvyRLTDiUCAPCxZEQiEGNlv6iAQCDFIkAiEHIEEiUDIEUiQCIQcgQSJQMgRshTks5dxQydO+9m9HDl+cqPH3qZtc/dBPy/fgKZtk0Aowq2Wpx+K/BRFPcAj+9Sjip/RF0IO+S1nSB//4C27vWU4gH4O9o49u/+89kMfsmt56En3v5HfUpAyx7a9dQfrNj+v/Ypa0bmndR4lOI4emfiLkHH4FY7joefDL167CQCD+jrOcBlHPLLD5fGCQs88fBZTU1Pb2tLCbbqrkb4eAASdOns24jJRd4CTCwBMdh492XkMAAgEwqBTZyKj72EY1qlD+7lTJzNVVT72AqcuRFy8dpNMIg8b1M/FaVSDA/v3yrXLN26VsyqMmxtOn+hsY90GAErKyibOXkgU6Nmt84Zli4njchZ73Mx5ktWZKirng48Qx+mZ2QeOHnufkdFMW2v21EldO3ZosPeB7ZWO3WdP7KFKJX+mxuxSwbqzxfHZXA1l8oIB6k6dVQCgkiPqtD4zYKau3+3ypHy+lT7VY5yOsXbdY/Ep+bxNF0re5nMN1Cmrhms6tlJssHeEDJGxIPl8fm5BoefGtVk5uV5HAnV1tIYO6AcAx8POJSQmbVu9jMFghJy9sMPL58heDwBwHTfGxWmEX9DJcjZ7rfsCAKCQ6/7yfI+FxL9N3LTSXVlR0Tc4ZN/ho1vXLCeyXr1NNDc13rVhzZuklMPHTrRr09q6laWUUT18GhN6Pnz1kvlG+vrXb0Vt9NwX6uejqqKszmT6e3sCQOj5cEk7HyZT9bT/QeK4pLRs5Zadwwb1r/tYVrZs49bJzk4rF81NeJu4dY/34d07TZobPol9sXXPAclOrSzMvLdvIo5HdFR5mcm98rJqdCcVcTc1PNzlUF6vVoobR2ul5PM2XChhULChtspErk9k+ZKBGiqKmMel0q0RJcdm6wFAEVswyTd/wQB1z4naz9NqFx0v+nepQUtd2nf9rhC/AhkLkkIhL5s3m0qhmJm0SElLv33vISHIf/r3dRo2RFNDHQDGjxo+Z9maqupqZSUlKoVCpVDIFAqZTGbQGeJ2qqqrr9+J3rVhdbvWVgCwePb0PYeOCgRCCoUMAK1bmk8Z7wQAZiYtbkTfS0p5J12QeQUFOtranTvYYBg2zWWctrYWn88HADKZbGxkCACqyirsyk8bLSQM09LQAACRSOThfailmemksXWT8Jnwy51tbUYPHQQABnq6L+LfREbfmzPFxaZtG7+9OyU7pdM+6YROxqY5MAOiWCMl4ssiYippFNIWJy0yCbPQpWWW8APussSCXDFEs7MZAwBm9VFbFvqBSPSPYjm0UpziwASAFlrUR+9qI2IqVw3T/JZfEeKXImNBkkhkKqVuDJbmZlEPHhHHOpoaoefCHz2PLWezRSIcADhcrrKSUn3t5OYXCIVCKwsz4qORgb6PxxZxruTfujpTlV35pYXkF/R3dIh6+GTmkpWdbW262NoM/zjdNcjxsAs5+QV+ez1IpLqL85T36alp6fefPCc+ikSibnYdAUCBwSC0/VUwDJy7qvrdLr/zpkY8Eyfn82xN6GRS3SLWzpRx9A5LIKrLVqLXpTMVyLU8EU+A0yjY62zem1zOzY9uYEIc79O63u8QIQ/IWJCSUMhksfPx4aCQ3Pz8rWtX6Os2yysonLFoeaOaaEzISCPKaKip+e3dGRf/5nncq90Hj+jr6uxYv0pS1V8l9lXCuUtXPNav0lRXk+gNG9jXcdSQgeIURQYDAKQvWQEDRRo22Z55NKocl7CDbtz5YRLHMKazqmvPT1Z6yMhLzpH1po5IhOM48Tf0PiPLQL8u/vBFwuup48ca6ukCAI/L+6IWjUb5wnHHUF+PTCanvE8nlqylZeVnLl6eO2USmSzNxaM+rt+J1lLX6GTbvqON9dQJY8fNmB/3+q30zZjSsnJPH9+JY0Z2aNdWMt3EyDAtM1M8GXI4XDqdBgDSl6wYYAAwyZ4ZeJfN++j0Y6FLDX3IFuFAzJFxmRxTHSqFhEkxcLfQpSblcy0+XjTW8HAFKtqzlWtk/P+SLxAcO32Oy+UmpaZejbw90NGBSDfU0733+GkZi5WRnXMwMBgAhEKhuJaZsfGbpHexrxIyc3IJp3NlJaVBfXof9D+WlJqak5fvfSQwL7/w+9QIAGXlLO+jgXGv35aUlj148lwg5BvoNiPGkJNfkJNfUFldVVNbSxyLRCKRSOSx/5C2ltY//R3LWWzihxiw08ihGVk53n6BWbl5iSmpi9dtvhl9Dz4uWSV/JC2FiElOTZHk3EXl45oUxnRWrebi2yJKskr4t17XBEWzpvdW+7+xf8YMR7V3BbwN50veF/HjMrnjD+aFSzi+h/17ceKchd/3FSF+EjKeITXU1Lhc7sQ5C3Echg3sN6ivI5HuPm/WPt+AKfOWqqupDR3QJzElNS+/sNlH47m+Dj1evXm7dc8BwPAh/fvWmZ3PmBJ0Kmzd9j0YBt3sOoo9l7+DCaNHiES4t19gGYtloNts7ZKFRgb6AFDOZksunonjC8FH2ZWVCYnJACC+KQIA/t6exkaGRvp6Xts2HAo8MW/5Wqaq6uB+vQf0dmj8SKb3YoY9rts9UqJjYQsN1p8rHrY3V0OZvGq45oiOytKrm2hTQ+frbQ8vG+Wdq6FEHttFZaREFS5PIL6AR8gJf2+A8pWbtwNOnpZMaWFoeHDXVlmN59ez3cuHSqGsWjSv4aKIX8Xf+w+yT88edjbtJFMo37vE/R0R4XhRccmGZYtkPRDEZ/y9MyQCIYegTXAEQo5AgkQg5AgkSARCjkCCRCDkCCRIBEKOQIJEIOSIP1+QP8NTh19cxLp6pWnbRCDgb34w4Puofvqk9NyZyrt3GVZWakOHyXo4iD+NP3+GbEKEbFb2yuU0fX21kaNlPRbEn4mMZ0h2ZeWhwONPY14qKiqMGjJw3MjhRCiW24q1Nm1bv0l6l56VbWbcYs2S+eJgiIKi4n2HjyalpqkxVSc5jx7cpzeR/h2eOrkFhUeDQ98kJzMYDPsunWZOniA96JGkrGJ5O5pEo5UEB3KSE3/OV4L4q5GlIEU4vm7HbmMjQ989O4o/lO7z9VdUUBSH5997/Mx97kw6gxEUGrbBY0+A924Mwzgc7tJ1W7rY2iyYNS09M3v/kSA6ldanZ3f4Lk+dbXu8TYxb+OzaVl7O2nvYn8FgzHAZBwDzV61Pz8yWHOr2NSs62lhjZDL2Nz3vivj1yFKQj57GlJWzfHZuIZFIRgb6E8aMuH7nrliQI/4ZaNehPQCsXbLAdd6SxJTUNlYtb0bfo1Kpi+fOIJFIxkaGeQWF5y5d6dOz+3d46ohwPL+weLKzk5G+npG+3pql88rK2UTX690XfREArfsx8guB+KnIUpDv3qeVlpUPmTCV+IiLRAoKn3yryFjd9a2OtpaWlmZuQUEbq5bpmdltWrUUO9ZYt7IMC78oFAq/w1OHhGHTXcbtOXTkzv2HHdu369HFrpWFBVFGMlYYgfiVyFKQOIaZGjeXjMdrzHuUpZX4Rk+dUUMG9eza+XHMi8exL/xDTq9cONe+ayeof8nacOMIxI8hS0GaNDe6dD1STVVVjakKADiOc3lcca4I6rxkSsrKSkrLjPT1AcC4ueHFazdFOE7CMABIfPfOSF+fTCZ/h6dO0YcPVyOjXMeNGT6o//BB/U+cuRAWcYkQJFqyImSFLG97OHTvoqOpsdnTKzn1fVZu3s79h3z8g8W5129Fv0l+l56ZvefQ0eYG+q1amgPAoL69azmcQ4HBeQWFj57FnLv439gRQ+G7PHWUFBWv344KCDldWFyckZX9OjGJ8OkAAL1mOl8Y3jAY9AZP523yuwFOLgVFxT/0pSD+bmQ5Q1IplN1b1h8OOr5ysweFQurSscPcqZPFueamxr7HQrJyck1bNN+6ZhmxmlVgMPbv2Ozl6z/bfbUaU3XOlIn9etkT5b/VU0dZSclz45qjIafnLltLpVA62bZ3m+b6I6fD4/OJk/qRRhB/OXLqGOC2Ym3fnvZOw/+R9UC+gas374RFXAr1O9CYK2EE4qugJ3WajNSMzHnTXZEaET8CWl81GUvnzpD1EBC/PXK6ZEUg/k7QkhWBkCOQIBEIOQIJEoGQI5AgEQg5AgkSgZAj/hBBcricAU4uyanvZTuM/oGT4wuT/s7eEU3CHyJIOQEHjEFhNFyuIUpqyi339Uv+kCaT3hEyBAmyKcFxXJmm8Hf2jmgSZPmkjqePLw6w+mM8ZFzCm027vc4F+TLoDAC4//hZYOiZ0vJyK3PTJW6zjPT1iGIJiclrtu3y2bn5gH9wWkamTbs2O9auJLIePX/hsf9wOZtt166d+/xZykpKRHpsXLzvsZCiDyVGhvqL50wXByJL8dSpr3fpTLNz0lBkfpEYFn/lxIt/C6pKTNQN3e2nO5h0BoAn2XFTz69IWXabKLPzrm96WU7gaA+ekG+9fzCROCJkDnEgLpbNLlh7Y3d8QbKGovqC7pPHth3cYO+I3wtZCnKgY6+Nu7y4XC6dTgeAuw+f9OrWlVDjk9gXBwODl7rNNDIwuHw9ctXmnScOe1GpVKIin8/fts9nYJ9eI/8ZSKd/cgN4Ef96xUI3kVC4z9f/gP+xdUsXAkDK+7RNnl4zJ0+ws2kX9eDx8o07gg7s1tXRgfo9derr/Unsi617DkiegpWFmff2TeKPkzqM+OIc76Q93nPPf/+wDRaaxtdS7i68vOXWzBAdJc36vhMamfpq8ZWS6vJ+ga5nJvpYaZuIs2r4nIlhi3ubdNnUb3FycfqGSG8GmT6sVR8pvSN+O2QpyPZtWzNVVR7HvHS078YXCB48i9myehmRFXzq3LQJzt072QGA27TJD548fxH/uqudrbju0rkz27dt/UWDc6e4tLVqCQCzp7js9DrI4XIYdMbZi1d623cbNWQQAEwZ7/Q6MSniv5tu0yZL8dSpr3ebtm389u6U7FG6Sx0AtG1m+e9kPxN1QwCY0cn5yLPT8QVJ/c3tpVRRoCgoUDkAoEChK1A+LUHD39ykkWlbBiwlYyQLTePM8tzAmLOSgkT8AchSkBiGDXDsGf3gkaN9txevElSUlQg5cbnczJxcn4Dgg4HHiZJCoTC/8LPAX+vWVv/fII1WN4VamZvxBYKiD6UtDA3SM7PHjRomUbHVm+QUqN9TR0rvCgyGsZHhN51jM2XNswlX3f/bkccuFOGiKm4Nh89tuNrXSPmQZmvQRmw11MnQ+uiz0wKRkEJCRnh/DjKO9hjo2OtMxJWKyqroh48H9nEQxy5hGLZ49rRWli3FJdXVvuHqiPAKwHEcPjYnmStOr89Tp77eG1yy/j+XEm/5PDpxYPjG9nqtqCSK/RHnuhE1/mQkQLFdfzwyFqSOtlZbq5aR0fefxsbNcBlPJNLpdF0d7Zz8gsH96tZjtRyOAqPhDX2hsM6GJy0ji0wm6+loA4BJc6O3iSliP+XElHcmLYygfk8dKb1/x5L1UdbLXiZd7AysAUCEi3hCPpGuoagOAJXcahW6EgAIhELJWgwKHQA4gs/mUnMt49CXESJcRMJIABCX/9ZUwwhNj38Ysr/tMbBP79P/Rli1NNfR1hInujiNunjtZvjVGwVFxQ+fxkx2W5xbUNhgU6EXwstZ7JLSsuAz53p170LsFTmPGhr98PHVyNsFRcVnIi69SX436p9BINVTp77eiSWr5E+DhpEm6gZPcuLel2YVVX7YdNuHzankiwQAYKxuoK2kceH1db5I8Dwn/r/kaMlayjRFQ1W90LiLaWXZsXmvq/m1AOBkPbiaX7v1zsFMVt6t1IeBMedmdHJuzDe8aquHp49vY0oiZI7s4yF5PN74WfMXzJjax6GHZHpk9P1TFyJKSssM9HQnjR3t0L0LkZ6QmLx847Yb506K3VkBgMPlDHeZ4Txy2L1HT1kVFZ3at1u2YI6SYt2OSMzL+CPHTxYWfzAy1F80e3rrlnW3PdIyMo+GnH73Pl3sqaOirCS992+FK+Btue0TmfqATCKPbNP/bvqzQS0dltpPB4An2XFbbh/Iryy2b2Fnom6YUpoRONpDXPF5bsK6G3vyKooMmbr+o3caqxsCQBYrf/3Nva8KkjQU1Rd0cxlrPaQxY3Bfv8VIX3/pvFnfdwqIX4nsBYn4qYhwfOKsBVMmjhUv2hHyjOyXrIifSn5hkaG+7oBePWU9EESjQDMkAiFHoBkSgZAjkCARCDkCCRKBkCOQIBEIOQIJEoGQI5AgEQg54jcTZElZ2QAnF+Jn277PnvOeusCdSB87ba5kesDJ02t37G6S3p+9jBs6cVqTNHXgRnmn9ZlV3LrH3C+/qOq2KatJWkb81vxm7/ZQZzL9vT0BIPR8+KdgDgAA2LFuJV8giHkZf+7iFRmN7tuo5IjOPGbPdFST9UAQcsRvNkOSyWTiqW5VZZUvsgz0dI2NDHW06g3GlzdIGBy/z+bycQDAGyyN+DuQ8QxZzmJ7HwmMS3jDZKoO6O0waewo4pFxLo8XFHrm4bOYmpra1pYWbtNdG+lq81Vqa2u3e/k8i43TUFebOsHZ0b4bkR7/JjH49Ln0rBw1purQQX2dhw8VV7kZfe/kufCKiipLC9O5UyaZmbT4os34N4nrPfauWuhGhFByONyjJ049iXnB4/OsW7Vymz6JcAmRQhsjenmVKCK2cnw31S+yAu+yjt9jV3JE3c0Vtjpra6uQAeDO2+rdV8rc/9HwulZWWino1Vpp+1gtBRoJAAQi3PcW6/QjNk+AD2invH6UljIdRU7+lshyhhSJRKu27CSTyQd2bnGfO/NG1N3wqzeIrONh5xISk7atXnZ493YVZaUdXj4/0lFiSmpLc1OfXVt79+jm6eObmZMLAGUs1nqPvT27dQ46sHveDNdT5yIePY8lyt979PRw0IkZLuMP79lu3Nxw/c7dHM5noYmpaRkbd+2b7TqRUCMABJ06k/z+/ZbV7vu2beQL+B7edeFOR0+cGjzOVfIn+PQ5IotCghm9mUHRbKEIl1x+B91lH7vL3uasfX6RAYmETfXLF4rqcvNZgmuvqvZO1PGa1Oxpam3IgzrPkb1Xyx6k1ByZqXtqvn5eGX/dWfRa9d8VWc6Qz+PiC4tLfDy2Mhh0AJjpMj4+MZnI+qd/X6dhQzQ11AFg/Kjhc5atqaquFrvIfSvWrSyJ2c9kotGzl3HRDx5Pm+iswGB4bd1gYWYCANpamh3bWce/SezR2Q4Azl2+6jRsCDGRuk1zzcjKyc7Na2luSrSWW1C4drvn6KGDhw3sJ+4ir6CwrZWlpbkZACydO/PpizgcxzEMGztiyMA+vSQHw1SpW2xjAKM7qRyKLL8RXy1ZICCqfOUwTcdWigCwe6KOw9bM6MSafm2ViCp7JurQKBgADLNVjsvkAkBxhTD0YcWVFYYm2lQA2DRGe9jenEqOSIXxm12PIEC2gszOyW1hZECoEQD6OPQQh0TqaGqEngt/9Dy2nM0WiXAA4HC53y1IGp0uPrY0N8/7GG1cU1u7asvOzJxcHo/H5fH693L4OLC8KeOciGMShu3dsl5cXSgUrtvuKRSJxo0cJtEDjB89Ytue/emZWXY27bp1thNrVUNNTUPt69s2GIbRqdgUB+bRKNbUXnUGJUVsAatGZGdaF8mpRMda6dNTCniEICkkINQIAExFEqtaBADJeVyBCB+2J5dIxwFwHPJKBVYGDbgZIOQQOd1lPRwUkpufv3XtCn3dZnkFhTMWLW+qlslkDAccAPIKCtd77J03w7VPj250On2n9yHJYlg9rjdCodC0RfP3GVkHA4NXLPh0f6Vda6sQv/1PY+Ni4l6Frdk4bGC/WZMnAsDRE6cuXrsp2YLziKHTJjrDR1udCd1V/e+U30+qkTJm/Gt7PmJ7HQwDEgbnFulTKZ/GbKQpp79ZhHRk+WtrbmiQlRvB4XCJSTIhMTk1LWPMsMEA8CLh9dTxYw31dAGAx+X9YEdCCcea9Ixswj/ydVKyOpMpDtvl8fhi2x4jQ4Pk9+872bYnPgadDBvQtzexq0SlUNa5L0rNSHdfv82mbZv+vRpTNFcAACAASURBVHsCAI7jx8PO9+vd09G+m6N9twG9HVZt9XBxGqWooCBtyYoBAKgwSOO7M4/dZTEVyQCgo0phKpJepNc211QBgFqeKDmfO8VB2q0RC12aCIeiSiGxygWAai7OoKJNnd8SWV5mdLa10dXW3nv4aHZu/pvkd16+/gJBnQeUoZ7uvcdPy1isjOycg4HB8FFUQqEwJ78gJ7+gsrqqpraWOBaJRABQUFSck19QUlYmFNWVqeVwiNZeJyY9ehbD4/Gu34lOfp/Wr5c9ABjo6RWXlDx7GVdRWXXl5u1nL+OEojrdOo8YcuHytUfPYoo+fDh26lzkvQfqzLolJUYiUSjkVhYWU8aPORhwPCe/AAAwDEtKfe/jfyw9M7uwuPhxzAtNDXVC3hpqal/Y8Ijt88RT3BQHJoUsttuDWX3U9l0re5RSm17MX3v2g5YqxbGNtBcE6KpRRtupbDz34c7b6pwyvn8Ua5RXjkD0aVZFnjq/EbKcIUkkkuemtd5+AfNXrmMyVYf0c3T+eGHmPm/WPt+AKfOWqqupDR3QJzElNS+/sJm2djmbLbl8JY4vBB9VVVFes21XfmGRZPrG5UuIXVDrVlY37tzb5eOnpqq6dukCwszKupXlbFeX/UeCqqpr7Npbd7Wzzc0vIKr37tGNw+X6HQ+tqKhqZWm+a+NaZSXFLwbvPHJ43OvEHV4+Pju30Gi0tUsW+IecWrN9Vy2HY2Vhvn3NisZbNmqrkEfZqUS+rtvamdFLDQBWnymu4Ii6miuEuOlRSA00tcVJ68CN8vXnSmp5eLvmNB9XXckqfB6PRqE2cjAI2YIcA/5wkKfO7wXaGf/DQZ46vxdohkQg5Ag0QyIQcgQSJAIhRyBBIhByBBIkAiFHIEEiEHIEEiQCIUf8ZoKU4qlDcD3q7pT5S6W0MMd9VcR/N35wGLsP+nn5BvxgI01IfX5CYia5LY6Mvv+DvXAzMjJmTEns1CFlYN/SsFONqVJxLzp15NC3djapY0dVxzz/wQH8DfxmMQFSPHUI2rWygjFN0FE5iz1u5rwjez1MjZv/f24/B3uMJEf/yxr0E3IZM+L/XwLv4x9czmJtWint/5cYnM/PWuCm1KWb/sat3PT3uWtXU3V1VR37SqnCzcjIWbZUb9Ua5a7dKm5FZi6c3/LyVapOs0ae1N/JbyZIwlMHAFSVVdiVFf9fwEBP10BP92cPw7a99c/u4psgTjkrO7e+AuK3QX831c+fCcpK9VauIjEY9BYtNMY6l4eHSxdk+aWLirYdNcaOAwCt6TPZtyLZ169rTZn6gyP5s5GlID19fHGA1YvmER/jEt5s2u11LsiXQWd8h6fO1AXuxMPlTBWV88FHJLMePHnud/wkj8dz6N6FxxeI07/qqcPn84dMmEoUmLt8DXEQeeEUAJSUlU2cvZBI6dmt84Zli8VNcTjcQ0HH7z95RiFTBjj2nDlpIoVCBoAjx0/W1nA0NTWu3LxFIpFGDO4/ccyoBr+Zf69cu3zjVjmrwri54fSJzjbWbQDgcUys77GTjvbdr926g+PgPHLI+FEjpLcTdf/Rro9xHgtmTh0+qD9xHHTq7NmIy8TxACcXAJjsPHqys7SlBTc7i9a8OYnBAABcIOAXFvKyM6X3zsvOZFjUvRtXUFqKczjcbGR12QCyFORAx14bd3lxuVzi3eN3Hz7p1a0rg84ACU8dBoMRcvbCDi+fI3s9pLdW37ItLSNrh5fPRKdRPTrbPXgak/fx1eiEp87U8U7r3BemZWV7eB8y0NXt0dmOSqVePhVUzqqYMn/p/p2bTVsYiZuSZkLpdZBdWbln8zouj7/fL6CWw1s6dwaRFf3o6Zhhgz03rk189+5gwHGbtm1bW1pIOZGHT2NCz4evXjLfSF//+q2ojZ77Qv18VFWUAaD4QwmHy9m9aV3826SAk6f1dJr16tFVSlNd7GyJAW/02CeZ7jpujIvTCL+gk+Vs9lr3BQBAIdeFg8xftT49M1uy8PY1KzraWAtKy8gKigAgZLOy3RfzsrJE3M98hv4fYVkZ3dQcADjJyVmL54NQKCwrk14FIUtBtm/bmqmq8jjmpaN9N75A8OBZzJbVy4is7/DUqW/Z9t+tqPbWbVzHjQEAM5MWD548JdKleOow6AwGnQsADBqd+AdBUN+COSM793ncq+OHvPSa6QDAkrkzV27ZOd3FmYhFbmluMmW8EwCYGjf/71b02+R30gWZV1Cgo63duYMNhmHTXMZpa2vx+XVhonQ6fd40VwzDzExaZOXkXrsTLV2QSooKSoqGAEClfvaLplIoVAqFTKGQyWTJEwSA9e6LuLzPIsJ1tbXFx5z0tOwF81Uce2s4T8jftllK12Iq7tzO27JJf/XamoRX/I/xcYj6kKUgMQwb4Ngz+sEjR/tuL14lqCgrtbVqSWQ1oadObkFB65YtxR+JlSRI9dT5VjIyszTV1Qk1AkBry5aA41k5ee1aWwGAIuPTX7yqslJFVQNP8/d3dIh6+GTmkpWdbW262NqI15kAgGEgDrNsbWXxIuH19w1YCuKz+H+4OdmZ06c0W7pMfcSoitu3GtMa++Z11qUIY98jCm2taxJeNd0w/1hkvKkz0LHXmYgrFZVV0Q8fD+zjIP5ra0JPHRzHvxoqLN1T55v5oov6opMbEbWsoabmt3dnXPyb53Gvdh88oq+rs2P9KjrtS8eqxgdAfxP1LVkpmhqi2lpjP3/F9jYAIKyuomg24ElN1tAQVlW1CDpO1dEBAGFVNbmhKggZC1JHW6utVcvI6PtPY+NmuIwXpzehp46RgV7K+zTxR/7HTR0pnjoAQKfTAIDLb+AyicC4uVFZWXlhcTFhjpz8Pg0AWhgafN+Ar9+J1lLX6GTbvqON9dQJY8fNmB/3+m3Xjh3gc7erpJT3hj9gHg0ANBrli9Up1L9kpTdvATiu0LoNkchNfUcz+tI8GkQikLgbRGtuLKqtoX40jOakvlMbPORHBvw3IPubaQP79D79b4RVS3MdbS1xYhN66gzt3+9lwptTFyLSM7ODw87nftzUkeKpAwCKCgq6OjqXrkVm5+a/Tkohmqqvd1Pj5h07tPP08UvPzE5Ofe9zNGhAbwem6pcvO2gkZeUs76OBca/flpSWPXjyXCDkG+jW3bvjcrnBYecLiooj796PjL73Tz9HIr2+cxcPks8XlJWzc/ILCos/eSibGRu/SXoX+yohMyf3fXoGkajXTOcLEyDCgkypcxeyukaBpwc/P6/ywb2y8H/VR362XZyzanlyv96i2k/2eWrDh1fHxJSFX+Dn55ecOM7LzGAOGizODfv34sQ5C7/vK/qDkX2AMo/HGz9r/oIZU8WmrABQ9OHDPt+ApJRUwlMnMPTMrg2rbdtbS954EEN46ohve4gRe+o8fBrjGxzC5XJ7duuSkZnT277rqCGDACD86o3zl68SnjqAYeUs1v4dm8XVExKT9x0+WvShRFdHe/u6lYZ6ulJ653C4hwKP33/6jEIm9+/tMHPyBCqFAgBHjp/MLyjauqZuyb1qq0dLM9MZLuOkfCEikejUhYu37j4oY7EMdJtNdh5DnMXjmFiP/b5DB/S9GXUPAB83cti4UcOJKvWdu+RtDwKT5oZHvTzFHe3z9X/wJAYwfEj/vnOmuEgZFQBwMzLyt22qSUigqKtruk7TmuwqmZu3YV1VzDOLiMskhU/+QxV3o4q89/Fyc+ktjPVWrlbq2k2cdTzsQvTDRycOe0vv9G9D9oL8O7ly83bAydOSKS0MDQ/u2iqlyuOY2F0HfC+HHvvJQ/tFbPfyoVIoqz7ehUYQ/GZP6vwx9OnZw86mnWQKhUyW1WB+PSIcLyou2bBskawHIncgQcoGJUUFJUVpbqt/NiQMk74c+GtBS1YEQo6Q/S4rAoEQgwSJQMgRSJAIhByBBIlAyBFIkAiEHPGbCfJv89SpqKwa4OTyxdPePw+hCLdann4oslycMsAj+9SjrzgzIH4Sv5kgiRBhf29Ph+5dvlqgXSur8WMaiKNvDOUsthQl9HOwd+zZ/cd7aULuPXo6esqsJmkq9CG7lidqkqYQ38pv9mAA8tT5BVTUis49rZziwAQAHEdvYv6lIE8dufPUwXH8+JkLl67dVFZWGty3t2TWVwcc+yph7fa658UJg5x2bVrt3bKeSLl6807Ef9eLS8sM9fWmT3AWv6ddCgPbKx27z57YQ5VK/kyN2aWCdWeL47O5GsrkBQPUnTqrAEAlR9RpfWbATF2/2+VJ+XwrfarHOB1j7TpDkJR83qYLJW/zuQbqlFXDNcUvXUfUB/LUkTtPnUvXIy/+d2PR7OnGRgYnzv4rTq9vwLbt2l4+FXT/8XO/4JCwgEMAQMLqrkSexL4IOHl6vfuiFkYG9x4/27p3//HD3prqak9iX2zd89kVuJWFmff2TcTxiI4qLzO5V15Wje6kIj7JGh7uciivVyvFjaO1UvJ5Gy6UMCjYUFtlItcnsnzJQA0VRczjUunWiJJjs/UAoIgtmOSbv2CAuudE7edptYuOF/271KCl7peR1ghJkKeO3HnqXLl5e/yoYX0degDAkrkzxs98KX3AJBKJQWfQaTQMw74wyGlpanpo93ZicTF2xJCw8EtJqan2nTvZtG3jt3enZElJRwI6GZvmwAyIYo20+xTSGRFTSaOQtjhpkUmYhS4ts4QfcJclFuSKIZqdzRgAMKuP2rLQD0SifxTLoZUisfRtoUV99K42IqZy1TBkGiAN5KkjX546IhwvKCqyalmnWAr50y/oOwasqaH+9NYdj/2Hi4qLcRyvrqnlcXhEU8R/lq+CYeDcVdXvdvmdNzXidUByPs/WhE4m1S1i7UwZR++wBKK6bCV6XTpTgVzLE/EEOI2Cvc7mvcnl3IyvJrKEON6n9ff8Bv8qkKeOnHnq4Pj/N0bwHQO+fe9hyNl/1y9b3MrCnEIhj585n0iXvmQFDBRp2GR75tGochw+rcwbY+Ij6fSDYTCms6prT1VxihL9N9vV//UgT53exEc58dQhkUj6us1S3qcR5sh8wactKOkDptIoPL4Ax3FJSbxMeN25g411K0sAEOE4X1BnJyl9yYoBBgCT7JmBd9k8ft39DwtdauhDtggHYo6My+SY6lApJAzgKy90EFdJyudafLxorOHhClS0Z9sAsv+PhTx1vmDYwP5h4ZejHz5Jy8jc7xcoTpc+YNMWzQV8fvjVGzl5+QmJyXVfo75u3Ju3Wbl5JaVlPv7HKquqBSIhfFyySv5Iuj8SilZTJDl3Ufm4JoUxnVWrufi2iJKsEv6t1zVB0azpvdWkn8gMR7V3BbwN50veF/HjMrnjD+aFx1aKc5GnzleR/X1I+y52hwKDB/b+7HLIfd6sfb4BU+YtJTx1ElNS8/ILm2lrl7PZkstX4phwtVmzbZfYV4ZIJ3xlTI2br3df5BscEn71es9uXVp9NLe3bmU529Vl/5EgwlOnq51tbn6B5BiWL5iz7/DR2e6rxJ46Unrf4L74UODxJes3iz11vvsLGT6ofzmr4sDRIGVlJadh/zyPe9WYAevq6MydNjn0fPixU2cszEwIcyCnYUMKCj8sWbuJTCb3793TUE83L7+w8SOZ3osZ9rhu70qJjoUtNFh/rnjY3lwNZfKq4ZojOipLr26iTQ2dr7c9vGyUd66GEnlsF5WRElW4PAFhO4SQBAUoy4bv8NT5w0CeOl8F/YuSDchTB3nqfBU0QyIQcoTsN3UQCIQYJEgEQo5AgkQg5AgkSARCjkCCRCDkCCRIBEKOkNP7kG4r1vbtae80/J9vrZialhEQGpaWkUmn0+dPd+3RpRORLsLxkDP/Rj98xK6oNDc13rtlvZRo429lmn/Bk3e1XyT+Y6PsNanetxEjEF9FTgX5fYhEoo279ra3bjPTZTUOuKa6ujjrv8g7l2/cdHebbaDXrJbDBanRxt+Kh7N2LR8HgF2XS1UVSPP6q4NERBIC0Xj+KEEWFn8oLWdNmzC2mbb2F1lvU95172xHvGiRoEF7nsajq1b3NSrRSaoKJJOPBhYIxLciY0HmFhQeDQ59k5zMYDDsu3SaOXmCOA6ouqZm14HDT2JeaqqrzZ7i0tXOFgDiXr9dtWUn4XADAEeOn8zOK9i5bmVqWsb8VXUuMpPdlgAAg0EnXqW40WPv0xdxRFZk9H0AmO3q0uBi+P7jZ4GhZ0rLy63MTZe4zWrQ0UcKhyLLX2VxR3ZU9rlZVsASLhqoPquP2tPU2qlHC5L3mhJlPC6XphfzA2bW2XNdj6/e919ZcYWgnRF9m7M2Uvjfg4wFuW2Pt4lxC59d28rLWXsP+zMYDPHbha/fjp4xafzY4UMuXb/l6eN72v+QZPjfF5iZGl8+FZSVk7dw9cYTh73V1T4Fxa5ftkiEizwP+KkqK7vNmAwAFHIDf99PYl8cDAxe6jbTyMDg8vXIVZt3njjsRaVSG4jrrZ/4bM6HCsG0XmqKdJJpQ+qKSqzeFlGybayWqQ4t9CF76pGCW2uMaBS0AP4rkKUgRTieX1g82dnJSF/PSF9vzdJ5ZeVsce7wwf369+4JAHOnTboRdTcrJ9fKwry+pkgYxqAzCLMsBv0zIxwajQYAJDKJTKF8YTlTH8Gnzk2b4Ny9kx0AuE2b/ODJ8xfxr7va2UqP65UCBhDips9UbNSetve18iWD1Pu2UQKAtSM0IxOqH72rcUTmF38HshQkCcOmu4zbc+jInfsPO7Zv16OLnThYEQBoVDpxoKigQKVS2ZWV9TTTxHC53MycXJ+A4IOBx4kUoVCYX1gMDVnRSMFCl9ZINXJ4otRC3pbw0q3hpUSKQIRnlwik10L8Mch4yTpqyKCeXTs/jnnxOPaFf8jplQvnSu67iBHbUvyadRuGYYtnT2tl+ckaS12NCQ1a0XxbH1J6h81jNG1afJrMtVT+osisvxxZCrLow4erkVGu48YMH9R/+KD+J85cCIu49FVBimEymQBQVV2jrKQIAAKBUErh74NOp+vqaOfkFwzu14dIqeVwiMvX716y/j8aymQAqKwVqSiQAEAgrLvvwqCRjDQoGR/4Y7vUXQZXc3F0B+XvQZZP6igpKl6/HRUQcrqwuDgjK/t1YpKRgb70KoZ6zTTU1G5G3RUIhAlvk+4+evLdvUux53FxGnXx2s3wqzcKioofPo2Z7LaYcOKRbkXzTRhrUbVVyBeeV/KF+PM0zn9xn6JS3fqpn3xQceI+O7tUEPm6uu+OrMwPfHEusqL5s5HlDKmspOS5cc3RkNNzl62lUiidbNu7TXOVXoVKpa5aPO9QQHBw2PmO7awHOfZOz8n5vt6lGOQMcHQAgFMXIoJCwwz0dBfNmm7Y1O8LoVGwPRN1toSX7L9R1sNC0amzakphnbneqE4qAOB7i7X3WpmxFnXTGG1jiY1ZZEXzZ4McA34zkBXNnw16uPx3grCimTbBWdYDQfws0AyJQMgRaIZEIOQIJEgEQo5AgkQg5AgkSARCjkCCRCDkCCRIBEKOkFNBevsFDnByIX4yc758S7nccj3q7pT5SxtT8nFM7PBJ05uk06eptVbL05+ncYiPRSyB1fL01MIfeqkmQlbIqSBdx43x9/bcu3WDrAfybbRrZTV+zIgfb6ecxR7g5JKemd34KgHRrB/vFyFz5PSpSE0NdU0N9XIWu+Gi8oSBnq5BUz/12kgev6tNyuO2MqD/kF0XQtbIWJDlLLb3kcC4hDdMpuqA3g6Txo4ikRqYtOPfJAafPpeelaPGVB06qK/z8KFEOofDPXri1JOYFzw+z7pVK7fpk4gXjANAbFz88bMXsnLytDTURw0ZNHxQfyntHw46QafTZ04a//zlq3MXr+zduqGqusZp6uyLJ4MYDDq7svJQ4PGnMS8VFRVGDRk4buRwIlZz6gJ34nWxTBWV88FHJBu8//jZkROhlVXVnTq0K/pQ4tiju9jR53FMbGBIWDmb3aVjh8VzZigwGHw+f8iEqUTu3OVriAOxh5AUBrRT9I9meU9q9kX6g+SaHZdK88oFpjrULU5aNs0ZAHDnbfXuK2Xu/2h4XSsrrRT0aq20fayWAq3um0eOPjJEphYeItGqLTsN9PUO7NzCYrP3+vorKihIt58qY7HWe+ydOt5pnfvCtKxsD+9DBrq6PTrbAUDQqTPJ799vWe1Oo9ECQk57ePse8NgMACVlZZt2e0+fOK57546JKalevv76us2+eDejJBZmJg8ePweAt8nvUtIyBAJhdl6egb4eg0EX4fi6HbuNjQx99+wo/lC6z9dfUUGRkPeOdSv5AkHMy/hzF69ItpaWkbXL5/DSubPsu3Z69Cx276Ejjj26E1k8Hj/64ZNVi+eVsVhevgHhV6+7OI2iUqmXTwWVsyqmzF+6f+dm0xZG4qakh0fPcVR3OpCXXSqgSvxDS8jhzDtetGKIhr2l4tW4KlffgmsrDQ01qACQzxJce1W1d6JOebVwzdkPIQ/Yc/qqA3L0kTWyFOTzuPjC4hIfj60MBh0AZrqMj09Mll5FgcHw2rrBwswEALS1NDu2s45/k0gIMq+gsK2VpaW5GQAsnTvz6Ys4HMcxDPtQWioQCPr1tmeqqOg106HTaCrK0vxpLEyMT54NB4C3ySlGBvppmZnZuXlEj4+expSVs3x2biGRSEYG+hPGjLh+5y4hSGKlmpX95f7Tf7eiOtnYEOZA/XrZn7/8nziLQqGsWjiPQiEDQL9eSW9TUol0Bp3BoHMBgEH7zBxIeni0uR7VwUoxMJrl1ldNnBgYxR5io+zakwkAiwaqx6bXhjyoWDtCEwAwgD0TdQilDbNVjsvkElWQo49skaUgs3NyWxgZEGoEgD4OPfo49JBeRYHBqKmtXbVlZ2ZOLo/H4/J4/Xs5EFnjR4/Ytmd/emaWnU27bp3thg3sR6Rbmpn17tF15uIVXTva2tm069bJliY1zL+5oQGroqKqujo3v3DowL5vk1PLysotTIwB4N37tNKycvGSEheJFBQacM3KLShoa2Up/kgiYZLHhBoBQE1V9XVlSoPnLsXRBwOY3Zfp6lcwupOyODE5nzurzyd92pkqvMioc1inkEA87zEVSaxqESBHHzlATjd16iOvoHC9x955M1z79OhGp9N3eh8SZ7VrbRXit/9pbFxM3KuwNRuHDew3a/JEACCRSGuWLEjLyHwS+/LMxctHT5zas2WdlK0XwkD5zr1HpiYt2rVpfen6TT6P39muAwDgGGZq3FwyFlFs9lMfOI4LRaIGz6vBdqChJSuGYTYtGDYt6Mfvf7YT9kXLX7VolyyCHH1kiywF2dzQICs3gsPhEpNkQmJyalrGmGGDpVR5nZSszmQO7tOb+Mjj8Qm3GxzHj4ed79e7p6N9N0f7bgN6O6za6uHiNEpRQeHV67fZefnDB/U3MzGeNHb08o3b/rt1Z7ari5ReLMyM7zx41NXOxtLclLj3YGbcAgBMmhtduh6ppqqqxlQlOuXyuNLP0chALzn1vfgjn8+XUlgMnU4DAC7/s8alL1kJTc1yVJsTVChObKlHf5nOceqsQnx8mclpqSdtdYAcfWSOLO9Ddra10dXW3nv4aHZu/pvkd16+/gJB3d9rGYuVk1+QV1gEAIVFxTn5BcQtEAM9veKSkmcv4yoqq67cvP3sZZxQJAQADMOSUt/7+B9Lz8wuLC5+HPNCU0Od0CqJTD564tT1qLslpWXxbxLzCosadO6xMDV59z6trZUVnUZjqqqQSCQlRQUAcOjeRUdTY7OnV3Lq+6zcvJ37D/n4BxNVCoqKc/ILSsrKhKI6q55aDgcAhvbvF//6bej58PTM7JPn/s3OzW/MN6OooKCro3PpWmR2bv7rpBSiKemOPsQs19NK0UJCcjP7MK+8qjrzpCK7VOAfxXqZwXHtqfZ/vX0GcvSRLTL1ZSWRPDet9fYLmL9yHZOpOqSfo/PIYUTWibAL1+9EE8cbd+0DgBGDB8yfMcW6leVsV5f9R4Kqqmvs2lt3tbPNzS8giq1dssA/5NSa7btqORwrC/Pta1YQq7V2ra1WLXQ79e9F38ATTKbqP/0cB/XpLX1gLU1NMBLJ0twUANpaWhaVlhDpVApl95b1h4OOr9zsQaGQunTsMHfqZCJrzbZdxG0P+GjPs3H5EvuunUyNm691X3gkOPTsxas9u3Yy1NNtxOIUAGD5gjn7Dh+d7b5KV0d7+7qVjTf1mdNHzT20mDi2ac44PKWZx+XSHZdKTXWoIW56zTUb+I0jRx/Z8vc6Bly5eTvg5GnJlBaGhgd3bW3yjvh8PpVKBQChUDh2upv7/Fn2naVZXcozyNHnZ/P3/rfr07PHF3cjKeSm37149z7d+2jg/BlT1ZmqFy5fo1IpNm3aNHkvvwbC0WfDskWyHsifzN87Q/4acBw/f+nq5Zu3KyqqWpoZu02bbGZiLOtBIeQXJEgEQo6Q02gPBOLvBAkSgZAjkCARCDkCCRKBkCOQIBEIOeLPF2TU/Udie57LN27JahiT3BZHRt9vTEm3FWsvXL7WJJ26HM539fv0sN76cx8WhxQ1ScuIn8SfL8gudrb+3p7+3p5iAwGZ4DJmhHVrqx9vx8c/eMtu78aXf57GeZXN+fF+Eb+GP1+QSooKxKPYVKosH0sa3K/Pd7/d9UcgYRBwpy4g66uxVwi5QsaPzuUWFB4NDn2TnMxgMOy7dJo5eQIRUsTl8YJCzzx8FlNTU9va0sJtuquRvh4ATF3gbtLcKCExSVNd3dzU+MGT53Y27TauWFJTyxnlOnPmpPFXI6PKWaweXeyWzp1Jp9Ol916fQc5Xqaiscp4+92JoIIPOWLh646zJE9q1aeUXfJJGocyYPEEoFIaej7hy8xaPz+/ZtfP8GVMUFRQAIOr+o10+vkQLC2ZOlbTzycjO9fQ5nJNXYNqieTNtLR6Pt3VN3Qtkq2tqdh04/CTmpaa62uwpLl3tbAEg6NTZsxGXiQIDnFwAYWB/gQAAIABJREFUYLLz6MnOY6SfY39rpTtvat4X8c2bfWaNk10qWHe2OD6bq6FMXjBAXRyiNdI7d2xn1diM2vtJNZrK5LUjtXq3UiSyyquFWyNKot/WKjMw157MWY5qjXxQHtF4ZDxDbtvjraSs6LNr25rF85+9eBV6PoJIPx52LiExadvqZYd3b1dRVtrh5SOu0tLMJHD/noKiYiN9veBD+569jEvPzCKynsfFr3NfsGrJvFevE4+eOP2V/iQgDHLoNJrvnh0rF7hdvn77ys3bUsqrqihraWlm5+Rzudy0zMy3ySkAkJ2XZ25qAgCBoWGxrxK2rV3uvW1jUfGHfb7+RK36Fsw8Hm/tNo/2bVqfCTg8f4br66TPvEuu347u2L6d17YNbVtZefr4EuFXruPGXD4VNLhP764dO1w+FXT5VNCE0SMBoLqmdvA41y9+xIGXxtq0/taKgdEsABBPkDU83OVQXgst6r9LDJb/o7HjYunVl58e2Dp6p7yXleLp+QbdLBRXni6u5YkAQITDrMBCBpUUvtTAc7zOqUcVpx9XSP+GEd+BTE2ucDy/sHiys5ORvp6Rvt6apfPKyusWV//07+s0bIimhjoAjB81fM6yNVXV1cpKSgCgr6urrsZUUVFu0dxQS0NDSUGxnF2h26wZAMyaPMHS3MwSzHgcnveRwPkzXMn1Py8uxSCnPlqamGTm5HK4XOPmzd+kvAOA7Nx8CzOT0nLWxWuR/t6exDS+cPb02UtXVdfUKikqKCkqKCkaAsAXC+YnMS/5AsGsyRMpFLKVhXmv7l0Li4rFucMH9yNseOZOm3Qj6m5WTq6VhTmVQqFSKGQKhUwmS3rtKCgwvghcBgDKxyApDGCWo9q4g/mLB6qLcyNiKmkU0hYnLTIJs9ClZZbwA+6yhtrWeX84d1UdaacCACuGaZ59WpFWxG9rRL/1uvpDpfDsQi0yCTPVoc7pq3bheaVLD1UpXxfiO5BpPCSGTXcZt+fQkTv3H3Zs365HF7tWFhZElo6mRui58EfPY8vZbJEIBwAOl0sIUmqDdRN+aysLLo/3obRUykbOdxjkWJgZZ+fklZSVOnTrdOn6rVoOp6amRq+ZTmxcglAonL10VV1TOI7jeGFRsZlJi/qayi0oMDYyFHvqSHrtAACNWrfYVlRQoFKp7MpKqWeNSfPawaC1Ib2zOSPoHks8RSbn82xN6OSPndqZMo7eYQlEOIWEAYDiRz9IZTpGJmGsGiEAvM7mFrMF7VdnElkiHFei//kbEL8eGV9DjhoyqGfXzo9jXjyOfeEfcnrlwrn2XTsBwOGgkNz8/K1rV+jrNssrKCRCfhtPYyxqvsMgx9zE5NKNSBGOuzqPjn31+uHTGDMTYwzDMAxIGHbQYwuF+uk6TfoWTiO9dhozquqaWqdpc75IvBwaRARhErXn9FGfHVjYxZzBoGIfm21M54BJHFnq0/ZMkPQoQFeQTY8sBVn04cPVyCjXcWOGD+o/fFD/E2cuhEVcIgT5IuH11PFjiTB5Hrexr6kQ4XV/4knv3tNpNG1NTSmFv8Mgx8LMJCcvXyAUmpuYWLeyun3/oYWpCQC0MDIU4XhJOatrxw5EyVoOhy7d287A4MLla1wul9h54jXOawcAaDQKl/fZF9LgkhUAOpsxLPVoD5Jr+lsrAYCFLjX0IVuEAzFHxmVyTHWoFJI0gbXUpYU+qtBQJmsqkwEAx4HDb9Q/FMQ3IctVh5Ki4vXbUQEhpwuLizOysl8nJondbgz1dO89flrGYmVk5xwMDAYAoVDYYIOh5yKyc/Pj3yQGhp4Z4OhAXEDW1NYSJjd8vqCsnJ2TX1BYXAxSDXLqQ42pKhAK9XS0KRRyWyvL14lJhCC1tTQH9HbY7xf4OCa2oKj4TMSlucvWEAOur/dunWwVFBi7Dx1JeZ9299GT2/ceNvJLMzM2fpP0LvZVQmZO7vv0DPi4ZP3iRzx9iaexWX2Yoo9L1jGdVau5+LaIkqwS/q3XNUHRrOm9G/DaGdxeSY9Jnh9cFJ/NeV/Edz9VtPnfEnHu2+R3A5xcCiQugxHfhyxnSGUlJc+Na46GnJ67bC2VQulk295tmiuR5T5v1j7fgCnzlqqrqQ0d0CcxJTUvv7CZtrb0BnV1tdfu8GSxK+y72M2eUucr9zTmpfjGw+l/I07/G2HS3PCol6cUgxwpmBsbGzc3BIDWVhYiEW5hakykL547IyTsvLdvIIfLtbQw27h8CfHvoN7eqVSPDat3HTjsvmGbpZmJTZvWjVxE9nXo8erN2617DgCGD+nfl9jjbVTFNkpmOnUraiU6FrbQYP254mF7czWUyauGa47oqCy9OpWCnXDT3x5RMvVIIYUMjq0V14zQEucSMzyy2/lx/pAA5eqa2lGuMw97bicsxn+QibMXVtVUS6asWjSP8EdvQsReOwCwcdc+XR3tedNdm7aLX8bVm3fCIi6F+h1AF5Y/CPqX9hW8tm/44qEWdbUm3t/n8Xhuy9e6jnOyamkW+yohJi5+3+/27j1JUjMy5013RWr8cZAgv8IveOqVRqPNcp0Yci48KyfXQLfZ6kXzWlta/OxOfx5L586Q9RD+EP6QJSsC8WeA7u0iEHIEEiQCIUcgQSIQcgQSJAIhRyBBIhByhFwIcvdBPy/fgJ9dpfGuNt5+gWIbnsycL99SLisex8QOnzT9W2tV3ItOHTn0rZ1N6thR1THPf8bAEE2IXAiyn4O9Y8/uP17l3qOno6fMqq9K411tXMeN8ff23Ps736kn4GZk5Cxbquky2SLisvrgIZkL5/OLkcmVXCMXDwbYtrf+BVUG9+vTyJKaGuqaGurEK2J/a8ovXVS07agxdhwAaE2fyb4Vyb5+XWvKVFmPC1EvshRkSVnZxNl1r+Pt2a3zhmWLxVluK9YO7uv4Oin5+YtX6mpMt+mTu9h2kFIl9lXC2u2exDHhN9OuTau9W9aDVFeb+DeJwafPpWflqDFVhw7q6zx86HefS32eOkeOnywsKsFIWGxcvBqTuWjWtE627YkqBUXF+w4fTUpNU2OqTnIeLX5POwDcjL538lx4RUWVpYXp3CmTJAOdH8fEBoaElbPZXTp2WDxnBvGW6PrgZWcyPsZ8C0pLcQ6Hm5313eeI+AXIUpDqTKa/tycAhJ4Px//PES3s34vTXcZPGDXiys3bngf8Tvv7MOiM+qrYtmt7+VTQ/cfP/YJDwgIOgYR7AOFqAwAbPfZJtl/GYq332Dt1vNM694VpWdke3ocMdHW/+wnywNCwN0nvtq1dTqNQ/YJP7vP1F/+zeB4Xt3Dm1ImjR1y9FbVp974Th7y1tTQ5HO7SdVu62NosmDUtPTN7/5EgOpXWp2d3ALj36OnhoBNL584yNzW+fCNy/c7dwQe9GAw6APB4/OiHT1YtnlfGYnn5BoRfve7iNEpKgLKwrIxuag4AnOTkrMXzQSgUlpV93wkifg2yFCSZTCa8J1SVVdiVXzom/dO/D+ErM8t1wn+37mTn5Lc0N62vColEYtAZdBoNwzBJvxkAqM/VRoHB8Nq6gYgO0dbS7NjOOv5N4vcJUoqnDgB0aNeWWC0vMZ2e8Dbx9r0HE8aMvBl9j0ql/q+98w5rIuvC+JkkhFBDN3QEFUTFhqKCiF3XXStWFFQs2BVdETs2xIaLCIIgqPDJ2rDtsmLBtSsoIgqIKD0BBEIvCcl8fwzG6JJBUUmU+3t89pncuXPvmVnezJnJnHdWuLlSKBQTQ4N8TsHpi5cJQZ6+dMXxtzGD7foDwKI5zpnZuTl5+Z06mAIAjUbzWLaYMP4YNij15avX0FyBMgBU3Lie77VFb936mufP+AXoGlKmkYlryCZRYCgQC4oKChQKpaLqGz9zq8Bg1NTWenjtysrN4/F49Tze8EH2LRvqbWY2iacO9f25GsMwS/OOeZwCAHibldOlcycKpXFVt87mp85fEAgEVCo1JzffZaoj0U7BMCLxbvxIwUQ2PGqqqsmVr6A5T53yqzFlF6NNAo4odO1W8/xZy3YQ0WrIriDF+R51Pfmcgo3e+xa7Og+x7S8vL7/L17/FQ32+pw6GYaJMm2SXMLKVH4YiFkhSVqqGhqCqyjg0XE5HBwAEVdVUUlsThNT5MQT5mcjRaTx+A47jnyPg5NQ0dSZTdCuFx+OT3yAhgdxTRyh2rZv2OmOovR0AmBgZXPj7qhDHKRgGACnp6YZ6eoTJgKGBflpGhujeT+jJUyOGOhDJcJOQpKx0IxNhbY3c+2qyutfpaqPHtGwfEa2DNH+HFAgEhN9MZXWVyHtGSOrFRr6JqbFRA59//so/ufns5ymN1sOSXG30dXWLiosfPU2sqKy6fPX6o6eJAmGjbU9pWVkum5NfUAgABYVFuWwO+U8gJJ46AJD0IiXu7oN8TkHwiUhOQdHwQQMBYNRQh9q6Ov+QsHxOwb1H8acv/DV5XOM93injxpy99Pe9R/GF794dizwd++8ddSaTZHYSTx21sWOr4+NLz5/ls9nFx8N5WZnMUaNFG546d2HGwmUkIyNaH2meIbnl5eL+jsTy2bAgVRWJ/i7km7B0dNzmzIo4c/5YZFRHs/YHd24Fya423TqbL3B2OngktKq6xrp7t37WvfLYHKLb8VNnY27EEcubd+8HgHGjRyxxdSHZF0meOgDQ3tgo7u79AwHBTKaq17rVWpoaAKDAYBzcufVAQPAC93VqTNWFLjOGDbIj+jvY9q+rrw8Mj6ioqOps3mH35vXKSoqff1TFYZiaGe47UOi7n7Nzu7yxifEf/nIslmhtPa8BueDIGqhA+Qu4fPX60ZMfvaHA2MDg0O5tJJscCT/J5hSKXtohU+w44CdHo4k70yKkDvqC/AKGDLS17mEl3kKT/KoCGUeI44VFxZtWL5d2IIiPQIL8Aoh3dUg7im8DBcPIz+0IqYBSVgRChpCJag8EAkGABIlAyBBIkAiEDIEEiUDIEEiQCIQMgQT5M3Mk/ORm732f318gxC3WvPWP5YpaRnjnRN77tDIO8f2QXUFyy8pHODq9zcqRdiBtjoi75bU89DJW6SC7gkRIi4pa4emHlcQyjqMXWrUqUn5SJ49TEBQW8SItjcFg2Nn0mTdrujydzufzx0yfTXRwW+NJLMSejSQWyisr/UPCH8Y/VVRUmDBm5NTxYzEMI94POW/mtCuxN7llZbY21qvc5hFvCweAhMSk8D/PZufma2moTxgzStxWp0kW/b6+R1fLF6npb7NzzEyMPVcuERU3Njk7sWqEo9M2zzXXbt1+/DSJLkeLCgkgf3Rb0lAks0uy4WloEIRGRsXG/YthWJ+e3d1mz2KqqhCrcBwiz0Zf+PsqlUL9bdQwJ8cJzf5PGdld6djt8hm2qnLUj9SYU9Kw4c+ipJx6DWXq0hHqjn1VAKCyTthnY9bReazA69xUNt9CT857qo6JdmNd6Cs2b8vZ4pfsen11msdYzcGdW/iUfNtBymfI7Xt9lZQV/XZv91yx5NGTZxFnogFATk7uUmTo8cO+AHBw19ZLkaGXIkOJ/kIc37BzjzydHrB359qliy7FXL989bpotMeJSRvcl3qsXPwsOSXoeONT4MWlpVv2+A62HRB8YPfMyRODwiMSnj1vNrB/7z9ymTpp92ZPCgXb5L2XqComnx0A9h8O0lRXX7XQda7TVHI1kg/V5OyEDY8+i3V4zw5Xp2mBoSdv3rlP9A84duLx02db1rrv2bLhXUnp/sNBoqGevUxpaBDs3uQ5feK441Fnk1NfAcCDhCejpzqL/1u10Uu0ybjeKgBw+WkVAIhKOWt4uJN/vrGW3LmV+mt+0dh5oeTK0w/PePnFcpcM1zi+iAUA26IbX3VeWN4wM4A9uofSlTUGrg7M5eGF6QW8Zo98G0eaZ0ghjrMLimZNcTTU0zXU0/VctbiU21h2yJBnMOTrAYBBlxf3yLn3ML6UW+a3y4tCoRjq602fNC7mxi3RGW/+rOnmHczMwYxXx/M9ErLE1ZlKpb4rKWloaBjmYMdUUdFtpyNPp6soKzUb27hfRlr37A4A61cudV68MuXV6y4WnchnB4DfRg53njrpc/adfKgmZ5dkw1NVXR1zI273pnVWlhYAsGLB3L3+QQ0NAsLsw7JTB5dpjgBg1t74n7h/U1+ld+ts3qNrl09qmkXl1AAgT8Xm2DOP3iwbb60iaoyOr6TTKF6OWlQK1pFFzyrmH71V9muvxkK538do9jVjAMD8IWqrI94RjcE3y+w7K7rYMwHAWEvuXnptdHylx2/IsoAMaQqSgmFznabu9T9y4/bd3t2tbG2sO3ds5qWl6RlvSkq5ooQWFwoVFD7IVeQ0Z2nRsZ7He1dSwtLRMTczc7DtN2/F7/1697LuYdW/Ty+62B+fJERGODraWlpamnkcTheLTuSzA8BnGjE3uyNNzi7JhiePzREIBBYdzYh2Q309P+8PpztxpakzVcsrKwFAgcEgseHBMJjSTzXwOvfGixqR20Eam9ervTyV0pjEWpsygm6UNQgbVyvJN7YzFai1PCGvAafTsOQc3ou8uqtJjS+HF+D4EMvmvwrbOFK+hpwwZtTAfn3vxz+5n/Ak+MT/1i5zs+vXh6Q/jmGmJkbiJXxNunWIN1IoFM+VS99kZj1IeBp14VLQ8ci9Xhv0dVn/3apZPnP27zcUWY/PieR9nwcJT7bt/UN8jUVHM98dW0TTKNKxWXbMoJtc/EPS+pkzYGLLMKmvqvPAD2+DV5JHNxGbQZqCLHz37krsTeepk8aOGj521PDjUWdPRV8UCVJeng4A9fx68U3aGxlejIlVU1VVY6oCAI7j9bwPHYR448361PQMeTpdW1MTAJ4lv8zJZ48dNdysvcnMyRPXbN7+17UbC5ydyGMTQuNQxaWlxSWlhnp6zc7+RTSzI03NLsmGx0BPl0qlvsp4S6SsJaXcqAuX3FxmUiXXapKnrITF1kw7Zsitch6/MZKOLLmIu+VCHIhzZGJWnamOHI2CiV1mfkpHllwqu74jq3HkGh6uIIfu2TaDNL+xlBQVY67fPHrifwVFRZnZOckpqYb6eqK1igoKLB2di3/H5uSxk1Nf1dbVAYD9ABsdTY2tPgfSXmdk5+XvOujvFxwm2iTidHROHjvpRUpIRNSIwfbEXySFSg06Hhlz81ZxSWnSi5T8gkLxWSQRcy3uRVr626ycvf5BRvp6nTt1aHb2L4J8qCZnl2TDo6ykNGqIw6HgY6mvX+fms32PhOSzC0jUCO9TVvF/4h55xElOTZEyxUblfU4Kk/qqVtfj26OLs4v515JrQuPK5jqoke+j62C1dA5v05nijEJ+Ylb9tEP55xMqRWuRo0+TSPMMqayk5LPZM+jE/9xWr5ej0fr06r5ojrN4hzVLF+4/HLTA3YOlo71jw1oDXZYcjbbHa+Ph0PC1W71pNIpN755us2eJ+rNY2ut3+pSVV9jZWC9waTwHWllaeCxbFHnuQkDIcSZT9Zdhg0cNcWg2tg6mJgHHTmTn5pkaG23zXE1kYuSzfxHkQzU5O4kNzxJXl9DIUxt27MUw6G/de+HsmS2L6hPmDmKeut/4mI6SPHZqmf7G00W/7cvTUKZ6jNUc11ui9RFBe225iCW6O86XTvDN01CiTrZRGS+2CXL0aZKfpECZ+B3ysM8Owon8cyAxyFn0+/qhA+0cx/7y9YHt8vV/+OSpeMuY4UMXupAlzN9wdlkGOfo0Sdv9imodgxy3OTPnzJgi3qL4s5iAfA3I0UcSbVeQrWOQo6HWzIVW2wQ5+kjiJ0lZEYifA/S7EAIhQyBBIhAyBBIkAiFDIEEiEDIEEiQCIUP8YIIsLi0d4ehE/Nu+/4//doi5ectlySqSERa6e0T/9c9XhrHnUOCBgKNfOciPxR//cPtszKqqb3yU7tKTqv5bsqUb0k/JDyZIdSYz2Ncn2NfHfoBNkx2sOltMmzTu6ycid/QZZm83eOCAr5+lBfgFh3nt8ZXK1JV1wqj7ZO/JRHw9P9iDAVQqlSjkU1VWKa9swg1NX5fVstKqL6JX927fewoZhIJB+O3yWXZMeTlMYokH4uuQpiB9/AJwgHXvn2ZMfP5iy54Dp0MDGPKMeh4vNCLq7qP4mppaS/OOi+Y6k7zTm2D2Und2QSEAMFVUzoQdEV9158HjwPCTPB7PfoANj98gak96kRL2v9Nvs3PVmKq/jho6ZeyvAEDi6FNcWjpjQWOBwsD+fTetXiEaqq6u3j80/PaDRzQqbcTggfNmziAK9o+En6ytqdPU1Lh89RqFQhk3eviMSc272py7/Pelf65xyypMjAzmzpjSo1sXAAiN/PPP6EtEhxGOTgAwa8rEWVMmAYBAIIg4E3356jUenz+wX98lri6KCgrE7AWFxRgFS0hMUmMyl8+fI3pTepNuRuRRdTGU51YJoxMqp/VXFW+v4eHbo4uvJlXRqNiEPiprxmgQZjzel0qq64TtmLRTDyooGDjZqi4apk5swq0WbIsujntZq8zAnAcy5w9Wa2lh6c+GNAU5cvCgzbsP1NfXE25Ut+4+GNS/H2HYEX7q9POU1O3rVjMYjBN/nt15wO/IPm/y0XZuWMtvaIh/mnT6wmXx9jeZ2TsP+M1wnGDb1/rOw/h8TgHRXlpWttF73+xpjhvcl73JzvH29ddnsWz7WhOOPtyyCpclqw7u2mpqbCgaikiYASDizHkc/+gksfPAofLKyr1bN9Tz+AcDj9bW8Va5uRKr4u49nPTbaJ/N61PS0w8dDe/RtaulOZkxwt2H8RFnzq9bucRQTy/m2s3NPvsjAv1UVZSdp05ychwXGHqSW16+3n0pANCojV5SIRGnXqSmb1+/hk6TCww7uT8gWPRl8Tgxcdm82TMmjrty7eaWPfuP+/tqa2kCwPa9vu1NjP12b+dyy/YdDmYwGK5OUwFgicfGTxL1HZ6/9+7RDQBoFHB1YIbGlU+2URHfffeThdxq4XE3vboGfNOZdzX1+PbJWsSqv55VzxnEDFugm5hd53W+uF8HxZ4m8kIc5ocUdGTRz6/S53Ab1p9+pyRPcbL9SORtFmkKsntXS6aqyv34p4Pt+vMbGu48ivdat5pY9cvwoY6/jdHUUAeAaRPGLlztWVVdraxEZgBBZKrZOXmftP917Wb3bl0Iqxuz9sZ3Hjwk2hUYjAPbNhHVIdpamr2tuiW9SLHtaw2SHX0kJcyZOXmPE5+F+x8gqgpXus1b67VrrtMUpooKAHTq0J5wtTE1MfrrWtzLtHRyQeZzODra2n179sAwbI7TVG1tLT6fDwByNJocjUal0ahUqnhUJdyyC3/HBvv6EEnEsgVzF6zyqK6pJZ7U7WnVdfSwIQCw0nTu85cp1/+9M33SeBI3o43uy+t5H1lRsbS1iQUMYGIfFf9Y7j/vXTkAIL2A929azdV1RkaaNADY5qg9J4jj/ou6uhIVALoZ0pePVAcAcz36nw8rn2bV9TSRv5Zc/a5S8OcyLSoFM9WRWzhU7ezjSiRIAmkKEsOwEYMHxt25N9iu/5Nnz1WUlbpadCJW6WhqRJw+f+9xAre8XCjEAaCuvp5ckJLI43AsO3USfSQySQBQYDBqams9vHZl5ebxeLx6Hm/4IPuW7UhmVramurqoxtfSvBPgeHZuPlHCr8j4IB5VZaWKqmYeHh4+2P7m3QfzVq7t26uHTa8ezZpWvs3MFggEC1Z5EB9xHMdxvKCwyKy9MYjZ82AYZmneMY9TAKRuRuKVyp+AYZi8HOZizwy6WTZ7EJNofMXm6ajSCDUCQE8TeRzHMwr5fUypAKBE/3DXkKlIKasRAEByTn1ReUP3dVlEuxDHkbWHCCnf1Bk5eFBU9OWKyqq4u/dHDrEXObIcDj2Rx2ZvW/+7HqtdPqfAdfmaFk+B43iT1yf5nIKN3vsWuzoPse0vLy+/y9e/xVMA/MfuRtIl0WdcKmmoqQXu25WY9OJx4rM9h47osXR2bvQgucDDMKBg2CFvL5qcnKixSV1hGCZKNSW5GZGkrETo0weoBt/g3k6tERv3v7M0Haeov7kefe90cY8CdAXZiJQFqaOt1dWiU2zc7YcJia5O00TtT54nz5422UCXBQC8+q8y8zTU132V8Ub0kf/+pk5yapo6kynyGubx+Apip7ImHX0kYWJkWFrKLSgqYunoAEBaxhsAMDbQb1nAMTfitNQ1+vTq3rtHt9nTJ091XZKY/LJf757EWjqd9klKaWxoIMTxYm6ZqE9tXZ1IwEIxcaS9zhhqbwekbkZkKSsGAKDCoEwbwDx2q4ypSAWATiz6u/KGvFK+gYYcADzPqQeADu3kQDKdWPSIexUaylRNZSoA4DjU8dGbCxqRfqowcojD/85FW3TqoKOtJWo00GX9e/9haVlZZk7uoZAwABAIBMR/c9mcXDansrqqpraWWBYKhQDAKSzKZXOKS0sFwsY+hA3Pr8OHPX3+IvJs9NusnLBTZ/Le39TR19UtKi5+9DSxorLq8tXrj54mCoQCUQBNOvpImt3UxKh3Tysfv8C3WTlprzP8gkJHONiLvMO/lFJumW9QSGLyy+KS0jsPHjcI+PqsdqK1ZiYmL1LTE549z8rNy3ibCQDaWpojHOwPBobcj0/gFBZFRV90W+1JHC4ASHqREnf3QT6nIPhEJKegaPiggUDqZqTbTucTux0Go9EAXnQac7Fn0t6bmpvr0e0sFNf+r+gVm5eUU7f1XPH43soaymSl3qO7K+kyqUvCCpNy6jIK+e6RhVvPFX/UYapzzM1bLTt6PzrS/x3SzsbaPyRspMNH12/ui+fvDzjqsniVupraryOGpLx6nc8uaKetzS0vF09fieWzYUGqKsqe23cTP3uI2jevWWnXr4+pidFG9+UBYSfOX4kZ2N9GdLHUrbP5Ameng0dCq6prrLt362fdK4/NEY/hv44+JLNvcl/hHxK+cuNWGpU63MF+3qzpLT4g0yeOEwpx38CQ0rIyfVa79SvX7sxKAAAJxElEQVSXibtyDbW3ffbi5ba9fwCGjxk+tINpewBY4eZ64tQZ34CQuvp6845mm9esFJlctTc2irt7/0BAMJOp6rVutZamBnyGmxE52irUCdYqscmNt3YOzmq343zxdP98KhWbYK3y+xgN8s3laNjxRXo7ootnHymgUWGwpaLnuA/fxQ0NAqFQSKeRnWN/YlCBsnQgcfT5hhwJP8nmFG7zbPkVeOuTk8eev2rtMb99rfCAhwwi/TNk26R1HH1+RF6/zZz466i2qUZAgpQWrePo8yMy1N52qL2ttKOQGihlRSBkCOnfZUUgECKQIBEIGQIJEoGQIZAgEQgZAgkSgZAhfjBBtgVPnaXrNn1S0vnNuR+fMHbm3G87ZrNH/mtoO44+P5ggkaeOJP6993Ciy3wpBvCtjrwk2oijzw/2YADy1JFZvveRbyOOPshTRxY9dXLy2Ms9t7zNzjE1NlqxYI5ZexOSgBOePV+/w4foQHjtWHXpvM9rI9HyKuPNwaBjuflsfZaO0+SJ9v0/ZBb34xNCTpzilpfb9O65YqGrePVZk0iy4ZF05P2Cw67EXhcfYem82US9dXllpX9I+MP4p4qKChPGjJw6fmyzJZFtxNEHeerInKcOADxIeOK+aH47ba3jUee27PENO7RfjkaTFHAvq66XIkNv338cGHbi1FF/AKC8dwkofPdu9eYdU8f/5rBq6cu0Vz5/BLTT1jLvYAYAPB4/7u4DjxWLS8vKDgQcPX8lxsmxmW8KSTY8ko78XKepMxwbk9gTUecePnlqa9MHAIQ4vmHnHhNDg4C9O4velewPCFZUUCSEihx9kKeOzHnqAMD4X0YRf7trli6cNn9J8svUXt27SQqYQqEw5BnydDqGYeLRAsDFmFiLDqazpkwEAEM93ezcvIzMLEKQNBrNY9li4jQ+bFDqy1evyUMiseGRdOSVlRSVlRQBICExKfbWbe+NHprqagBw72F8KbfMb5cXhUIx1NebPmlczI1bhCCRow/y1JE5Tx0AkKc3VgMyVVVYOtr5BYWEIL804KzcfIsOHUQfF7rMFC1TKJjoUKipqiZXviIfisSGh5zi0lIfv8AZk8b3tOpKtKRnvCkp5YquC3ChUEGh8RAhRx/kqSNznjqfQKVSiAytZQF/zoSfaWkjyYaHBKFQ6O3rb2xkMHPyh3wYxzBTEyOP9/cOxANAjj7IU8eB+Cg7njrw3q8EAGrr6jiF74jjQB6wHJ3G4zfgOC7+52VsoJ8qtu8xN+LU1dRE1jtfBIkNDwnHo87msjmB+7wplA9nofZGhhdjYtVUVdWYqgCA43g9r/E4I0cf6Z+skafOf/nrelxmdk5tXd2RYyfV1ZhWXSybDdjU2KiBzz9/5Z/cfPbzlDSicfwvI9Jevzl1/mJBUVHc3QeBYSdVWpT2A6kNj6Qjn/Ds+Z/Rlxa6zKRgGLesnFtWXlVdAwD2A2x0NDW2+hxIe52RnZe/66C/X3AYMRRy9JH+75DIU+e/9OrWde/h4Jy8fBMjg+2evxMXe+QBs3R03ObMijhz/lhkVEez9gd3bgWAdtra+7w2/BF8LPLsBX1WO4/li7tYdJI0KTkkNjySjnxs3G0hjvv4BYgGIX4rkqPR9nhtPBwavnarN41Gsend0232rM+P5Od29EEFytKhdTx1WsCMBcuqaqrFWzyWLyZuPrcFpO7ogwQpHapraisqK8VbaFQq8dYN6VJQVPTJTRF1NdVPfk35iblx+15GZqb47ehWBgkSgZAhpH9TB4FAiECCRCBkCCRIBEKGQIJEIGQIJEgEQoZAgkQgZAjpP6nzRZCUCBPE3LwVde7i8cO+kkZY6O4xaujgCWNGfU0Yew4F0qg098Xf0TKjvKIyMPxkUvJLfkPD6GFDiMrD1kMorLx3R07fgGFq1qrztnl+MEGSlAgTWHW2gEnfYCJuWfnUeYuP7PM2NTH679ph9nYY5fsmF4eOhrELi9atWKKspEShtl4i08DllkWfKzlzms/ON/YPQIJsZX4wQbYdT52UV69nz5jcvavl957oE94FBdSlv2ItW5G3eUMrT40A5Kkjg546Y2fOraurB4B9/kH7/IMA4LDPDsIo4HlKmuf23X67tv4RHPYmM6uHVZed69cCgEAgiDgTffnqNR6fP7Bf3yWuLooKja/W+vfew6ATkVXV1VaWnYveFY8e1ky63m7FKoqCIgDkb91EHifie4A8dWTOU+d0aAAAzHRbscDZyX5AXwCg0+VFa/l8/vb9fiOHDBr/y0iiaBMAQiJOvUhN375+DZ0mFxh2cn9AMPFlkfE2c7dfwO9L3QYNsIlPTNq27yDR/0HCk217P3K1teho5rtjCwAQakRIC+SpI3OeOsSMGGDydHqTT3WvcpsnnsqWcMsu/B0b7OtDJBHLFsxdsMqjuqZWSVHh7+u3enXvOmTgAADoZ91LlGX06NolcN8u8TEJ/ziE1EGeOrLoqUNON0sL8Y9vM7MFAsGCVR7ERxzHcRwvKCwya2+cx+F0MW+iAFKBwSC+WRCyBvLUkXVPneZnxoCCYYe8vWhyH8pqiW8HHMcJO4VPIElZEdIFeeo4EB9lylPnizA2NBDieDG3TGSWU1tXR6Sghvq6Kekf/B2JXANQyirDSP9JHeSp85Voa2mOcLA/GBhyPz6BU1gUFX3RbbUncbh+HT4s+WVqVPRFTmHRxZjYnHw2sQmRsor/I/FfRLQm0v8dEnnqfD0r3FxPnDrjGxBSV19v3tFs85qVVCoVAExNjNa7LzsSHhF55kL/Pr3bvXdwQ8gsyDFAOkjFU+ebPDaI+K5I/wzZNhky0Na6h5V4C41KZl6IaCMgQUoHJUUFJUUFaUeBkDlQyopAyBDSv8uKQCBEIEEiEDIEEiQCIUMgQSIQMgSZIEMj/+QUFrVaKAgEgkyQVp0t1u/wIZ4aQyAQrQCZIPv06m5p3jHydHSrRYNAtHGauYacOGb05djr6CSJQLQOzQjSrL2xGlP18ZNnrRMNAtHGaf4ua+dOHZJT01ohFAQC0bwgtdQ1iopLWiEUBALRvCAVlRgVFZXNdkMgEF9P84Lk8wUiu0EEAvFdaV6QFZWVTFXVVggFgUA0L8icfHYnM9NWCAWBQDQjyHoeLy09o5dV19aJBoFo4zQjyLsP402MDJt8AxQCgfjmkAmynseLPHN+vvOMVosGgWjjkAkyIOT4MAc7q4+N6xEIxPeDzFOHU1iE/HMRiNYEmVwhEDIEcgxAIGQIJEgEQoZAgkQgZAgkSARChkCCRCBkCCRIBEKGQIJEIGQIJEgEQoZAgkQgZAgkSARChkCCRCBkCCRIBEKGQIJEIGSI/wMBkSEELtkRrgAAAABJRU5ErkJggg==;" vertex="1" parent="1">
          <mxGeometry x="350" y="160" width="304" height="385" as="geometry" />
        </mxCell>
        <mxCell id="6rXkhQfJWV-fS7qRB5Xs-2" value="" style="rounded=0;whiteSpace=wrap;html=1;fillColor=none;fontColor=#ffffff;strokeColor=#009900;strokeWidth=3.1496;" vertex="1" parent="1">
          <mxGeometry x="386" y="191" width="160" height="99" as="geometry" />
        </mxCell>
        <mxCell id="6rXkhQfJWV-fS7qRB5Xs-3" value="" style="rounded=0;whiteSpace=wrap;html=1;fillColor=none;fontColor=#ffffff;strokeColor=#FF3399;strokeWidth=3.1496;" vertex="1" parent="1">
          <mxGeometry x="386" y="293" width="236" height="225" as="geometry" />
        </mxCell>
        <mxCell id="6rXkhQfJWV-fS7qRB5Xs-4" value="well known" style="text;html=1;align=center;verticalAlign=middle;whiteSpace=wrap;rounded=0;fontColor=#009900;fontStyle=1;fontSize=19;" vertex="1" parent="1">
          <mxGeometry x="558" y="220" width="70" height="30" as="geometry" />
        </mxCell>
      </root>
    </mxGraphModel>
  </diagram>
  <diagram id="O5-46vhcM_OFGcjj5GMT" name="adams">
    <mxGraphModel dx="979" dy="543" grid="0" gridSize="10" guides="1" tooltips="1" connect="1" arrows="1" fold="1" page="1" pageScale="1" pageWidth="1169" pageHeight="827" math="0" shadow="0">
      <root>
        <mxCell id="0" />
        <mxCell id="1" parent="0" />
        <mxCell id="02XD8mxGCLpR_IF_SSX3-1" value="" style="shape=image;verticalLabelPosition=bottom;labelBackgroundColor=default;verticalAlign=top;aspect=fixed;imageAspect=0;image=data:image/png,iVBORw0KGgoAAAANSUhEUgAAAVMAAAF5CAIAAACtHl5zAAAACXBIWXMAAA7EAAAOxAGVKw4bAAAgAElEQVR4nOydZVwUXRvG7+0ll+4OAVvEFhARu8VEsQO7AxMDxMIERRD1QVEMwHyxu7AwABFpWHKD3J73w+CKwYKIssr5//gwe+bEfWa59pyJcw2BW1oGCASiiUFs7AAQCEQjgJSPQDRFkPIRiKYIUj4C0RRBykcgmiJI+QhEUwQpH4FoiiDlIxBNEaR8BKIpgpSPQDRFkPIRiKYIUj4C0RRBykcgmiJI+QhEUwQpHyEvPHnx6ua9h40dRVOhYZR/5+Fjr2XeQydMmzp/aV5BgYych/876b1lW4M0KudcvXVn4pxFP1Vk276gXYGHf1M89Sb29t0h46eKROKaMhwIPeazLeAXW/mUlnEg5FgrO5tfrAdRR8h1zMfmcEdPm31wh5+Fmck3u9Iys7fuCZwyfrRD69ZlFRUaamoNHaT8sjc4jM3hrF/+A4W3trOFET9XWy+n7gSi3M3Cnr54VcnjvU/60KZl89/Xyq6DhyePHamjrfX7mkBUp67Kl0HSx49amhqjBg/89ar+JQz19Qz19X6qiH2bVr8pmHojEolfxr8zNzWJexn/+5Qf/y6Bxeb0cOz6m+pHfE/tyhcKhQPGTsK3Zy1dhW9cO3sCAM5euBJ8/ASe0tvdAwA6t2+3cdXSOrYdcT7m/KWru7dswBXCLS3dH3L0SdxLRUWFYQP6jB46mEAg4DmXrt/cvnXLSp7gyo2bfL7Ad+1KfFoY/y4h7GRkakaWGkN1YF9X6a8Pj8c/dOzE47gXAqGglZ2d15Txejo6soNh5hfsPHAo8eMnNYbq+FHD+/Xsgad7LfNu27L5u8Tk1IxMSzPTVQvn6OvqAEDoidOnoy5U7/uEUcMnjBoBAJPmLs7NywcAhorKmbCDeJ4iFmvcjHk9Hbs+evayfZuWbA43NTPTY+Tw0UMG4rvwbI5dOq5dskAa1dQFy7JycqvHGRzgb2ZsJPtw9Xb32Lhq6fU79569jKdSyKdCAilkMgA8fxV/9PTZjKwcLQ31YQP6Du7rVut39C4xiUImjx4y8FTUhWmeY6Xp6VnZ/nuDcnLzWto1o1Np0vT8wsKDYeHx7xMpFHLn9vZekyfQ6TQZfcdL3X30tItDe+Ln+BF/gNqVT6FQLpwIZXNKJs5ZtNt3g4WpsXTX0P59BvbpefnarcvXbgbu2AIAREJdJ6tXrt+KOB+zfcNqXPYSDFu9ZZuZsVHg9i0FhcU7A4MVFRSr/2uevXilhU2zGRM9xCKRgZ4uALA4nDV+OyaNcV+9eN6njEy/gP2GenrdOjoAQOiJU0kpKT4rF1Op1MPHT/oFBO7x2yAjGB6Pv2i1Tyf7tnOnT05Nz9x9MJRGofb8PATdffR08axpNDo9NDxird/2wwHbCASC5+gRHu5DgkL/Y3O53ovnAgCZRMHzb1m9XCgSxb2Mj4y++E1DA/u4uTh2Xeu7Y9fm9Sw2e1fg4dFDBqozGMEB/gAQfuY8hmHV8+/wWSOWiAFAIpas9duhoqJsYmhQl8O188Ahl+5dF82cWsnn4bIvYrHWbwuYMm50147tEz583BUYbKCn69C2teyv6enL1/ZtWrZv19p/X1BBYRE+GxcIBKs2+tk2s144cwozv2DHgeAOn+vZsG23qZHBgW2bS0pLdwWFhEVEek2eIKPv+K43CQkjh6A54x+lTrN9Oo1Op/EBgE6l0Wn0L4XJJDKZRKFQCERi9fRauf/42YEjx32WL7KxssRTHj6JY7E5e319iESisaHB2BFDrt68U/1f2dzE2GflEkK1YUGBTt+1ca21pTkAaGtptm/dKv5dAq78HGZeS1sbvPJFs6Y9efEKwzBCzUNK7O27FAplwaypRCLRzNgoh5kXGXNRqvwh/fs4tGsDAN4L53rOXpjw4WML22YUMpmC959E+qbv+G9ZRmb29w0Z6uny+Hy8O8pKihWVlUKhkEKh4MO4qrIKt7Sken51NQa+ceREJJvL9V27kkgk1uVwDerj5jn6q8sMhcXFIpGoV4/uDBUVfV0dGpWqoqxU0wGR8uzFq9HDBjNUVCzNzeJexw9wcwWAx3EveXz+yvleNBrNxsoy/l0ih8vF8y+eNc3IUF+BTtfX1enn2uPqzTu19h0A8gqKdLTQGf4fpQHO83+WzOwc/31BrZrb4nLCSU75VMxiS08rMIlEQeErObW0s/tGugp0ekVl5Qof3/SsbIFAwBcI3Jyd8F1jhg/ZtH13anqGQ9vWXTo6DOrTS3ZIqemZLeyaET9fXWtlZxNxPlosFpNIJAAgfZ7I6GhraWlpZjOZLWyb1bv79eD5q/jImIt+a1ZoqlddPa31cLVqbvtNJTaWlj26dZ62YFnn9vYObVt36WBPpVJlt8vML8jKZbZv2xoA7Fu3jHv5Bld+NpNpbmJMo1VN8slkkrSIsrLSnkOh75KSy8rKxWKxpoZ6rb3j8/kCgUCBTqs1J6IBaQTlFxQWDe7rduXGrdjbd/u4OOOJGIFgYWayYv5saTYZQzRODjNvjd+O2VM9e3brQqPRfAP2S3e1bm57PGj3k+ev4l69jli1blCfXtMnjJNdm9yeYhaz2P77gsaNGNqudUtpYj0OF5FIXLVw7qe09MfPX56KvnDo2IntPqtlX4N8+uIVAIyfNR8AMImESqUJRSIKmVzTBArDsFWbttq3aXnAfzNDVeXy9ZtnYi7X2kEKhUIgEERiSa05EQ1IXU/LaTQqAPCF/J9tQPL1iSsAtGnZfO60SZPHjt4fciwzu+rylbmJcXZunpqqqpmxkZmxkamRoa62puya3yYmqTMY/Xr2wAcfgUCIp2MYFnYysojFduneZfk8r40rlpy9cKWisvKrqCRf/Z+ZmRglfPgoDTUhOdnYwAAf8AFAAlWZi1isomKWsYGBtCCVSuYLBHU+GD+NRCLx273f1Nho/Mhh1dPrcbhev31/4X/XLc3Nxo8cHrTd10BP5/L1m1+19d039fTlq4G9ewXt8A3a4Ru0049AgHeJHwDAxNAwLTNL2nGhSIRv5BUU5ubljxk6mKGqAgB8vrAufSQSiarKyiVfn+Ygfjd1Vb6igoKejk7MlWuZ2blvEz9U8nh1KeUbsH/s9Dk83le/F/ipnfvg/q2a227ZtVcgEACAU9dOOpoaG/x3JX1MycjO8d29f29wmOzKDfX1C4qKnr58VVJadjH2xtOXr/CLYQQCIfFjyt7gI6npmXkFBY/iXmhqqCvQv0yG0zKzBo2bHHnhkjSlr2uPSh5vf0hYDjPv4dO4yOjL1S84Xb1++11Scmp65vb9h0wMDeyaWUl3WZqZvUtMfv76TXpWdkpqGp6IT5KLWCyxRJyVy8zKZco+XGJxVbbS8rKKykp8G/9tOnbqbEpahtek8dySUjaHy+Zw+Xx+/Q4XkUQ6dOzE1Vt3iopZ8e8ScvLyjQ2//ISJxeIJXgvW+G6XpvD4vDfvk1wcu+I/LuYmxu1atXz28jUAdOlgT6fRt+87+CHl052Hj2/cfYAX0VBjKNDpsbfvlZaVv3j9NjL6okhc4/M/1bG2ssjIyqlLTkRD8ROz/aVzZ+48cGjG4hV6OtqbVy83qsPNaiqFQqFQgPDtYAIABAJh+dxZs5asCgoLXzBzCoVM3uaz5kDo0eUb/MhkYqf27WZNmiC78lZ2NjM8PXYfDC0rr3Bo06qzg312LhPf5b1wbvDxE6s2b63k8WytrTavWlZ9dkokEikUCpn4pe8KdPruLRt2BQbPWLxSjaE6c+K4Xs7dpXutLMwCjxzPyMq2MDXZuOqrq4yuTt1ev3u/cfseIGAD3FytLMwBYNWmrfhdPQCYOn8pAKxbutC2mWVNHWFzuXi26kXOhh1SVVGOvXW3orLSa9lq6d650yYN7utWj8PVurntinleJ85FB4YcYzBU+/dy6duzR/UMFDIZ/1HGefX2PZVCbl7tZ86hXavoK7EzJ3pQKBS/dSu37glctt7XzsbK1bFbSWkpANBotA0rFgeGHjsVdcHC1MTFsUvM1Wv4T5VsHNq0fvri5djhQ2rNiWgoCOjtWrLxWubt6tjdfXD/xg7kX4ZbWjph1sKQ3f7oGb4/htw9K4pogjBUVEYOGRAWEdnYgTQhkPIRcsHY4UPY3JI7Dx83diBNBTTbR8gLQpGIyy3R0tRo7ECaBEj5CERTBM32EYimCFI+AtEUQcpHIJoiSPkIRFNEXpRfxGL1dvfA/zbt3NNYYcinE15DUXL39sehA987tP04clh53LO6FCk8fOhDrx4JHe3TZ88Q5n7xCOGnpaVNnZjQod2HPq7FESe+KSWprGCfO4MJ6/TcPqJRkBfl4+4UwQH+Tl07NWIYvZy6u8iZJxSbw+3t7pGanvmL9fDT0rKWLNL0mGAddUG934D0eXOEBfm1NB19vvhkuKHPFsvI80Ql5YxF8wDDAAATCjPmelFNLSzPRuuv9M7fu7vkdtXiH17qJ+bWLUmuPXI2bsBESPnyi7won0Qi4StDVJVVGjEM+zat2rVq0YgB/D7YMdGK9u01Ro6mGptoTZlGNzfnXr1aS5GzZzTHeSh360YzMzNc58P/+LEyMQEAyp89FbGK9ZevoJmaqrq4aowcxT5/Hi+S7b1SxGbrzJwts2JE49MI6/Prwb1HT0PCTxWz2bZWFgu9phsb6OPpNfnwQQ1edAeP/ldZwdPU1LgYe51IJA7p5zZuxDD4bJKHF/zGCc9rmXc/V5e3iUnPXrxWV2N4TZnQyb4dvistM9t/74GsHKaFqYmutpZAIKjVg/C/yHOJySm9nB2PnTpTWFw8cbT76GGDa+qIDAdEkOnD90MEmel0a2t8W1RcjPF4/MwM2dHyMzO0rKs8SPjpaQQKRZCZqdC8BT8zg2piQqTTAQATiYR5eYLMdDybRdgxooJixds3smtGNDp/gfIfP3+xLyRskdc0Y0PDC1evrdjge+zALgqFIsOHD+d7LzoAuP3wyYhB/fzXeSckJ+87fLRty5bNbaxlOOEBQMS56CkeY8YOG3Ix9ob/nqCTwXvpNLpAIPDe5OfUtfP2DWtymMz1/rtsLC3q0p2kjynFLPbIwQPpdJqxoT7UbCgowwGxJh++8opK98kzv2nxQngohUIRs1g0CysA4CUlZSyYA2KxmMWSEScmFou5XJKCIgBwLl9i+vsCiSRiFQOAqJiFp4u5nMzFCwQZGZLPC/KICop1OQiIRucvUH7YicjJY0d17eAAAF6TJ9x//OxF/NvODvYyfPhwvveiA4BmVuYTx7gDgIWZyeXrt98nJTe3scbPNeBHTngA0N+tp1sPRwCY7jn28vWbmVm5zawsHse9FIpE0yeMI5NJttZWzl075+XLesVINQg7Nq6t7oEnoyM1OSDW5MOnoEAP2uH7TXtk8pdvueTmjRyf9QYrvSvevBbm1XKeDwCYRJK/bw/nyiXz4CPZq1dCtZ9FXuqnzLlzVFx6aIwam7tpQ936jpAX5F35fD4/PSt77+GwfSFH8RSxWJybVwAyffhwvveiAwDFahYdqspKJWW1P7ysQFeoKqugQCQS8SLZTKaZsZHUgo5IrKudl5mx4TfWl7V25Htq8uEjEgj4T9gP4cZe5cREmQUeVGjZquLN67pEy/TbTFLXsDxxmqzx1eP0/KzM9CkTdRctUR8yrOTG9bpUhZAr5F35AEAgEBbMmGxn88X0EnekleHDV/eq6xEMvoFhmFjSMNZx9ehITT58Mmb7JA0NcVmZaehRio4OAIjLykmasgy8CCQSicGgt2hptHELgUIBAHF5GVlTCwDImhqSykqzoGDFNm0/p9fiBYaQN+Rd+TQaTU9HOyuX2a9XTzylksfDrbWkPnx4ukAgrG659bsxMTQ8e+EKn8+vcgH8hXvXsjvyQwdEcxPjmKvX1FRV1RiqAIBhGF/ABwAZs32qiZmksoLy+Y0jvI/Jav0GfJVPIoGv3+1FMzGlW1lXyZ7LFRUUUo2N8XTAMIXmVTdB+B+Tqcam9e4+olGQl7t6MrzoPNyHRV+JPX/pf8z8ggdP4iZ4Lchm5kHNPnwN23pNdOlgr6BA37b/Wy+6eiC7Iz90QKzJhw+f7X/zh08H1AYPLo+LY50/K8zNLTp2VJCexujbT9oKJhZ96OeWMderemDqw4YXhx8vj3smyM7K9dtMtbTA1a7UsRNJXYPp7yfMzSm9f5d1/pz60K8MQmtixUY//72B9T5QiAZEXsZ8GV50vV2cAODE2ajQ8AhDfb3506fgFoAyfPgasPWailAoFL+1K7fuObB47SYbS/O2LZrX49wBp9aOfO+AWA8fPrqFpfGOXfkBO5lbNtFMzUz37KfofeWkSKBQCV878KuPGCliFWetWCopLVWwb2+6ex/eRwKFYnbgYO6m9cmDB5DV1XW85qr2qv1FXQAgFAioZErt+RC/H7Q+v/5IXxEDAOu27tTT0Z49xTMtM2uB9/pvcoYH7ZXxI9JEkGDYuOlzJ44bKT2vQTQi8jLm/3UIBAKvpd6eo91tm1k+f/0m7lX8zo1rAcDIQP/Qzq3fZFauw3us/nly8/KNDPR6Ozs2diAIADTm/wpPnr88Hnk+IyvbUE/Xw32Yc7fOjR0RAlFXkPIRiKaIvFzbRyAQfxKkfASiKYKUj0A0RZDyEYimCFI+AtEUkRflP335auC4yY0dBRSxWDfvPaxjZtledD+k9P7d5IH9Ejq0S5s5TVhY+AuRIhC/hLwov97sDQ7z2Rbw6/W8evPOZ/vuCV4Lo678ry75ZXjR1QTvY3LmgvmaY8ZZHD9BpNIyZk2HBlrth0D8LH+98huEktKyLQH79HS0+vR0rmMRGV50NcE+d1apc2fN8RPods2NNm8RZGWWv3r1y7EjEPVBjp7exTAs/Mz56CuxANDX1WWqx2jpYvgf+vCFnjh9OuoCnqG3uwcATBg1fMKoEQCQX1h4MCw8/n0ihULu3N7ea/IEOp0mo2llJcWI4P0UCiUy+mJKWnpdopXhRVcTgpwcupUVvk1iqFHNLfifUpTat69LcwhEwyJHyhcKhdnMPP913hlZ2bsOhujpaA3s3Qtq9uHzHD3Cw31IUOh/bC7Xe/FcACCTqtbPbNi229TI4MC2zSWlpbuCQsIiIr0my1rKRiQSicQfT3/mrFjzjeP15lXL2rdtJcOLribIagwB88siPAKJJMzPq/24IBC/ATlSPplMWjJ7BoVMtjQ3/fAp9cbdB7jya/Lho5DJFDKZRCaTSKTqHnUAsHjWNCNDfQU6XV9Xp59rj6s379Q7qjWL5/MFguopetra0u2f8qJT7d0na/HCssePlDp0LD4RXvn+HcOtTotbEYgGR46UTySSpA65NlaWt+4/BJk+fDJQVlbacyj0XVJyWVm5WCzW1FCvd1T6ujo17fpZLzoVR2fNiZMz5szCMEypQ0eqsQlZS7vWUgjE70COlF8dMokEn11ea/LhqwkMw1Zt2mrfpuUB/80MVZXL12+eiblc70hqmu3Xz4tOd+587UlTJHw+icFI7N6FYmRcaxEE4ncgR8rHJBIMw/CreilpGYYGeiDThw+HSiV/MxvPKyjMzcvftt6boaoCAHz+L73jqabZfp286L5ztgMAorIyUVmZdSqCpKKs2LrNr8SGQNQbObqrJxSJjpyM5PP5iR8/Xrp2o49LlfN0TT58OJZmZu8Sk5+/fpOelZ2SmgYAGmoMBTo99va90rLyF6/fRkZfFInr6c8HAPq6Ot/Y2uG3CWr1ostasTSpVw9JZUX1RHFpafnzOKa/H3Obn/7K1QQSSbor4lz0uJnz6h0nAvFTyNGYr6Gmxufzx82ch2EwqE+vvq4ueHpNPnw4rk7dXr97v3H7HiBgA9xcrSzMaTTahhWLA0OPnYq6YGFq4uLYJebqNalJbkNRqxcdkUr7xtYOAMqfPslet1rBzs50X6Byt+7Vd/EFIgpZjr4OxL9N03Lm8A3Y/+TFy+opA9xcZ070aKx4qrN5114KmVzdQh+B+H00LeWzOBw+/6uTdkVFBYZKY769F0eCYQtWrV+7ZL6OtlZjx4JoEjQt5SMQCBw5usKHQCD+GEj5CERTBCkfgWiKIOUjEE0RpHwEoimClI9ANEXkRfmN7sN36dqN8V4LBo+fssLHNy0zuy5FGtCHj5+RkTpxfEKHdh+HDap4Xc2oB8MKQw8n9eie0LlD7paNmEj0k91CIH6MvCi/3jSID9+12/eORZydPWXCXr+N6mqMtX7bv1ml8z0N6MMnEQjSpk+hmZha/HdS1dUtfeY0YW4uXoR1+lTRsaMGGzaaHjhY9vgx09/3F3uKQOD89cpvEC5fuzWkf++uHRzMjI3mz5hSVFT8ISVVdpEG9OEru38PqyjXX7OObmunO3c+zcqafTEaL8I6G6k9ebJqj55K7dvrr1jFuRBTq/MPAlEX5GiJSCP68I0ZMcjcpGqpPJVCJZKI4tqW9zWgD58gO5tqbEL8vKBIqV07/qdPVUWys2mWVUWU7NtLeDxhTg7NwkJ2QwhErciR8hvRh6+LwxcbzNsPHikqKDS3scY//gEfPpK6mjA/78tifhJJmFe1DJmkriaULkkmEIBIFObnIeUjfh05Ur48+PAVFbOCj5+Y6jGa9nmB7R/w4VNxdM713VwYFqo1cXLF8zhW5GnFdvZ4EUbvPkXHjyp370ZmqOds2gASCVFZuY59QSBkIEfKb3QfPoFAsGF7gH3rllL/H/gjPnxkdXXjrduyV63I37+XamCo0LoN5bM/n86s2fxPn5L79yVQKOoDBwMABVn3IRoCOVJ+dRrFh29nYDABCItnz6ie+Gd8+FR79LS980DCYZO1ddLnzKQaG+HpRAVF0/1BoqIiIp3OS03hXL1M1kbKRzQAcqT8xvXhOxUV8y4ped/WjbSvjXT+mA8fkUYj6urxkpLK4+L0lq2sXoSspQUYVvTfcRXnHgTk24NoCOTorl4j+vA9fv4i/Ez0olnTCEBgc7hsDrfks23Bn/Hhw8TiijfxRf8dT508QWPkaLqF5ZfDkpdXev9e+pyZ5Y8f6S5YVL02ZN2HqDdyNIA0og9f9JVrAoHAe7O/NKWZlcX+rZtkRNuwPnySstL06VMoJia6c+drjv3KHazoWBj36mWljp0swk9RDY2q70LWfYh607Q8eeTZh68eIOs+RL1pWsqXWx++eoCs+xC/QtNSPgKBwJGjK3wIBOKPgZSPQDRFkPIRiKYIUj4C0RRBykcgmiJI+QhEU+RffgLs6q07p87FHDvwxavr1r2HW/cG4ttzp00a3NethqINgKSygnvlstrgoQQK5VfqKTx8iHU6QlxSoujgYLhmA8XAAADSZk4rf/L4q3xEYstXb3+lIUST4l9Wfms7WxjxVUonB/vgAH8AWOe38/e1y0v9xI48xb4QIykvZ/Qf8CvKZ0efLz4ZbrR5K8XQMP/A3oxF86xOnQUCwXDtekn5lxUBrFMnhUVFDRE7oqnwLyvfUF/PsNoT/gCgpKigpGgEABTKb+x4tvdKmqmpzszZebu2/2JV7LNnNMd5KHfrBgCG63ySnLtVJiYoNG9B/by8FwAwsbj08UMD7zW/2BaiSSFHyueWlu4POfok7qWiosKwAX1GDx2Mr9j1WubdtmXzd4nJqRmZlmamqxbOkbplZDPzDoWFv0tKotPp3Tt1mDZhLL7GdtLcxbl5+QDAUFE5E3awLq0z8wt2HjiU+PGTGkN1/Kjh/Xr2wNO9lnn3c3V5m5j07MVrdTWG15QJnezbya7KIuwYUUGx4u2b73fxPnzI3exTmZhANTDQW7pcxamH7Kr4mRla1lXGBPz0NAKFIsjMlC4Nxim9dwcwTLmbY126iUDgyIvyJRi2ess2M2OjwO1bCgqLdwYGKyooSs/D7z56unjWNBqdHhoesdZv++GAbfiPwqbtAeZmpnu3bmKzOTsOBNPp9KkeowFgy+rlQpEo7mV8ZPTFurTO4/EXrfbpZN927vTJqemZuw+G0ijUno5d8b0R56KneIwZO2zIxdgb/nuCTgbvpdPoj5+/2Lh9T/VKbK0tAzavBwCiguIPWxEW5KdO8dT1mmu0xa887lnmogWWp8/SraxrigoTi8VcLu72x7l8ienvCySSiFX8TbbiUxHqw0dIF/wiEHVBXpT/8Ekci83Z6+tDJBKNDQ3Gjhhy9eYdqfKH9O/j0K4NAHgvnOs5e2HCh48tbJtJMCw3r2DCKHdjA31jA/1Vi2az2Fw8Pz7Jz6jbCzMAIPb2XQqFsmDWVCKRaGZslMPMi4y5KFV+f7eebj0cAWC659jL129mZuU2s7Jo27JF0I6v3O9p363J/YbC0MMqjk6a4ycAANXEtPTJY05MlN6S5bJLYRJJ/r49nCuXzIOPZK9eCRhWfS8/Pb0iLs5o05Y69hSBwJEX5SenfCpmsQeMnYR/xCQSBYUvxjskQtXdRx1tLS0tzWwms4VtMyKBMMVj9Pb9B2/ee9C+TetunRzsrGscP2WTmp7Zwq4Z8bN/Tis7m4jz0WKxmEQiAYACXQFPV1RQIBKJJWVlAKBAp5sZG9VU4Q+pfPeuMuF9ybVrn/soVnV2AQBMLE7s1rl6TvOQIwotW+HbTL/NJHUNyxOnyRoa39fJOh2h4uRM0dH9qUgQCHlRPkYgWJiZVF9qLjXbl8GwAX0dO3d8FPfi0fMXwcdPLp83q3vnDvULoPbGvo5KxmxfRln1YSM0PcZLU/CZPIFEsjr71Vs6yDq6eDqJwaC3aGm0cQt+g0BcXkbW/LImV1JZwY6JMtm+q26xIxBfkBflm5sYx1y9pqaqqsZQBQAMw/iCL/b1EpDgG0UsVlExy9jAAADyCwsvXbvlOXrE4L5ug/u6HTt1NiIqpn7KNzMxir4SK8EwIoEAAAnJycYGBiSZZ871mO3TrawrkxLpn9+cIamsIH6eTVS/Vv9VnSamdCvrKtlzuaKCQqrxl5ycSxdJDDXlLl1r6R4C8R3y8gyfU6NR//QAACAASURBVNdOOpoaG/x3JX1MycjO8d29f29wmHTv1eu33yUlp6Znbt9/yMTQwK6ZFQAoKSpevXHr8PGTeQUFaRmZbxMSjQ0N8PzM/IKsXGYRiyWWiLNymVm5zEoeDwAqKivxj0KhiMXmZuUy8woKAKCva49KHm9/SFgOM+/h07jI6MsjhwyUHTA+26/+J8OfG0dz0hT+x+Rcn/W81E8V8a8/eXqwY6JkF1EfNrw4/Hh53DNBdlau32aqpUX1C/us06c0Rrh/b/L5Pim5t7sHM78Wb3JEU0ZexnwKmbzNZ82B0KPLN/iRycRO7dvNmvTlrThWFmaBR45nZGVbmJpsXLUEn3IrKyn5r1t16PjJWUu8KWRyB/s2XpM98fyrNm3F7+oBwNT5SwFg3dKF3Tt3eBL3UvoM38lzUSfPRZmbGB3a5a9Ap+/esmFXYPCMxSvVGKozJ47r5dwdGhqamZl52PFcvy2fRo0gq2uojxihNmiI7CLqI0aKWMVZK5ZKSksV7Nub7t4Hn083yl+84Kemqg8d/n0pgVAIAMiiDyGDv8CTx2uZt6tjd/fB/Rs7kL+GS7E3I6JiwoP21OVaCaJpIi+zfUQD8jEtffYUTyR7hAzQhPAfZNGsqY0dAkLe+Qtm+wgEosFBs30EoimClI9ANEWQ8hGIpghSPgLRFEHKRyCaIuiu3k9QUlrmPnnmwR1+FmYmMrJ1WJteWimpnnJxqZG1Xo1P9edzRc6bMvHtPq2V9niihXeI3w5S/m9h9RCt7rYK0o9G6rKOs6YK6eJSIwAIvM6WYDIyIhANBlL+b0FXjWSuXVfjTTKRgM8IGIokdrn4d8aFQFQhR8qPf5cQdjIyNSNLjaE6sK/rqMEDAeDWvYfHI8+pqzE+pWX2dOr6/PUbgUDgvXBu21YtoGYfvvKKyh37D8a9fqOprtbRvm3s7bsXwo/grfwXeS4xOaWXs+OxU2cKi4snjnYfPWxwTa0DAIZhR0+djbkSq6ys1M+1xy/2MeJRyfH7XCZXbK5NWdRX3cnux75d1Qm7y414xC0slTTToy7qr97ZqmoqwS4Xb4wquv2+UplO8HRkTHdRQ0/rIuqOvCifxeGs8dsxaYz76sXzPmVk+gXsN9TT69bRAQAqKiv3+PmciboUe+duyJ7t4ZHnoy7H4sqvyYdv5/5DJaWlR/ZsB4Ctew5801bSx5RiFnvk4IF0Os3YUF926zFXr0Vf/t/8GVPMjA2PnT4nraQezhy3Esp3XC4OGK9rrUe9El8+/3jBtVXGOqqyXACuvS0PvM7e7qFjoUONfFwy+0jerTWmaopECQbTQ/Ks9ajnFxky2SLvyEIlGtGjm+rPHHJEk0ZelK9Ap+/auNba0hwAtLU027duFf8uAdeeirIyQ0XF0EhfS1ODoaJibGiQnJIGADX58LE4nIdxzwO3bdbR1gKA4YP7b9sb9HVrhB0b16ooK9Wl9YuxN8YMG+Tq1A0AFs6aOmbaS7yIbGeOJeEF0lXzc93Up/dUA4CWRrSzC43ws4CpPRiHbrLjM3luLZWgZjIKhfrqZGdbRQIBFvVX11cnC0QSAOL1t+WFpeLT87RIRIKFDmWmq9rZZ6VI+Yi6I0fKr6isXOHjm56VLRAI+AKBm7OT7CI1+fDlMPMJAOamJtJs3xQ0MzasLnsZrUswjJmfb9usyt6PTCJXLyLDh2/5QE3pFT51papRXUeVfPpJyZITBTksoQSDMp6EJ6jlgt7QDioXX5UN2J7lbKfobKco1fbbTH4BV9RmZTr+UYJhSjR0gxbxE8iL8nOYeWv8dsye6tmzWxcajeYbsL8upX7ow4dhGAYgkWDfedX8fOsYBjVY9Mme7f/wCl/Mi7J9sezdnrptTGgUEsHRJ6PWwLRVSNGLjR4nV95NqlgRUWiqRQ6epkenEIEANgbU7WO/uAChNbmIn0JelP82MUmdwZC+30IgECrQ6bIK1OzDZ2SgBwAfUj61sG0GACJh7VfLa2qdSCQa6Ol+SPmEX1YQikTSIvXw4XuUXOFkq+hgTgcACQYCce138M48LdFVJTvZKXazUVjQV6O7T8bjFJ6LnWIzPWr4wxINZZKmMgkAMAx4QkmttSEQUuRlimior19QVPT05auS0rKLsTeevnwlltSi2Jp8+DTU1Lp1cthzKDT+XcKbhKTjkWd/pfVBfdwizl+4/eDxp7T03UEh0iL18OEz06Y8SalMyRfmc0QbzhVxKyRCCQYAIgmWVihMKxRyK8VlfAm+LZZgAFBYIl57rujJx8p8jujamzKRGDPVpABAvzZK+gzSnLD8+ExeSr5w8Yn8Dee+vFcP+fAhakVexvxWdjYzPD12HwwtK69waNOqs4N9di5TdhEZPnxLZs/cvu+g95ZtOlqabVu2uHX/Yb1bH9zXjc0p2XMoVFlZyX1Q/2evXte7j1Oc1bKKRWP35ZCIMNRBxUybklEoAoDiUnE//yxpNnz7yUYzNUXCTFc1CQZrzhQVlorMtCg7x+tY6FAAgEImHPMy2BxVNOlgHpkELs0VVw354saNfPgQtfJvOnMIhULK5zfYnrt45dqd+4d2+jVuSH8S5MOHqJV/c1jYtHOvnbWli2PX7BzmmZjLwwb0aeyI/ijIhw9RK//mmJ+RnXP4+Mn4dwkMhqqbs+P4kcNkvzYDgWhq/JvKRyAQspGXa/sIBOJPgpSPQDRFkPIRiKYIUj4C0RRBykcgmiL/gvK37QvaFXi4LjkPHv1vnd+O3xHDgdBjPtsCfkfNP8WTj5W2S1OffeLhH/M5ItulqR/zBI0bFUIO+Ree5Onl1J1Q93V5NbM3OIzN4axfvujXq2pcDt/mdLTUa+woEHLNv6B8+zatGjsE+eJRcmViDt/OkIbsPBE1IRfKLyktGzVlVnR4CJ1Gn7dy3fQJY1u3sAsK+49KJk+dMBYA7j16GhJ+qpjNtrWyWOg13dhAHwCKWKxxM+bhNTh26bh2yQJphTJ8+DAMTpyNir4SSyKSBvXt5eE+DABCT5w+HXUBz9Db3QMAJowaPmHUCNlhp2dl++8NysnNa2nXjE6lSdPFYnH4maiLsdcFQqFj545zpk5UVKhy6fiQ8mn3oSNZObmGejoeI4c7demEp//QBfDBszjfXfvCD+7VUFPDs23wD8AwzGflYtmB9W6tGHybEzD+W/fu+0kVW2KKc9giCx2Kj7tWWxM6ANx8X77tImtxf41dV1jFpSLn5kqbR2opUKvmUFfjy3deZhWUiFob0zaN0q67rShCzpGL83xVFWUtLc3MrFw+n/8pPf190gcAyMzJsbIwB4DHz1/sCwmbNdnj4E4/CzPTFRt8hUIhAKgzGMEB/sEB/k5dO31TodSHb/uG1Z/S0qvvev0+QSQSb127auzwIcdOnX2b+AEAPEePuHAitF/PHp3bt7twIvTCidCxw4fKjlkgEKza6Keno73dx7u3i9Oz1/HSXSHhEc9fv9nkvTRg07r8gsKdgcF4en5h4ZJ1m7t2aB+0w3fYwH7+ewI/pHyCzy6Ajl06hu7ZNnuq54nIqIfPngNAV4f2Gurq127fxYtzS0qfvXo1qG8v/Jj0G+1Z/W/RGh9pADNd1K+/qcgsFmHVBv03WbzZR/PHdVWNWWzk2kLJM5CZzRLiu3I5oiuvy3aM09k1XvfJx8rj97l4+q2E8k1RRauGaMQsMbIxoE46yBSI0DTiH0EuxnwAaGZunp6VzePzzUxM3n1IBoDM7FzcGC/sROTksaO6dnAAAK/JE+4/fvYi/m1nB3sSiYT7Yakqq3BLS6RVyfbha97MauIYdwCwNDf93+27iR+SW9nZUMhkCplMIpNJJBKdVosjCM7juJc8Pn/lfC8ajWZjZRn/LpHD5QJAMZsTfeVacIA/PjGZN2PKjEUryisqlRQVYq5es7WymDBqOAAYG+hnZGWnpKXbWFnW5AJIJBIH9XW7HHtz9NDBBALh5r2H2pqa7du0gtp8Qaz0KU62iiG3OV6uatLEkFvcAW2VPR0ZADC/j/rz1Mrj90u8h2gCAAFg+zgdKpkAAIPslV+l8/EiAVfYC/uqu7ZQAgDvIZrX3pQ/TK5waS7LOBDxtyAvyre2NMvMyiliFTt16RBz9Xolj1dRUaGvq8Pn89OzsvceDtsXchTPKRaLc/NkeU7I9uGrrhB1hiq3tLR+AWczmeYmxjRa1SSfTK5aEZSaliEWi2csWoF/xDAMw7C8/AJLc9P0rBxbKytpDTMnjsc3ZHgQ9nd1CT997mX8u/ZtW127c3dQHzd8BZ5sF0ACwAxXhmcQc3gHZWliUi4fNwLFcbBQeJFWWRU8EXDZAwBDkcgplwAATyD5mCfwOV+88XwxvkskwTKLvrgSIf5q5EX5VubmMf+7JsEwz1HDn79+++BJnKW5Gf5fTiAQFsyYbGfTTJpZXY0ho6qf8OH7hXWsGIb9cBksgQBEAmGfnw+Z8uWUWGrX88MGZXgQqigr9XTsdun6TTWGanZuXp+ezni6bBdAAoHQ1pTe1pR29B7369i+ah770cy9ehYCATaM0Gxr+mUSpKWCljz+I8iL8q0tzbNyckVisZW5eSs72xv3HlhbmAMAjUbT09HOymX269UTz1nJ48m26KuHDx8OlUrmC+p669vE0PD8pat8gQCfREgt+kyNjSQYVsTmdG7fThownsfUyDAx5ZO0hqs3b6urqXVu3062B+HQ/r3nrFhDpZB7dO0stQyWPdvHxTvdRW1maJ40sZk+7WUqz72jCv7xZTqvmb4s40A6lWisQU4rFI7sVGX4W87HlGhozf8/glxc4QMANYaqSCzW19Emk0ktbW3eJiTiygcAD/dh0Vdiz1/6HzO/4MGTuAleC7KZeQAgFouzcplZuczS8rKKykp8WyKR1MOHD8fSzOxdYvLz12/Ss7JTUtNkZ+7SwZ5Oo2/fd/BDyqc7Dx/fuPsAT9fW0uzdw2l3UMijuOfM/IJTUTGzlqwSi8UAMLR/76SPnyLOx+QVFNx+8Dgo7D8VJSWozYPQ3NSkeTPr2w8e49f2cGS7AOLjtqOtonU1bU/rybj4uuzU45LMYlHwLc7LNJ6n45fJ/w/x6qX+3/2SY/e4mcWia2/LXbdkpBcKpXsjzkWPmzmvlmOKkFfkZcwHACszMzMTIwBobmstkWDWFmZ4em8XJwA4cTYqNDzCUF9v/vQpRvp6AMDmcqfOXyotjm+fDTukqqL8sz58OK5O3V6/e79x+x4gYAPcXK0+//T8EAqF4rdu5dY9gcvW+9rZWLk6div5fMlgwaypxyPOBASG8Ph8G2vLdUsX4r4gutraO3xW7wk+cuJstKGe7or5s/FZSa0ehB3at6vk822sLOt4JKXM7Km2OLzqmkhbE/qBibp+F4q3xBRb6FCOe+mbaNby7Q/roAIAgdc5O66wzLQo60dom1W7q8cXiJDV39/Lv+nM0YA+fONmzCurKK+esmL+bPz1O38GiUQybcGy0cMH93Fx/mON1oXNu/ZSyOQV82c3diCI+vBv/mY3oA/frs1rv7kSpq72515ilZGdE3M1ViASuXTr8scarQsSDMsvKFq7ZH5jB4KoJ//mmP/P+PCNmzFPRUV5+dxZluamjR0L4p/i31Q+AoGQjbxc20cgEH8SpHwEoimClI9ANEWQ8hGIpghSPgLRFPkL7ucHBIVcvXkb3w4O8P9+jdq2fUFkEnnx7Ol/PLSfw+NALokIx70M8I9rIgtLeZI9nt/6ZyAQf4C/QPmeo0cMG9i3pLRs6bpNP8zQUD58f4Bnn3ivM3m4GQ4C0Yj8BYLR1FA3MzbCjS5+iH2bVu1atfiTIdUbIgEO36xaOfvDRbIIxJ9BjsZ8NocbcDDk1Zt3DIZq7x5O40cOI8ocyWvy4SuvqBzmOW3a+DGXrt1iczjdOjksmjUNt9A4ePS/ygqepqbGxdjrRCJxSD+3cSOG4aWY+QU7DxxK/PhJjaE6ftRw6ZpZAFi6fnP71i0reYIrN27y+QLftStb2dlMmrvY3MT4TUKiprq6lYXZ/cfPHNq2Xrdsoex3V7u1Urr5riIlX2il+5WhXWaxaPXpgvhMvoYyaW5vdela2qEB2SM7qj5Pq7yXWKGpTPIeqtXDTrHqcJWLN0YV3X5fqUwneDoypruoobdmI+qOvChfIpGs8PE1NNDf4+vD4XJ3BAYrKii4D+4vowjuwwcA4WfOY98NoM9exa9ePLeQxdoffPTQsZPzZ0zG028/fDJiUD//dd4Jycn7Dh9t27JlcxtrHo+/aLVPJ/u2c6dPTk3P3H0wlEah9nTsKq3t7MUrLWyazZjoIRaJDPSqzsybWZrPnzHFc/ZCl+5dwvbv9Jy9MDU9Q09X133yzG+CuRAeiq8gMtOmurWCkNucrWO0pRFXCDCP/TnOdorrhmt9yBWsPVtEJxMG2lfZ6Ry6yV7cX2NWT/WTj0qWnyy4u9ZEgUqUYDA9JM9aj3p+kSGTLfKOLFSiET26/bkFBYi/HXlR/rNX8XkFRXv9NtLpNACY5jEmPiFJdpGafPhwpk8Ya2NlaQOWAp4g4GDInKme+KP7zazMcR8+CzOTy9dvv09Kbm5jHXv7LoVCWTBrKpFINDM2ymHmRcZcrK58cxNjn5VLvhnPDfT01NUYKirKpiZGWhoaSgqKbG6JuZnpN54ZAED+vJqVADDdRW30vtwFfdSle6PiSqlkoo+7FolIsNajphcJD9/hSJU/qrPqUAcVAFg2SPP0k5JP+cKWxrTrb8sLS8Wn52mRiAQLHcpMV7Wzz0qR8hF1R16Un5mVbWpsiMseAHo6devp1O1XKiQSqs4Umtta8wWCwuJiPR0dAFCsZnejqqxUUlYGAKnpmS3smklPLlrZ2UScjxaLxdJ1Pi3t7GRP46u1S5DlkEeA5ka0jlb00Lsc+DzoJ+UK7M1pJGJV/Q4W9EM3OSIJRiYSAEDxswG2Mo1AIhI4FWIAeJvJL+CK2qxMx3dJMEyJ9hdcskHID/Ki/N+HLMVW29VQ58jlFZUyZvt4gzN7qs8IyetkRadTCN8FIovq4doYULePre7Dg87yET+BvCjfxMgwIzuKx+Pjw/6bhKSPn9JGDOpX7wolmATfSExOoVGp2pqaMjKbmRhFX4mVYBhu1JuQnGxsYFC/hb0KCnTZs30A6GhJt9Gn3k+qcGulBADWepTwB1wJBvio/yqdZ6FDIRNlKbmZHjX8YYmGMklTmQQAGAY8oaQe0SKaLPIyRexo31ZPW3vHgUOZ2bnvkpJ3BQaLRFWWbywOJyuXmZOXDwB5+QVZuUw2hws1+/DhpcIjozKzc+PfJYSEn+rt4iRbxn1de1TyePtDwnKYeQ+fxkVGXx45ZGD9OoLP9r/5kw7I0oF5ek+G5PNsf0RH1XI+timqKKNIeP1tRehtzpQetTjk9WujpM8gzQnLj8/kpeQLF5/I33CuSLr3fVJyb3cPZr4sb3JEE0dexnwikei/3jsg6PCc5asZDNUBvVxGDR2E7zoWcVb6DN+6rTsBYEi/3nOmTqzJhw8XuZ6etvcWfw63pHsnhxkTPWS3rkCn796yYVdg8IzFK9UYqjMnjuvl3P13dFOKawslS52qG3tKNELEPMM1kQWDdmRrKJNWDNYc0l5ZdnEKmXDMy2BzVNGkg3lkErg0V1w1REu6VyAUAgAyyUPI4B905sDv5x/w34y/taYJcin2ZkRUTHjQHnTyj6gJeZntIxqQj2nps6d4ItkjZIAmhP8gi2ZNbewQEPLOPzjbRyAQtYJm+whEUwQpH4FoiiDlIxBNEaR8BKIpgpSPQDRF/gLlBwSF9Hb3wP/Ss7K/z7BtX9CuwMON1fqvs+d/7A5r0sv4VU/zXnhR1mV9xu9oCIGQ8hfcz29cH75aW28QSnmSU4+401xqeVwfgWgo/gLla2qoa2qo46t0foh9m1aN2HqDQCTA0XvcCd0ZNAoB2fMh/gBypPzf7cMnwTDP2Qs93If2c3XBc4ZFnEn4kLx9w2oAiH+XEHYyMjUjS42hOrCv66jBtazVe/X2/Qof32tnT+AfDx79LzOH6bt6OQCIxeLwM1EXY68LhELHzh3nTJ2oqKAgu7YWxjR2mSTqeemYLt/66oTc4Ry9yy3lSbpaKWwcpa2tQgKAm+/Lt11kLe6vsesKq7hU5NxcafNILQUqEQBEEizwOufkQ65AhPVurbxmmJYyDT3Gi/gWeTnPx334SCTSHl+fxbOm/e/WnfOX/ie7CO7DFxzg79S10/d7cR++FQtnv36bcOjYSQAgEghuzo637j+S5rnz4FHvHk4AwOJw1vjtcOzSMXTPttlTPU9ERj189rzefQkJj3j++s0m76UBm9blFxTuDAzG0w8dO9FvtGf1v7CTkfguMhGm9mCE3uaKJVh1T8HQO9wjd7ibRmmfmW9IJBImBeWKPy/uzeWIrrwu2zFOZ9d43ScfK4/fr5qV7LjEuv+h4uA0vRNzDHJYwtWn0VpdxA+QlzH/z/jw9XZxijgfU8RiaWlofEj5xOZyHbt0AAAFOn3XxrX42j5tLc32rVvFv0vo1tGhHh0pZnOir1wLDvDHbcLnzZgyY9GK8opKJUWFkUMG9OnpXD0zQ6XKY5cAMLyDyv5r7P/Fl1fPcPgWe/kgTRc7RQDYNk7HaWP67YSKXi2V8CLbx+lQyQQAGGSv/CqdDwAFJeLwByUXlxmZa1MAYP0I7UE7skp5EhW6vPzEI+QEeVH+n/Hh09fVaWlnc+fBE/fB/e88fNKjaxc6jQ4ACnR6RWXlCh/f9KxsgUDAFwjcnJ3q125qWoZYLJ6xaAX+EcMwDMPy8gsszU011NQ01H58DY9AINAohIlOjEO3OJOcGXhiPlfEqZA4WFSdKSjRCHYGtA9MAa58MhFw2QMAQ5HIKZcAQFIOXyTBBm2vugeBAWAY5BSLbA2p9esO4l9FXpT/+/hmsWrfnj3OXbo6YlC/uw+feC+uukyQw8xb47dj9lTPnt260Gg034D9tVdbY3NAJBD2+fmQKV8c9fV1dQDg0LET0Vdiq2ceNWTg5HGjpLWN7aoafJN9L7FCRrs/fD+HtIsEAhAJEDnfgEL+EqCx5r//LSN+Fnn5n/hjPnyOnTvsDzl6+fpNKpXS0rYZnvg2MUmdwZC+XUMgECrQa3kBFoPBAICy8gplJUUAEInEeLqpsZEEw4rYnM7t2+EplTwejUoFAFmzfQIAgAqdOKYr48gdDkORBAA6qmSGIvFFaqWJpgoAVAokSbn8iU6y7vxZ61ElGOSXil0+v5CjnI9JfT4RCCnycvr3x3z4aDSac7cuR06c7uPyZT5vqK9fUFT09OWrktKyi7E3nr58JZaIZbdupK+roaYWe+uOSCR+8z7xzsPHeH5tLc3ePZx2B4U8invOzC84FRUza8kqsVgMABpqat/486mrVU3spYP2RCcGmfTFtG96T7WdV1gPP1SmFgi9TxdqqZJdWsi6TaCnRh7uoLIusvDm+/IsljD4FmfYriyR5Ms8YcVGP/+9gfX6ihD/FPIy5v9JH76+rk6xN2+7On1x2mtlZzPD02P3wdCy8gqHNq06O9hn5zJlt06hUFYsmL3/cFhYxJn2rVv1demRmpWFZ1swa+rxiDMBgSE8Pt/G2nLd0oV1t/HVViENc1C59rbqOt9UZzUAWHmqoIQn6WylcNxLX7YnLwD4uGvt+R97TWRRpQBrbULd66lXvYhQIKCSKTKKI5oI/6AzB/LhqwkJho2bPnfiuJHV3xqIaJrIy2wf8QfIzcs3MtDr7ezY2IEgGh95me0j/gBG+no7Nq5t7CgQcsE/ONtHIBC1gmb7CERTBCkfgWiKIOUjEE0RpHwEoimClI9ANEX+AuX/rBMej8/r7e6R9DGl7k0UsVjSJjbt3PMLwQIATJq7GK9q5ORZP8ww3mvBtdv3frGV341YgtkuTd1/jS1N6e2XeeLht6uhEX8pf8H9/D/ghIebfABA+Jnz2A9Xw/0MW1YvF4pEcS/jI6Mv/jCDx4ghrZrb/mIrf4bwB9ypPRi42w/iX+IvUP4fcMKTbfLxsxjq6wFARmaN05N+vXr+YhN/jJJKSeST0olODADAMLTm799BjpSflpntv/dAVg7TwtREV1tLIBBsXLVUdhFmfsHOA4cSP35SY6iOHzW8+uPoD5+98Nt9gM3lOrRuvXjOdGUlJTz9UuzNqMtXC4pZRgb6U8aO6mDfpt4B/6xx4K17D7d+Xic3d9qkwX3d8O1Hcc8Dj/zn0r3rles3MQxGDR0wZtgQfJfXMu9+ri5vE5OevXitrsbwmjKhk327Wvve291j46ql1+/ce/YynkohnwoJ5JaUjJsxr6dj10fPXrZv05LN4aZmZnqMHD56SC12g33aKB25xx3XTZVC+kr2mcWi1acL4jP5Gsqkub3V3TuqAEApT9JhTfrhaXpBN9iJuUJbA4rfaB0z7aoFQh9yBevPFr3P5Ruqk1cM1pSuI0Y0CvIyixMIBN6b/Nq0aH7q8IE5Uz3fJtZixQUAPB5/0WofQz29A9s2T/UYExT6X3WPvRfxb5fN89q8atmnjIw9wUfwxMfPXxz+7+SsSRNCd2/r2b3rxh27i9mc+gVcD+PATg72uHGgno7ON7sKCot4fN629avHjxx+7NS5uw+fSHdFnIvu2K5twOb17Vq19N8TxOPzau07AOw8cEhTXX3RzKlTPEZTyFW/7wP7uK1eMvfhs+fTPMctnTMz4mw0fky+cQdctMZHWs+Q9ioAcPFlGQBIz4IqBJjH/hxTLcq5hYZL+2tsiS6+9PLLk6B7r7HnuGkc89IDgI1RRXhiPlc0PjC3X1ulS0uNpvZgzD+an5wnqOOhRvwO5GXMfxz3UigSTZ8wjkwm2VpbOXftnJdfi3Vk7O27FAplwaypRCLRzNgoh5kXGXOxp2NXfO+siR648caMiR6+u/bx+Dw6jd7MwmL/ts24Q97IIQMiw32IDgAAIABJREFUzsckfvzYvWOHegRcD+NAJUUFJUUjAKBQvj3sNBpt9mRPAoFgaW6akZV95eZt526d8V393Xq69XAEgOmeYy9fv5mZldvMykJ23wFgUB83z9EjvmnFUE+Xx+cDgLmJsbKSYkVlpVAobNuyRdAO36+CoX6x7qKRCJOdGIdvcYY6qEgTo+JKqWSij7sWiUiw1qOmFwkP3+EMtFfG9y4boNnRkg4A03uqLQkvxBODb3Gc7BTxswZTLcrD5MqouNIVgzRlHzHE70NelJ/NZJoZG5HJVevYibWtQgeA1PTMFnbNpBPsVnY2EeejcQ8MAKBSqyaZtlaWQpEov7DY1MhQU0P9yfWbfrsP5BcUYBhWXlEp4NVz5GlY40AC4YtrWHNb6xdv3kp3KdCrrDgUFRSIRGJJWRnU3HepEUDdryAq0On4NY6aAhvVWTXoBvvmuwrppc+kXIG9OY30+TtysKAfusmR+n8ofTb5ZiiQKgUSgQijkglvMwXvsnmxn/1FxRjWs7lSHSNE/A7kRfkYhok/2+nUnbpcccLFgF+xv3H3wfHT59YsWWBnbUUmk8ZMm/PTgf5+vjEOrGlXQ11te/z8xcbtX93ItLW2DNi8XtqMIpUwoTvj0C029mW+DzXHCNXyVIuWACM6qno6fnmbgBJNXs40mybyonwTQ8OzF67w+XwajQYAAqGw1iJmJkbRV2IlGEYkEAAgITnZ2MCARCIJRUIAEIurfkc+pWWQSCR9HW0AePnmbcd2bVvZ2QCABMOEotpbqTHgBjUOrH4nMfFDipGBvuz8NfW9Hk3Lnu0TgAAA47szQu5wBcKqQ2qtRwl/wJVggI/6r9J5FjoUMpFQ7VLAt1jrURJz+dZ6VTVXCDAF5A7YqMjL726XDvYKCvRt+w9+SPl05+HjG3cfSHfV5ITX17VHJY+3PyQsh5n38GlcZPTlkdWuVIefPc/mcIuKWWGnIp27dsJ/UIwM9F69e5+RnVNUzNobfKS0rFwkEUNtln4/RIZxIDO/ICuXWcRiiSVV1VbyeAAgrVkoFLHY3KxcZl5B1bUMPp8fFnGGmV9w7c69a7fv9u/lIvtwye77T4HP9qv/4U7BOPiwraZIHNVJRWrnN6Kjajkf2xRVlFEkvP62IvQ2Z0qPWt4IONVFLZkpWHumKCVf+CqdP2ZfzvnnpdK9Eeeix82cV7/4EfVDXsZ8CoXit3bl1j0HFq/dZGNp3rZFc+mEsiYnPAU6ffeWDbsCg2csXqnGUJ05cVwv5y/WepZmZvNXreeUlHRo03re9Cl4ovugAcy8woXe60kkklsPRyN9vZzcPACoydJPVUW5poBlGAeu2rQ1Ny+/elXrli7s3rnDk7iX0rt6J89FnTwXZW5idGiXPwDQaDSBQDBn+RoAzHP0CKcuP3hrUHVk9/13MMWZEfGo6kkHJRohYp7hmsiCQTuyNZRJKwZrDmlf44HCMdemhM/R33yeNSwgW0OJNLKTytBqRfgCkfQGBOLPIEfOHEKhkPLZo37d1p16Otqzp3g2bkgAMG7GvLKKr957s2L+7Pq9fqcmHsU937on8EL4kQas8+9i8669FDJ5xfzZjR1IE0JefmgFAoHXUm/P0e62zSyfv34T9yp+p3z4Ru3avPabx3nV1b596SXiV5BgWH5B0dol8xs7kKaFvCifSqVO9xx3PPJ8Rla2oZ7uyvmzm9tYN3ZQAADfP3WDaFiIBMK+rRsbO4omhxzN9hEIxB9DXq7tIxCIPwlSPgLRFEHKRyCaIkj5CERTBCkfgWiKyMtdvX+JDmvTSyu/evL34lIj6SPr35PPFTlvysS3+7RW2uOp+3vjQyCQ8n8Tq4dodbf98qJ7I3VZx1lThXRxqREABF5nS37VBBCBqBNI+b8FXTWSuXZdX1NPJhLwGQFDkcQuF//OuBCIKuRF+a/evl/h43vt7An848Gj/2XmMH1XL8c/nrt45cL/rrM5JWYmRlPGjWrbqgWezi0t3R9y9EncS0VFhWED+oweOljG4nac1PTMPYeOpKSl6WprzZg0vnP7dgAwae5icxPjNwmJmurqVhZm9x8/c2jbet2yhQQCgS8QhIafevA0rqKisrmNtdcUT+PaltDKIOJRyfH7XCZXbK5NWdRX3akOXnRhd7kRj7iFpZJmetRF/dU7W1VNJdjl4o1RRbffVyrTCZ6OjOkuanVZM49A4PwFV/gePIkLP3N+9lTPgzt92zS3Xee/s6S0DAAkGLZ6yzYalRq4fcvyuV4Xrt64GHtDdlVFLNaSdRudu3UODvAfOWTAxu0BaZ8dcptZmofs3s7MLzA20A/bv/Ppy1ep6RkAcDQi8k1C4qaVSw5s26yirLRl1148v2z7uh9yK6F8x+XiVYM1ry4zGthOef7xgoKSWkb4a2/LA6+zvYdqxSwx6mBBn30kj1MhAQAJBtND8ugU4vlFhv5jdE48LDn5CDnhI34CeRnzZZDDZOpoa3ds15ZAIEz2GK2trSUUCgHg4ZM4Fpuz19eHSCQaGxqMHTHk6s07UkPbH3Lq/IWO9m2HD+wLAIb6ei/i3127fXfmRA8AMNDTU1djqKgom5oYaWloKCkosrklANDfzdV90ABNDXUAGDNs8Mwlq8rKy5WVlGQbWiwJL5Da8M51U5/eUw0AWhrRzi40ws8CpvZgHLrJjs/kubWUZUqVUSjUVyc72yoSCLCov7q+OlkgkgAQr78tLywVn56nRSISLHQoM13Vzj4r9eiGlhIh6spfoHw3F6dbDx5PW7i8o33bTvZtpdpOTvlUzGIPGDsJ/4hJJAoKdNlVfUhJ/fgp9d7jZ/hHiUTSxaG97CI6mhrhkecfPnvO5nIlEgwAeHy+spKSbPu65QM1pVf41JWqrHJ0VMmnn5QsOVGQwxJKMCjjSXiCWi7oDe2gcvFV2YDtWc52is52ilJtv83kF3BFbVamV3UEw5C5FeKnkBflyzhF1VBTC9rh+yr+3bNXr7ftO2igp7NlzQoalYoRCBZmJtUXddd6kk8gEPq4ugwb0Eeaokiv5cfiQOjx7Nzcjd7LDPR0c5h5UgMP2fZ1P7zCF/OibF8se7enbhsTGoVEcPTJkN00AGirkKIXGz1OrrybVLEiotBUixw8TY9OIQIBbAyo28dWN89BZ/mIn0BelM9gMACgrLxCWUkRAESiLyfAV2/e1lLX6GDfpn3bVpPGjhw9dc6rt+87t29nbmIcc/WamqqqGkMVADAM4wv4slsxNzb6lJ4uHat5PD6NVuNtdpwXb95OGjPSSF8PAAT8L0a9smf7P+RRcoWTraKDOR0AJBgIxLXfwTvztERXlexkp9jNRmFBX43uPhmPU3gudorN9KjhD0s0lEmayri/KPCEP+1fimjKyMsU0UhfV0NNLfbWHZFI/OZ94p2Hj6W7WGxOwKGQV2/fFxWz7j9+JhILDfV0AcCpaycdTY0N/ruSPqZkZOf47t6/NzhMdivuQwemZWQFBIVkZOckfPi4YPWG2Nt3awtM7+6jJywOJy0za19IGADgxt6y7et+iJk25UlKZUq+MJ8j2nCuiFshEUowABBJsLRCYVqhkFspLuNL8G2xBAOAwhLx2nNFTz5W5nNE196UicSYqSYFAPq1Ufp/e+cdV1P/B/DP3be991ApCpEkm8qKbJkpW4NHT7ZsERlltFAiJTKy/UK2eJRNpb33nnd17++Pk9vV497UQ27d7/vlj3O+53zXzeec7xnf91GTIawMKfqQTUstYq4JL9p5pZRb0Zek5HG2dgWtfbAAIcoIyzmfRCJtdHXxPRUSEnFpQF9ja0uL9JwcbNO8GVPZbI5PQFB5ZaWGqor7339paagDAIlIPLBrq1/wmQ079xGJ+EED+jstshdci5a6mrfHNt+gsy7r3GWkpSeMsRhnMVJwljUuyw/7n1ro4iYnKztpnFXC15S8/EIVJaV29HHJKNmcMta843kEPEwzk9JRImWVsACgrKZxglcOdzds+dVuHVlxnONoWTYHtl4qLalh6SiSDi9Q1lMmAQCJiDvrrL4nqnRRYCGRAJa9xDdPVeSWgJmLkdkOIYAuaObIyM5xdd/RIjEs4JgAnWYX41Z0TETU9bCAo+jiH8GPLhj5TBartKy8RaKKshJeZMLAJzDY3LTfr9WEIroYXTDyEQhEqwjLHT4EAtGRoMhHIEQRFPkIhCiCIh+BEEVQ5CMQogiKfARCFEGR39VgN9Tnbt2cMGRg4vDB+Xt2sxmMVrPQs7LSFy5IGNg/Zfrk+vfvmjdwOCXBp5IshicMHpi/dzeHxfqN7UZ0LCjyO5qlruujbv/v95Wfv9eDkZWlF3JOJ/BU/ds3RUe8Be/PZjAyli+haHfTO3deevTYTMdlzPx8bFP5xQulZ8+o79zdzS+w9uXLAi9PwUUhOhEo8rsU7Ib6qjt3VNasoxoaivUxVvnbrSLqCnAETQqsffaUU1+ntnU71dBIZdVqir5Bxc1r2Kbyy5FKixdLW1hJDBigtnFz5Y3rbHorsyERnQUhmtTxQ6new6cvQiOvyMnKpGVkW40cGv/+I4PBcP97Fabi+/A5IeR8ZHpWjqyM9CTr0bOnTBJQfml5+fwVf1mNGBr7+u2Afn0qKqvSs7PtZs2YM3USABQUFR/2O5GYkiYrI71g9owJVhYAILj2Hza4rr5husMyzy0bwq9cS8vI1tPRWrfKCZvk67p5Z2JKCgAEhJwLCDkHAId2b+vby5Cfg1Bw7T+EkZvLaWSJGfTgrrLr61llZURFRQFZyFraeAoFW5Xo35+elsbdROmu35RuOoBNozHz8ih6eq39JRGdAGGJfEyqp6Ol6X9wb3FJ2WH/k+Ji4ph+p76h4ei+XZeibkU/fhJ09GBY5NWo29Emxr3LKyu37ju0aK7tljV/pWVl7/Px1VBVbfVl9Unjx1qOGLrN85D3nh3lFRXe/qfmTJ1Eo9HdtuwaZGqyavni9MzsI4HBFBLZasRQAbULaDAAnL14ZdHcWZKS4gEh53yDzuzftgkADuxy53DYLuu2jB9jOdV6DACQyRTBreVXOz8vSGN5OQDgxMQ4jY2F3gero/8HAI3l5QIinyAnyywqBDYbMH8YgcAsLGzeVNC0DDgc4PHMokIU+V0DYYl8AVI9KUlJGSkpDU01RQV5GSkpLQ315NQMABCjUr13bzPorgsASooKA/oaf/ic0Grka6iq0Oh0ANDV1pKUEK9vaGAymdGPnpBIJFenpXg8XkdLM6+gMPL6TSzy+dUu2AK43GF+316GADBn+uR9Pv5YIqbuwOHxZCKRSmnFBYTBr3bBXhB2bU3O5g0cBlMn6EzKVBuOwNG+1IhR+Z57SkKCFRcuro+PK4+8KN7fFNskM258aegZyeHDiDJyeR47gc3GS4rKfMcuj7BEfjukemJUan1Dw8Zdnpk5uQwGg85gjB3VymR7fqRnZvc26oH/Js00NuoZcfUaZuBoX4PFvg2epSSlaHQak8kkkX5Wv/8zCLYAptvPlxg0WG2TO7u29elYRDk5rf0HcjdvLPI9RlbXEOvbj6TYZB9QdnKhp6UlT7TGkUhyk6YAAHcTorMjLJHfDqleXkHh1n2HXJY6WA0bQqFQPH18/0sD2jqD9ycb/DPFtmPyML/RPkFeHgDk5y1QmDcfABprawGAqKAguDRpCyvDx8/ZlRVEJeXMlY7kb8cUvJh4N98AVmkpnkqlpadW3r1NbJeSBCGECEvkt0Oq9ykxSU5GBrsVBwAMBlOsNZ0mP3S0Na/diWZzONgc/oTkZC11dQKB8GsbjEEmkxjfP2MX4CDkB7/RPllTE0cgiPXuhSXSUpLxYuItIp/T2Ij7V9fwFApeRZWWlFQXF6e6fhPvJqKiInA4pedCpUZZ4JDnp6sgLE/12iHV01BTKy4t/eftu+qa2pvRD/55+66R3c5PU1mPtmig0XyDQvIKCl/8Exd57fasqYIeE7SvwRj6OjoPn8WmpmekpGUUFheDQAchP/hZAPFi4tLjrQsPHaSlpdKSEot9j8tNmwY8gxFaSnLCoAElZ0/zlsZpbKz/+KH0XGj6Ynv5WXOoet25m5iFhTXPnmaudKx7Gavi6sabK+LKtfmOf/1MlxFCiLAcwtsh1TM26rnCwe5IYHBtXb1ZP+PBZqa5+QXtq12MSj2yd6e3/8kVazbJykg7Lpw/ZtTwX95gjIXzbD29j6923yEpIbFyyUJVZWUBDsJ2oLFtZ/7e3el28wCPkx0/QcVt3XebCQQcmYwnfHfTgV1bk7l8CUlbW2XVaoV5drybSs+GVN29LWE+SC/sAlnjuzsLdAYLqf46L13QyYM8fB3DHu9jJCKR904HohPRBY/ZmupqJw7vb5EoKSnoI1aItsLmcIqKS7etXf2nG4JoJ13wnI9AIFpFWO7wIRCIjgRFPgIhiqDIRyBEERT5CIQogiIfgRBFUOQjEKJIF3ye33k5cDyASCCucVn++6pgczihF648ev6iqrpGX0/n0K6tv68u4cHOL5+Ah1BndWx1a2RJDY191EHlz7bqz4IiX4gYM3I4Dt9yFFZRWTVnmUvgoX16Otr/vYrb92Ju/C96jfMKDTWVBpoIqbVep9HeZ9NMtNs5p6vrgSJfiDDtZ/y7q/jyNXmoudnwwQN/d0XCBh4Hp2Kq/BZTAQR7CUUFIYr83+3hw4h/98H/dGhRSamWprqr4xIjAwMA8DrmzwHY9O0V9HcfP+844B0Z7I+Zc57G/hMUdqGsosJQX+9v5+Va6mrYbh8TkjZ77D/mufPoyZC0jEyTvr33um9wXLNxuf18s/79gkIjKFSK/ewZL17HX7h64/j+3QBwLvJKYnLqmFEjzl64VFJWtnCO7ZzpUzBBIFbmiCHm29a6YstMJpNr/nBatxlb4Or6fvhzCej49n2HXr1pMmrfe/QUAFY42NlOmcivI9ie/PqekZ1z4HhAbn6hprqqgpwciUjcscGNzWZbz7bH5IIAEBsX7+njd+t80xTG9MzsoydOp2ZkqCgprli0YPCA/tg+p0Ijlsyfc/r8xYrKqkEDTNycl3GFRdGPnpyLvFpdXdvTQM9p4YLuut0AwHHt5r69DVcuWYjtk5aR5bze3f/AHn09XQHdH2ssEfO5PrWIqa/y3Wyl7DLWlovFH7Lp8pKEVePkbM2lsPRpPrmzzKXjMxqeJtYrSBLcpylaGIljmyrqGndHlT760iBJxTmMkFluKdsZv88uLJHfMR6+r6lpO7y8l9nPMzPp+/BZ7Lrte4OPHlBVVh5vOWr7fm86nU6hUADg8fOXo4YMxv7/vYx/czwoxM15mZaGxo279zbu9Dzr580V7DCZTI/Dx8ZbjZo2cTyFQgYAg+56Gdm5Zv37fUlOJpPJAJCTl2fA858yKSW1rLxi1pRJVCpFS0MNAORkZE76eAFA2KWrvOYsEol0Izy4orJ64Uq3I5479bpp/czPxY+ta1ezOWyvowHSkpLOS+0BgMgzY+/fHRHQdwaDsWn3PothQ3z2bC8pLd+8x8tAV0fw37e0vHzt9t32s203rHb6+CVh90EfvwOeutqaAFBcUvo49uUmV5fq6tqDfoFRt6PnzZgKAE9evPILPuvmtFxfT+fG/+5t9TwQctybSqVMmzjuVOj5ZQvmYUqCe4+fGhkY6Ovp1tU32C52bFHvjbBg7I+lo0QeawxBjyr3z1Xi/sT1DI6db94oI/HtMxS/5jO2XS6lEnGTTJtmdp2IqVgzUd7JSu58bPWG88VPtmmLkfFsDiwPKjRQJV910yioYLlHlkhQ8HbDpAV3XwgRlsjvGA/fxWs3LYYPmW5jDQAL59p+SkiMuh3tvNi+X59eMtJSsXFvLYcPYbJYz/6J27VpLZYlJDxy8bzZQweaAYDzYvtnL1+/+fBpsJkpt0w3p2X9+vTirurr6qSmZzKZzKqqagaLxWazs3PzjXsZ8rQCd2j3NimeGUQEAgFTa0lLSlXVVPM2mEqhUil0AKCSKbzqPsEWwB+CHYbwBDyBjwWwRUcE9P1l3Fsmk7VswVwSiaSloT7EzLS0rFxA1QBw4eoNc1OTGZOsAUBDTfXNh8/3Hj1xXGgHAIDDbVrtgsXn6JHDEpJSsCyRN27ZTraxHD4EAJwXO2Rk5WTn5vXQ17MaMSzoXMST2FfjLEayWI0Pn75wXLQAAMTEqC1sJQBA/DaPGAew3FJ2zvF81/Fy3K1RcTVkIn6XrSIBjzNQJWeWMk89ruRG/uzB0tPMpABg/WSFi6+q04qYfbQo9z/VldQ0XvxLkYDH6SmTHEfLXn5dgyK//XSMhy89M3vO9MncVeNeRp+TvgIADocbZzni0bMXlsOHvHn/UUpSoo9hDwCg0+mZObnHToUcDzqDZWlsbMwvLOYt8/uoBgM93ZinL76mZWiqq9GZzIysnJy8ghk21twddLQ0pP7zxMF2/Fyt0qIjAvqeW1Cgq63ZJrPg19T0lLT0py9fY6tsNnuI2QBsmUDAc4uSkpSo/jaFLDsnb+EcW2wZj8NxH0NQyOSJoy3v3Hs4zmLkP2/fcYAzcog5to8ANyEOB700Keb61OAnlfDtpJ+UzzDVpRDwTYN1Mz3qiZhKFptDxOMAQJzcdLdVkoIj4HGV9Y0A8CmbXlzF6rcps6kjHI4EpVM+GheWyO84D9/3xXJH1+MtR12IulldU/voeex4q5Hc2nE4nOuKxUY9e3CzyMnKCCi+u652Tl7+58TEPkY96QzG56SvBUVF3bS1BGRpB+34udoBv75zOJxGNvuHGQB+fAMNh8ONH2053WY8N0X8R+o03PdSQhwfR+Fk67GXbt7JyMq+/+jZBCsLbDgjeLSPNc3RSm5FUOEgfSqVxP37/rCGfzeseamnOvngPGXerv1UEUKGsER+x3j4dLW1viR85WZJ+Jqs++3iWVlJsY9hj3uPnr6Kf7fUbi6WSKFQVJWVcvILJoyxwlIaaDTBtVApVEUFudjXb1cstGMxmRFRN5SVlP6Luwa76qYzv/s12m0BbEu9fPuuraFx6fptGp2GXTWwvx0F8DictJRkTV0dttrIaj466GpppmVmcs/JNBqdezeBH1qaGkmpqQNN+2Grwecixo22wG4xKispDjUbcCHqRtz7D46LmiRCrY72AcC8O7WnGvlZUv1YYwkAMFAlhT2vYnMAO+u/y6TpKZOIeEGR3EOVHPaiWl6SoCBJAAAOB2jMHx0EhR5hGah0jIdv9vRJj57H3rr3oKCo+ELU9c9JydMnNo/Dx1tZnL8SZdhDX1mp+bsUdrbTr92JvnrrfwVFxc9fxdk7u+ZyPz7BB3093Yys7B56OoY9uickJRsIvOcMAI2NjTn5BTn5BTV1tfUNDdgyN5zExcRUlZWv37mXnZv/KfFrA40G/8EC2Cb49X3IQFNxcbFDfiezcvPi3398EvuKm6WvkVHM0+cMBiOvoDDy+i1uuu20SRlZOT4BQVm5eQlfU1y37Ix+9ERw7bOn2ly+cefFP3FFJSWnwyPvPXkmJ9M82ppmM/7R85f9jXtjAkL4Ntpv8Y9n7NaUcbmVDPvboGSmuXQdneMRVZpVyrz/qT74UeUSC1nBrZrQT0JNhrAypOhDNi21iLkmvGjnlVLu1i9JyeNs7QqKigWUICQIyzm/Yzx8RgYGOzesCTxzLuD0OS1N9YO7tqirNr/INXyQmW9QyHiL724WjLMcCQDhl6OCwyI01FRXL1+CfSpLAAa6uoVFxdgQVEdby0Cvm+D9K6qqlq5utuVhy5dDTnD1YetWOR72O7FizUZVZaU9WzZoqqm22wLYJvj1nUQi7du2yeuYv8s6d31dXewmK4bT4gUHjgfMXOSooa46efyYgJAwLF1LXc3bY5tv0FmXde4y0tITxliMs2jlpozFsCE0Oj3gTFh1da1RT/39290xNzFGH6OeYlTqZOsxbe3U6N4S3ZWbbitIUHARf2lsjSyefChXXpKwcYrC1AGtKNtIRNxZZ/U9UaWLAguJBLDsJb55avN5gsFkAkCn0BN2QSePKHv4/kjf/YLPlpaV79jg1vquv44HT56fvXD5rL8PXpgus29Fx0REXQ8LOCr8F/+d4ODUVkTZwycKfa+tq09KST117rz9rJlCFfYAkJKR6bLEQfjDHrpk5JOIRO61n6ghCn1/GvvqZOj5iWMtbcZZ/em2tMTNaemfbsLP0gVH+wgEolWE5d4+AoHoSFDkIxCiCIp8BEIUQZGPQIgiKPIRCFFEWJ7q8bNTdEYWrVqTX1gEADJSUpdCAv97gVXVNQFnzn349IXJYk0YY7XUbs5/L/N38CqlYdGJglBndfPuVAAoqmSN2pN9c52mgWorr+gjOh5hiXx+dorOyN4tG5gsVtzbD5HXbv6SAo+fCskvKt7kulJSQgJP+E/DtKWu6yeNGz2dZ9bwL+fUo0rz7q284Iz44whL5AuwU3Q6NNRUASArO/dXFZjwNWXR/FkttBlCS2xyQ2Ie3UiD0rmP310dYYl8wVy8fuvqzTt19Q2mxr3/dl4mL9s0oSq3oPBESNjnpCQqlTp80MBl9k2GJhqNfuJs+Mu4Nwwmw9jIyHnJAlXlVt5s41cU8LHBQbssgD900QlgyoIlNBodAA75njjkewIA/Lz2YDNk+NXOYjUGh1+49+gJDocb2L+f0yJ7GWkpAHDdvDMxJQUAAkLOBYScAwCuMK+gqPiw34nElDRZGekFs2dwZzEDwLodewb07dNAY9x5EEOnMzy3bTI26im4zeP6ip98VOmzoKXT+llS/d7rZXkVLD1l0i5bRUyDG/Ol7sDN8jUT5b3vlJfVsEb1ktgzS1HsmxLj7oe6w7fLi6tZfbUoHrOVdJXa4AJBCKYTRP6l67cvX7+1dqWjiqLC2QtXNuzce9LbC4/HA4DHQR9dnW7H9ntUVFQe8jtJpVKxa+Dg8AtJqam7Nq0hk8mnQs/v8/E/um+n4Fr4FcXPBtfnRv6cAAAdr0lEQVQOC6AAFx0/IoP9AWCBk+sKB7uRQ80BgEymAICA2v1Ph374krBjwxpJcXH/kNDDfid2b14HAAd2uXM4bJd1W8aPsZxqPYZbFI1Gd9uya5Cpyarli9Mzs48EBlNIZKsRQ7ltuHzzTu+ePVYstGtksbCpjS/j3+w+eJS3nYYG3X32NM0UcrSUsz2al13GIvFcl3zMobmcKVpvIz+8p/itd7UO/gV3NmhqypMAIL+Sded97aH5yhV1jZsvloQ+q3IcLQcADxPqPKJKPWYp6imTw55XLQosuL9Zi0zsBK/Edwo6QeRfvHZjucN87PS40dV57rKVL+PfDjM3Y3M4+YXF9rNttdTVtNTVNru5lFdUYVnyCgr7GPbsqd8dANyclr16847D4QiYRyGgKH42uHZYAAW56PiAqS9wgKOQybzyPH6119bV3Y15tH/bJuxk7rpiyUHfEyxWI5FIwIYwODye/L2HL/rRExKJ5Oq0FI/H62hp5hUURl6/yRv5utpauzat5f31TPr0buHA4I6PAEBfjTTSUDzoUaXz6Oa57kEPq2xMJB1GyADA6vFy8ekNoc+q3acqAAAO4OB8ZSykJ5tKvstsUoz43Kn421pudG8JAHCfqnDvY92L5HrLXl1q9tEfRNgjv7S8vLqm1tioSREnRqXq63bLyMoeZm6Gx+GW2M056BsY8/T5gH59hw0ywxTaADB3xlSPg0fSM7PMTPoOMTebPL6VWdwCiuJng2uHBVCAi66t8Ks9N7+gsbHR0KA7tpuWhvqxfbsEF5Wemd3bqAf+2xc+jI16Rly91tjYSCAQsJQ+RkYtDppiVKog4x3AitEyDgEFMwY2Tw1Oyqcvt2o+EJjpib3JaMCWiXjgnsllxPGVdWwAoDHYKYWMXVfLdl8twzax2JzsUpbgviB+HmGPfAwcH3nedBvrEYPNY+PexMa/ORl6fsNfTtg3JPr2MgwNOPIq/l3cu/cRm7dPHj9muf18wVXwKwr42ODaYQH8SRfdz9BK7W2cJdrWAbTg0T4OhzPpRjXpRjnztOr7RrX4I/6oJbjvlnfOVDDp1vwTKUoR2thSBF+EPfIV5OSkJCU+JSRhk09pdFpaZvaMSRMAoKik5Na9hw5zZk6xHjvFeuzZC5cjoq4PHzyQw+Gcibg0xmKE5fAhlsOHjLMYuXH3Pjvb6eJiYvxq4VcU8LfBtccC2HYXHT/41a6prkYgEL6mpmOj/bLyigvXbjgtXMA9gZPJJAaDwVuUjrbmtTvRbA4Hm+uekJyspa7O3f+HCB7tY8G73FLWMbhZW9ZDjfI2ncb9jsXbTFoPNUF9p5LxWvLEjBLmrEFNQus6OkeCgi7yfxnC8g4fPxcdDoebPX1KcPiFN+8/5eTlH/I7KS8rg+nuJcTF7z54eCr0fGFxcUZW9qeERC0NdQDA4XCJKanHTp5Oz8wuLC6OjXujIC8nOCz5FQX8bXACLIAFRcU5+QWl5eWN7KZOYfK8drjo+MGvdkkJCWsri+MnTyempOTk5fsEBuXlF/KGsb6OzsNnsanpGSlpGYXFxQBgPdqigUbzDQrJKyh88U9c5LXbs6a28pACG+3z/uOVAmDn7RGG4gY8sb3MSubm+9oLL6uzy1gnH1a+zaA5jGjFeOc8Ru7cs+qzT6uyy1j3PtWN3puVWcLkbo24cm2+418//4shWiAs8/N53+HjgrnoOBxO5I3bUTfv1tbXm/Tp5ea0TEG+6WMJaRmZJ0LPJ6emk4jEgab9nBc7YCr7yqrqk6Hhbz58aqDRDA30nRYuaPVzlPyKAoD/PXwcdikKs8E5LbLn3o2/eut/l27cwiyAgMNVVFYe2bsTeN7h47J93d/YCOJrappv0Nn0zCzMRWdnOx3/r09o/ptZi51WLVs0athg3kR+tbNYjcHhEdEPn+JwMMRsgOOiBbx6/9Lyck/v40mpaZISEiuXLMTKzC8s8vY/2fRUz3YaV7YLAOt27OljaLhonm2rjYRv7/AlHdLDVu+8r10TVsx9h+9pYv2+G2W52FO9mYrYMD7mS9368OK3nk0mv8CYisdfGi6sbjrsRsXV+N+vLKxm6SiSXMbKTejX3JEzEZcfPX9x1s/nZxqG+DfCEvkdg6eP76s3b3lTbMaOFnx3vQO4Gf3g1LnzvCndNDWx7/Ah+LHH+xiJSOT94gCiTYhW5JdXVtLp313liouLyUhJ/an2YNTVN1TX1PCmEAkEJUWFP9Ue4YfN4bhu3rFt7WpePzqiTYhW5CMQCAxhucOHQCA6EhT5CIQogiIfgRBFUOQjEKIIinwEQhRBkY9AiCJdP/Kfv4qbsXB5i8QFzq73Hj39I+0RNkrLy8fZ2mH/PA4fbT3DT3D34eOFKzv0A5t/nFcpDYbr0l+n0bDVokqW4br0lEKG4Fx/kK4f+T/EbuZU416G/72cYydDdh3o3C+QYgbEkz5eI4cOalNGAX3va2Q4d+bUX9G6NvPkxat/H+g7jFOPKv9U1W1F2Ofq/SZ4X00XcX6HAVFDTRWTEYoanchBKESRn5Gd63XMLyevQK+btoqSIoPBwDRSwN8Gx89FV1ffcNj3RNz7D+pqqv2Nm8WVD5++2H/MH1tetWzRFOux3E1VNTW+QWdexb0VFxebbjN+zrQp2Hxy5/XuE0ZbfkpMev3mvZysjPMS+0Gm/QEgOPzixagbWN5xtnYAYD97hv3smYL7eCs6Jur23eKyck11tSXzZnMn/1ZUVvkEBr37+FlGRnqcxcgFs5pn8vzQAvju05eNuzzvXQ7H9gk8cy47r8BzywafgKD8oqLCohIajTZq2OCYp8+VFRU8t21WkJM9E3H5c1IS1yzivN7dctiQ2dMmC2gtncEIDrvw/J+4+vqGXj0NnJc4aKmrCe67AON4/LsP/qdDi0pKtTTVXR2XYO6T2Lj4U6ERS+bPOX3+YkVl1aABJm7Oy3iVQT/kh9LE+Pcf3fd48baqb28jbn9/aECMjYv3P33OcvjQO/djOByYPc1m7vTmocqVm3du/O9+RWW1jrbmkvmzTYx7C24VdCoHobCM9hkMhrvHvn69e1045bdyqcOnxKQWO1y+eSczO3vFQjuXJfaYDQ5z0Y0YYh589IDLUofwyKgXr+OxnQ/7nsjOz9u9ed3KpQtfxb/jFjLIzBQb2bYQcrI5nC17D1DIZP+Dezescr5x98HN6AfcrRFXrpn3N/HZs6O/cR+vowE0Og0AHObMvBEePMHKYvCA/jfCg2+EB8+bMU1wH1/Gvzl17rzTIvvgIweshg/dfehIWUUlALDZ7I27PAkEwlHPXWuclv3v4eOrt/6HZcEsgEvt5vod3KOjrbnV8wAm5BQAmUw65eOloa6aX1QccdIPTyA+fv5ScBZ+nImI/JiQ6LFprd+BPVKSEnu9j2HpAvq+d8uGkz5e//agfE1N2+HlPdl6bODhfUPMBqzbvhebIwwAxSWlj2NfbnJ12eL217tPX6JuR7faMI+DPhKS4sf2e2x2XfnPm/dhl6IAwLRvnxvhwetWOkqIi2Gt8tyyAdsfMyCOGjb4pI/XrKk2uw/6ZHwzIxeXlNLotAM7tiyYNePshStPXrzC0p+/igu7dNVlqUPgYc9+vQy3ex2urqkFgJfxbybMceD957a12XrkaCl3/2N9dhmL1zuCOQjnD5W+vkZzdG8JB/+C3PKm6cZcB6H3ApVXKQ2hz5pcJpiDcPNU+etrNXuqkxcFFjBYv3gYISzn/Jdxb5ks1nL7+UQiwdBAf9TQwYVFxbw7/NsGx89FV15Z+SIu3ttje2/DHgCwaN6sYydPY1kkxMUkxDUBgET6ruMvXsWVV1Qe89yFx+O1NNTnzZx6N+Yxd0QwcazVWIsRALDcYd7t+zHZOfk99PVIRCKJSCQQiQQCodVzFEYPPT3fA3uw0+asqTYRV68npqQMNx/4+t2HwuLSY/t2U6kUAFhmN/dDQtOBj58FUEAtKopKVCpFTUVZRlqKSqWoqypXVrdzDD9x7GjbyTbYnOi506c4rt1cW1cnKSEhoO/8jOMXr920GD4E8/wvnGv7KSEx6na082J7AAAcbtNqFxKJBACjRw5LSEoR3Cp+0kQ8Hk+lUClkMg6Ha9EqAQZECoXistgBh8N11+2WlZN7J+YRNnM5r6BAWUnJvL8JDodbbDdHSUmRyWRCF3IQCkvk5xYU6GhpEolNDgk8vqV95Yc2uB+66PIKigAA028CAJHQeh+TU9PKyits5i3CVjlstpgYr+6ySeYjLiaGx+Ora9s5x0lBXu7V/Zh9R/yKios5HE5dfQODxgCA7JzcbloaWNgDgNXIYVYjh2HL/CyAHYOygnxY5NUXr+MrqqrYbA4A0Oh0SYn2/P9Lz8yeM735ysK4l9HnpK/YMoGAx8IeAKQkJapbm0ImQJrIDwEGRByuWRPWy9DgzcdP2PJYy5EPn79c9vcGc1OTQaYm3NNAl3EQCkvkczicRja7TVn4uegwS1+bVHQcHE5PR5t3sjc/Ua8AgW+rPHjyPPTila1rXY0M9IlEwtxlK38m1w8tgO1oBA7Hx33HH7/g0Nz8/N3u69VVVfIKCpeuXtf2alu0oJkffknph539NwKkiXxq/ikDIu8fV15WNuCQ57sPn1+/e3/geKC6qvLerRspZHKXcRAKS+Rra2hcvnGHTqdTKBQAYDCZrWbh76JTBYDk9HTsVMBktX6w1NXWun73nqy0tKyMNABwOBw6o5XLaQwymUhn/Owz27cfP5n3N8HuTbI5HCarqY/amhpZuVE0Gh077X9MSEpJy5g5eQLwtwDKyMgAQG1dvaSEOACwWI2t1i4rI11bX89dbfyJLG8+flo0d5ammioAMOgtu9mmvutqa31J+Mr9YyV8TdbtpvWTeVsgQJoIACQykcFktZCsCzAg8gZh4tdUTXU1bPluzCNFOfmBpv0GmBgvmjdrztKV7z59GTygf5dxEArLHb4hA03FxKgHfAO/pqY9fvHywZPnrWbh56KTl5UdNsjsSEDQh88JHxOSzkREcrNwDX9MJqu8oionvwC7zzRy6CBlBfmdXt5JKalZuXmeR3yPnQz5mWZ319H5nJgc//5jZk5uanqG4J011VXfff6SlZtXWlZ+7OTpmto6FrsRAMxNTVSVlA75ncjOzf+clOztf5L17aDAzwKoqaYiLysb/fAxi9X48Uvi4xet38MzNjLMyslLSkllMBi3omOycvOwdH4GRADQVFN9EvuqvLIyIzvneFAItrPgvvNzEM6ePunR89hb9x4UFBVfiLr+OSl5+sR2fttPgDQRAPS6abOYzKu3/peTl//x2+0SAQZEOp0eEnGpoKj43uOn9x49mTjGEksvr6j0ORH07tOX0rLyZy9fsxqZGqoq0IUchMJyzieRSPu2bdp/1G/NNo+e3XVNevdqdbxubNRzhYPdkcBgzEU32Mw0N78A27RupeOh4ye2eh5UV1UeZznyys07WPqruLfcp3rnr0SdvxKlq615wtuLRCQe2LXVL/jMhp37iET8oAH9nRbZ/0yzR48c9v7zl90HjwKOYzN2tL6eroCdbSfbFBSW/O2+g0AgjLUYoammmpdfCAB4PN5rh7tPwKmVG7bIyEjbjLHkPmyzGDaERqcHnAnDLID7t7tjJ3kSibTR1cX3VEhIxKUBfY2tLS3Sc3IEN1VPR3vZgnk7vXzoDLrNuDHcZ1QVVVW8w3hsGTMgrnFZftj/1EIXNzlZ2UnjrBK+puTlF6ooKQno+2aP/VwHIVYU5iA0MjDYuWFN4JlzAafPaWmqH9y1BXtA0w4kJSS8tm8+EXreaa07V5rI3aqqrOy02D7s0tXT4RcMuutibkItdTVvj22+QWdd1rljBsRxFk0fR6BQKAwGY+WGrQAchzkzRw5pep1p3oypbDbHJyCovLJSQ1XF/e+/eI8vreJoJbsmrOkWtYk21W+hyr4bZXuvl+kpk0Kd1bQVWom76QOlAMD/fuWhO+U6iqQdM5V0eJ7q0RksEvG/Rq4QOXmYTCb3Ts/2/YdVlZVcljgIziKEZGTnuLrvaJEYFnBMWkryh/sj+DF/xV+19XW8KRtXuwj+ilFbiY2L33/U/0bY6V9YZgfwSxyEwnLOZzAYzuvcHebYGvboHv/+Y9y7D4d3b/vTjWoPmupqJw7vb5EoKYm+CdVmvPdsa3EnTE5W+g+1RYhgczhFxaXb1q7+j+UIS+STyeTlDvNDI69m5eRqqKpsWu3Sq2crj2qEExKRyHvhh2g3rX7+WDTB43C/xMssRKN9BALRYQjLvX0EAtGRoMhHIEQRFPkIhCiCIh+BEEVQ5CMQogiK/GaKakr6Hp3YvrweD4+vvN7yBZ4Oqx2BaCso8pvhAIdKpIhm7QhRA0V+MxwOSJDFRbN2hKghLO/wCfCx8bPBLVq1Rldb62NCooKcnL6ezrOXr81M+m5f/zcOh2tsbAy7FHUz+j6DyRwx2Hzl0oXiYmKttkGSKuFoPrdFIo1FP/wsKDrleR29zkS911arVbpyTZM9U8oy19/Zn1meN0CztxixeSp1XnWh56OA1zkfyASSVfchmy1dxEnUotrSkSfmTjayepDycpiOaVldxdfSdJch9ssHzhFQOwLxmxCicz4/Hxs/GxwA9OiuG3TkYEFRsZa6Wojv4X/evkvPzAKAoLCI+PcfPdzX+XhsLyouOex/Etv/xNnwFhK1kPPNc3ilyBJz+7U0Uvo8P/065+OJaR5X7ANkqVJ/3/TA0uksxpJLGzVlVEPnHJzRe/zTzNfcLCuv7xQjUa7a+wdO3/OhMOnI8+YJIfP6TTkyZcuD1BfrR63YZ70h8FW44NoRiN+EsJzzAfj62PjZ4ABAXVVVTlZGSkqym7amory8hJh4RVV1WUXltTv3Tvp4YUODv1YsWeG2sa6+QUJcbNZUm/FWo3jrlJGSEtyouf0mLzGbrSKpAAArzOdNCV1RTa+VpkjGpMU2MGmHJmyikqh9VQ3/yflQVl+BZdk7bo2OvJYESUxLBmz7TLj8+S63tG5yGvVMGgD0UNKVpkrWMuoZjUwy4RdrVRGIVhGiyOfnY2urDS49I6uxsXGF20ZslcPhcDicwqLi7rrd5GVl5WVbkSK0QE1S0fflufupL8rqKtgcNgA0MGnSFMnMipweSrpUUtMgn0RoliVJUyV33Pd5k/elmlbDYjdiRw0EQqgQosjnhdfH1lYbHA4HeBzu+L5dRFLzuRSbP3fibPi1O99JnWdPnbR4/mwBpXk89M2oyD0xfY+2rHpWZb716UVYOofzY2kcBzhLL28a2m3AlQX+8mIyFz/eCo6L/PduCMSfRUgjnxfBNrh/001Lk83hlFZUYl9TAIAGGg2TpbVjtP88663bsMU6cpoAQGc2y/n05LVD3lymsejYozjGN01VblVBVmX+2VmH5MVkAIDGFN4vqyFEGSG6w8cPwTa4f6OkqDDOYuSRgKDYuHjM+ua0djOWRV5WtoVETU5WRnDtunIad5Ifl9SVfy3N2BVzFABYbBYAjNYfKk4S23jX61Ph19tJj64n3GuqXVxegiR2+fP/qmg1LzLjT8VdYLJbd10KZsIch7sPH//HQhAIXjpB5K9xWc5gMhe6uO3Y7z104AAAwPR1AnB1Wjp21HAf/6AVbhvj33/avu5vAqGd0uK949fSWYwxQfYuUdut9IcCQGZFHgCQCaTTtl5Zlfn2F9dd/nx3qtEYbH8qieo3bff/kp8MD5zt8yLExtCypLaMxqS1r3YAYLEa2Ww2mYjuAiJ+JcjMIexk5+Yvd9tw+tgh0fxGJeI30QnO+SJOSnrGjEnWKOwRvxZ0zkcgRBF0zkcgRBEU+QiEKIIiH4EQRVDkIxCiCIp8BEIUQZGPQIgiQhf5O/Z7R167+e/0tIxMm3mLeFP+eftu0vzFHdQsBKJrIXSRLyEhJi7+A3+OuLg49gFpBALx3xGWyE/LyFq1advDZ7FkMplAJN6KjnHbuovD4QDA/qN+fsFnK6qqJMXF0zIyDxwPuPvg4Z9uLwLRuRGWyJeRlho2cMCd+zHRD58EBJ97+uof8/79GEwmAAwfYk6j0T0OHc0rLNp18CiJQNRQV2+R/cPnhMl2S56/igMAxzUb4999AICg0IhzkVcB4MXr+L82bcf2vBUds3T1usl2S5zXb4l7+4FbwseEJJt5i9IyMldv3mEzd+EWzwNYOofDOR0eOc1+2azFTsHhF61n26ekZWCbcgsKt3kemu6wbN6KVX7BZ+kMNCEX0WkQlvn5igry82ZOM+ph4BMYhMPhdqx3k/g25h9uPnDoQLNNu/eRSaQZkyZMnTCuRd6UtIzt+w+vcJg/fPBAADDorpeRnWvWv9+X5GQymQwAOXl5Bnq6APAy/s2pc+e3rlndTUvjSew/uw8dOePnoyDXZOlhMpkeh4+Ntxo1beJ4CoWMJV6/e+/eoyee2zZqa2icvXCJzWZz6/U46KOr0+3Yfo+KispDfiepVOpSuzm/+XdCIH4NwnLOB4Dyysp9R/1cVyzp28vIJ+AU76bwS1FMJnPftk3B4RdS0zN4N+UWFLrv8ZoxacLk8U3zZPV1dbJycplMZlVVdV5BIZvNzs7NN+iuAwA99PR8D+wZaNpPWUlx1lQbEomUmJLCW5qb07J5M6ZajRg6zNwMS7kZ/WDW1Em9ehhISogvnGvL3ZPN4eQXFg83H6ilrta3t9FmNxdDg+6/4VdBIH4LwnLOB4DktIzePXqY9jPupqW5fseeisoqTJvBZrM/fElwXGinrqoycYxl3LsP+nq6WJbGxsYte7wa2ew505qttQZ6ujFPX3xNy9BUV6MzmRlZOTl5BTNsrAFAQV7u1f2YfUf8ioqLORxOXX0Dg/bdEN24lyHvKpvDKSgq0tfthq3icM0HSjwOt8RuzkHfwJinzwf06ztskJmRgcHv+WEQiF+PEEX+4AH9B5maAICCvNypIwe4Lg08Hn9w5xYcDgcAy+3n8zo2Ghsb9bppp2ZkHQ8KWb/KCUvsrqudk5f/OTGxj1FPOoPxOelrQVFRN20tAHjw5HnoxStb17oaGegTiYS5y1a20iYOBwB4R/i8TLexHjHYPDbuTWz8m5Oh5zf85YRdbiAQwo8QjfYBAAtvAGih0OGXTiISt6xZ7b5m5cNnsfcfP8MSqRSqooJc7Ou3vQx7GhsZxsa9UVZSIhGJAPD24yfz/ibGRj2JRAKbw2GymILbg8fj1VVVklJSsVUms3n/opKS4PCLMjLSU6zHem7ZMHPyhIio6+3vOQLRsQjROb8d4PB4IpFgZGCwcO7M46fOGPbQxxz7+nq6L17F9dDTYXPYCUnJViOHY/trqqveefA4KzdPQkws7HJUTW0dqzVJ3uTxY0+HX1RVUdHWUAu7FMVNlxAXv/vgIZ1OnzHJuqGB9ikhUUuj5RMHBEJo6dyRz2X2tCnvPiXs9T52zHMXmUw20NUtLCrGbuzraGsZ6DVdqNtOtikoLPnbfQeBQBhrMUJTTbVVpd8U67HlFZVHAoPIZNKE0VYA8dj4Q1JCwmv75hOh553WupOIxIGm/ZwXO/zmXiIQvwzk5GmFxsZGHA6Hx+MBIDU9w2XD1itnTkpJ8v3OBwLRKegi5/zfR9Tt6KTUVPvZM5kMht/pUDOTvijsEV0AdM5vhdq6+qCwiGcv/8HhcGYmfZ0W2cvKSP/pRiEQ/xUU+QiEKCJcT/UQCETHgCIfgRBFUOQjEKIIinwEQhT52cgPDr9YUFT8W5uCQCA6jJ+N/L5Ghu57vBpo7f8mLAKBEB5+NvIHmvbr1dMgPDKq9V0RCITQ04br/Bk2E27ee4BO+whEF6ANkd9dt5usjPTrN+9/X2sQCETH0LZ7+0Y99D8lJv2mpiAQiA6jbZGvKCdfXFr2m5qCQCA6jLZFvrgEtbq65jc1BYFAdBhti3wms5Gro0YgEJ2XtkV+dU2NjDSao4pAdHraFvnZefk9uuv9pqYgEIgOow2RT2cwkpJTTfv2+X2tQSAQHUMbIv/5qzgdbS09He3f1xoEAtEx/Gzk0xmM8EtXlzvM/62tQSAQHcPPRr5/0NkxFsP7fv/xKQQC0Un5WQ9fQVGxmory724NAoHoGJCBE4EQRZCTB4EQRVDkIxCiCIp8BEIUQZGPQIgiKPIRCFHk/xwd2D2blB+uAAAAAElFTkSuQmCC;" vertex="1" parent="1">
          <mxGeometry x="278" y="156" width="339" height="377" as="geometry" />
        </mxCell>
        <mxCell id="0exp2a5ZNInw1ogFZy0N-1" value="" style="rounded=0;whiteSpace=wrap;html=1;fillColor=none;fontColor=#ffffff;strokeColor=#009900;strokeWidth=3.1496;" vertex="1" parent="1">
          <mxGeometry x="317" y="188" width="177" height="21" as="geometry" />
        </mxCell>
        <mxCell id="0exp2a5ZNInw1ogFZy0N-2" value="" style="rounded=0;whiteSpace=wrap;html=1;fillColor=none;fontColor=#ffffff;strokeColor=#FF3399;strokeWidth=3.1496;" vertex="1" parent="1">
          <mxGeometry x="317" y="211" width="284" height="304" as="geometry" />
        </mxCell>
        <mxCell id="0exp2a5ZNInw1ogFZy0N-3" value="well known" style="text;html=1;align=center;verticalAlign=middle;whiteSpace=wrap;rounded=0;fontColor=#009900;fontStyle=1;fontSize=19;" vertex="1" parent="1">
          <mxGeometry x="500" y="182.5" width="114" height="30" as="geometry" />
        </mxCell>
      </root>
    </mxGraphModel>
  </diagram>
  <diagram id="OZdDlH1MkvPr9R9hVl0b" name="SGD">
    <mxGraphModel dx="811" dy="450" grid="0" gridSize="10" guides="1" tooltips="1" connect="1" arrows="1" fold="1" page="1" pageScale="1" pageWidth="1169" pageHeight="827" math="0" shadow="0">
      <root>
        <mxCell id="0" />
        <mxCell id="1" parent="0" />
        <mxCell id="H84znKOBX130U0CpPRN_-1" value="" style="shape=image;verticalLabelPosition=bottom;labelBackgroundColor=default;verticalAlign=top;aspect=fixed;imageAspect=0;image=data:image/png,iVBORw0KGgoAAAANSUhEUgAAAU8AAAFNCAIAAAAPZ3quAAAACXBIWXMAAA7EAAAOxAGVKw4bAAAgAElEQVR4nOyddVwUzR/Hv9d31NHdIaBiALYiYHcXKHaAnSgmqCCKYCAoghhYGNj+0MduQTEBQbrrOPp6f38snsgjB/KonDLv1/1xN7Mz892Fz87s7M5nCWUVlYBAIFoBxJYOAIFA/CaQ2hGI1gJSOwLRWkBqRyBaC0jtCERrAakdgWgtILUjEK0FpHYEorWA1I5AtBaQ2hG/mxORF7Nycls6itYI+afUcv/Js7OXrublF6ooKW7fsEZTXb2hLQ+fOJWWme29fs1PaVeauXn3/pkLl48dCGh6kZ37g8kk8gq3ub8uqh/l0o3oKzdvlZSyzc1M5jhPbmNqjKcXFZccCDv+5sNHJUXmiEEDxgwbRCAQUtMzF6xaBwB0Os3U0MB5/FibTlb1Krx265+3H+Mnjxnxu/cE0XS1l7LLJs1xO+jnY2yoXy8rLTN7x96gWVMn2XboUFldrayo+LODlF72hYSXstmb1yz/d1YHSwsY92O19bfrTSBK0Wjr/JUbpy5ELZk3S09b6393H6zasu2gn4+2pgafz1/r5aOvq+O7eV1eQeG+kHAKhTxiUH+81CH/HRQK5WlM7Cbf3asWznfo3UNcYQmrNPxUZKDvNgqF0kL71Kr5CX17YnKyqoryxJHD/3tVfxM6Wpo6Wpo/VMS6Y/2esGW5cfvOqCGD7Hv1AAC3WQbvPiZcuhHtNsvlzqMn1TU1a5ctpFGp5qYmJSx25KVrYrUrKigoKTInjhzOoNEDQ8N7drGm0Wh41vXbd607WmlpNDj0Q/xSGlc7n88fNmUG/h0fpwHArfMnAeD8lRshx0/iKQPHOwNAd5vOXutWNbHt0xcvX7x2c8/2LbgqyioqAkOPPo95LSPDGDNs0KTRIwkEAr7lqs3bbDq0r+Hwbvxzh8vleW9ca2VpDgBvP8SHn4pMzchSZCoMH9xPfMbhcLiHjp18FvOKx+dZWVq6zpoq4eICJ6+gcPeBQwnJKYpMhakTxw5xtMfTXVd7dGrf9kNCUmpGpomhwbplC/F/1rCTZ89GXam779Mmjp02cRwAzFi0Ije/AACY8vLnwg/i2xSzWE7zFjv26fn05Wubju1L2WWpmZnOE8ZOGjUcz8I369Oj68aVS8VRzV66ut4lbkiAr6GeruTDNXC8s9e6VbfvP3z5+i2VQj4TGkQhkwEgNu7t0bPnM7JyVJWVxgwbPHLwAMnHhEKhFJew8O8EAmGL+wqRSAQAsW/edbWxplGpeFbfnt3Y5eV8gaBe8SH9HA6fOBX3/mN3W2s85cHT5y4Tf3DAg/h5NK52CoVy5WRYKbt8+sLle7y3GBvoibNGDx00fJDj9Vt3r9+6E+S3HQCIhKYORG/cvnv64uVdW9bjUhdh2PrtOw31dIN2bS8sKtkdFCLDkKn773j+6o125m3mTXcWCgTamhoAwGKzN/j4zZg8fv2KxSkZmT4BgTqamr262gJA2MkziZ8/e65dQaVSDx8/5RMQtNdni4RgOBzu8vWe3aw7LZo7MzU9c8/BMBqF6tinJ5774OmLFQvm0Oj0sIjTG312HQ7YSSAQXCaNcx4/KjjsRGlZmceKRQBAJtWOTrevX8MXCGJev428dLVeQ8MHDXDo03Ojt5//ts2s0lL/oMOTRg1XYjJDAnwBIOLcRQzD6m7v57lBKBICgEgo2ujjJy8vp6+j3ZTDtfvAIYfePZfPn13D5eBSL2axNu8MmOU0qWdXm/hPyf5BIdqaGradOkg4LNMmj9u6ay+GYaOHDjQ1NhL3yYVFJT27Gog3U1VRnu086d/FyWSSvq5Odm4+/pNdVp6Vk2tuZiyhRcQvpUkjeTqNTqdxAYBOpdFp9K+FySQymUShUAhEYt30Rnn07OWBI8c91yw3NzXBU548j2GVsvd5exKJRD0d7SnjRt28c7/uv6+Rvp7n2pXi7gsAGHS6v9dGMxMjAFBTVbHpYPX2Qzyu9py8/PYW5njlyxfMef4qDsOwumXrEX3vAYVCWbpgNpFINNTTzcnLj7x8Vaz2UUMH2XbuCAAeyxa5uC2L/5TczqINhUym4PtPItXbd/z8lZGZ/e+GdDQ1OFwuvjtysjLVNTV8Pp9CoeDdtYKcfFlFed3tlRSZ+JcjJyNLy8q8N64lEolNOVwjBg1wmfRNL1pUUiIQCPrb92bKy2tpqNOoVHk52YYOCE7vrl18NriHnDjltmZDW3Mzt5ku+CwdX8AXn9okQ6dSK6uq8e/5hYUAoKai0pSCiF/Bz5mT/yEys3N89wdbtbXAJYST9DmlhFUqvmTARCIG4xsJtbe0rCdXBp1eXVPj7umdnpXN4/G4PN6AvnZ41uSxo7bu2pOanmHbqUOPrrbiS8qGSE3PbGfZhvhlhszK0vz0xUtCoZBEIgEA6cuARV1NVVVVJTsvr51Fm2bvfjOIjXsbefmqzwZ3FaXaGdBGD5dVW4t6lZibmNj36j5n6eruNta2nTr06GJN/TIUl4B1R6uDHX0+fU45ef7Syk1b9/l4GhnoU8lUPp8HAIVFxbOWrsa3PBq4+9/Fa7hcGdnawMorKqlUKn5IES1CC6i9sKh45OABN/65G33vwSCHvngiRiAYG+q7L3ETbyahK8bJycvf4OPnNtvFsVcPGo3mHRAozurQ1uJ48J7nsXExcW9Or9s0YlD/udOcJNfWSGMtRwmr1Hd/sNO40Z07tBcnNuNwEYnEdcsWpaSlP4t9febSlUPHTu7yXC9hHpHL46VlZJoYGVLIZHNTE0/3FYvXbbpw9eaqRfO1NNWycvMAQEVZKdjPm11WvnKjFybC6tUgEAizcnLxyy4AoFGpgn9d2yN+J029zKbRqADA5XN/tAERVv+foGP7tovmzJg5ZVJg6LHM7NopKCN9vezcfEUFBUM9XUM9XQNdHQ21RoZ87xMSlZjMIY72+JQvj8fH0zEMCz8VWcwqdejdY81iVy/3leev3KiuqfkmKpGo7k9Dfd34T8niUOOTkvS0tcW9kAhqNy5msYpLWHra2uKCVCqZy+M1+WD8MCKRyGdPoIGe7tQJY+qmN+NwvXn/8cr/bpsYGU6dMDZ4l7e2pvr123e+aevbvxSGiZZv8HoRG4f/JBAIasrKNVwOAPSwtXkW86qyqopEIulpa2lrqAMA9q8/9O0HD8kksk2H2hsNTKaCSCSqqq4BRAvRVLXLMBia6uqXb9zKzM59n/CphsNpSinvgMApcxdyON+cI/B7reNHDrVqa7Hdfx+PxwMAu57d1FWUt/j6JyZ/zsjO8d4TuC8kXHLlOlpahcXFL17HlVdUXo3+58XrOHxCi0AgJCR/3hdyJDU9M7+w8GnMKxVlJQb960A3LTNrhNPMyCvXxCmD+9nXcDiBoeE5eflPXsREXro+YdTXG4o3b9/7kJiUmp65K/CQvo62ZRtTcZaJoeGHhKTYN+/Ss7I/p6bhiXkFhVm5ecUsllAkzMrNy8rNk3y4hMLazSqqKqtravDv+Pno2Jnzn9MyXGdMLSuvKGWXlbLLuFxu8w4XkUQ6dOzkzbv3i0tYbz/E5+QX6Ol8PW0JhcJprks3eO8Sp9Bp9NFDB+4PDX/47EVaZvbFa/97/ipugL0dAPTp2U1PR2eLr39CcnJaRmbUtf/JyjAYDAZekF1enp2Xf+HqjaCw44tmTxcfeT1tLTqdlpH1nekMxO/hB0byqxbN333g0LwV7prqatvWr9Ftws1kKoVCoVCAUP+sDwAEAmHNogULVq4LDo9YOn8WhUze6bnhQNjRNVt8yGRiN5vOC2ZMk1y5laX5PBfnPQfDKquqbTtadbe1zs7Nw7M8li0KOX5y3bYdNRyOhZnptnWr6w50iUQihUIhE7/uO4NO37N9i39QyLwVaxWZCvOnO/Xv21uca2psGHTkeEZWtrGBvte6b2YK+9n1evPho9euvUDAhg3oZ2psBADrtu7A78ABwOwlqwBg06plFm1MGtqR0rIyfLO6Rc6HH1KQl4u++6C6psZ19Xpx7qI5M0YOHtCMw9WhrYX7YteTFy4FhR5jMhWG9ncY7GhfdwMKmVzvoZe5Ls7qqqrHzpwvLC7R1dbyWLaou01nACASCNs8VgeHH1+/bReBAB3bt93r7SUvJ1tUXAIA81eslWEwTI0MtqxZUfdZOhKJZG1l9ebDh7bmZpJDRfwiCMhzVjKuqz369ek9fuTQlg7kb+D5q7iQoxGh+/yIjc0yIH4FUvScJuKvp7tNZ2Vlpeh7D1o6kFYKUjvit7J2idv5S9fyCgpbOpDWCBrJI343LDZbVkaG1oS7/YifC1I7AtFaQCN5BKK1gNSOQLQWkNoRiNYCUjsC0VqQFrUXs1gDxzvjn62797ZUGDv3B/sHHW6p1n815Q/uJY8e/tG2U/KEMVUxL5tSpOjwoU/97eO7Wqe7zePn1reO5BcWsK/VX8OPkFqkRe24o0NIgK9dz24tGEZ/u94OX5a1Swml7LKB451T0zP/Yz3ctLSslctVnKeZRV1RGjIsffFCfmFBI01fulhyKkLHc7tJ5EWirFzG8sXwZelL1fNnmSuWJg0eWHIq4j8GhvhtSIvaSSQSvpxLQU6+BcOw7mjV2apdCwbw6yi9fEnG2kZ5wiSqnr7qrDl0I6OymzcbKXL+nIqTs1yvXjRDQ51Nntzk5JqEeAAQlrEz16yiamsrjh77W2JH/BxaYH17M3j49EVoxJmS0lILU+NlrnP1tLXw9IZ86aABb7aDR0/UVHNUVJSvRt8mEomjhgxwGjcGvpjG4QXrOcO5rvYY0s/hfULiy1dvlBSZrrOmdbPujGelZWb77juQlZNnbKCvoabK4/Ea9eQ7EXkhIelz/759jp05V1RSMn3S+EljRja0IxIcAUGiL9134WWm081ql6MISkowDoebmSE5Wm5mhqpZrW8HNz2NQKHwMjMZbdsR5eTN/7lHpFKLw0M5ifGSK0FID3+A2p/FvtofGr7cdY6ejs6Vm7fct3gfO+BPoVAk+NLh/NubDQDuPXk+bsQQ300e8UlJ+w8f7dS+fVtzMwnOcABw+sKlWc6Tp4wZdTX6H9+9wadC9tFpdB6P57HVx65n911bNuTk5W329Tc3aZLjWmLy5xJW6YSRw+l0mp6OFjRssCfBEbAhX7qq6prxM+fXa/FKRBiFQhGyWDRjUwDgJCZmLF0IQqGQxZIQJyYUCsvKSAwZAGBfv5bn6w0kkoBVAgAEEomALGj+QP4AtYefjJw5ZWLPLrYA4Dpz2qNnL1+9fd/d1lqCLx3Ov73ZAKCNqdH0yeMBwNhQ//rtex8Tk9qam+HXEfA9ZzgAGDrAcYB9HwCY6zLl+u07mVm5bUyNn8W85gsEc6c5kckkCzPTvj275zf12W+Cn9fGup5wEnakIUfAhnzpGAx6sJ93vfbI5K9/5fI7/+R4btZe61H97g0/v5HrdgDARKKC/XvZN64ZhRzJXr8W/nUqRPxBSLvauVxuelb2vsPh+0OP4ilCoTA3vxAk+tLh/NubDQBk6thaKMjJllc2/uAwg17r0yDDYBCJRLxIdl6eoZ4umVzbxRGJTV3CaainU8/+sdEd+TcN+dIRCQT8tPVdyqJvsi9HGQYdZLS3qn73pinR5vlsIykpm5w8S1ZWbsr2CGlG2tUOAAQCYem8mZbmX40fcSdWCb50Ta+6GcHgXzAME35rd9VsmrEjDfnSSRjJk5SVhZWVBmFHKerqACCsrCJJtH8lkEgkJpPerr2u13YChQIAwqpKsopqM3YQISVIu9ppNJqmulpWbt6Q/o54Sg2Hg5sfiX3p8HQej1/XjupXo6+jc/7KDS6XW+uKx+c3uyrJO/JdR0Ajfb3LN28pKigoMhUAAMMwLo8LABJG8lR9Q1FNNeXLWzQ4yUmKQ4Z9s51IBN++l4qmb0A3NauVelmZoLCIqqcHiD8WabkDJ8GbzXn8mEs3oi9e+19eQeHj5zHTXJdm5+VDw750P7f1hujRxZrBoO8MPPjpc8r9J8/+efC4eU1DYzvyXUfAhnzp8JF8vQ/e7SuOHFkVE8O6eJ6fm1t87CgvPY05eIi4FUwo+DRkQMYi17qBKY0ZWxJxvCrmJS87K9dnG9XEmNG28duTHxOTBo53RivYpRBp6dsleLMNdLADgJPno8IiTutoaS6ZOwu3xJPgS/cTW2+oCIVC8dm4dsfeAys2bjU3MerUrm0zrgtwGt2RfzsCNsOXjm5soufnXxCwO2/7VpqBocHeQIrmN86CBAqV8O2ac6VxEwSskiz3VaKKCoa1jcGe/U3ZR3yYQyFLy78WQgxa39588Ne84N837ditqa7mNsslLTNrqcfmeltGBO+TcOL4y7gWfed01OWI4L2NWtwjfjPoBNxMeDye6yoPl0njLdqYxL55FxP3drfXRgDQ1dY6tHtHvY3lGnsH099Eclq62ywXJHUpBPXtzed57OvjkRczsrJ1NDWcx4/p26t7S0eEQEgCqR2BaC1Iy5w8AoH41SC1IxCtBaR2BKK1gNSOQLQWkNoRiNYCUvtv5ac7wyEQTQep/Sv7QsI9dwb8uvp/rjMcAvGjILX/Pn6iMxwC0Qyk5cnZGYtWGOnrvYtPUFFSMjU2fPTspW2nDptWL8MfwDx7+drFqzeqqmusrdotc52jrKgouYhQKIw4F3U1+jaPz+/TvevC2dNlGAwAaMiXLuzk2bNRV/BIBo53BoBpE8dOmzgOAFZs8OzcoT3+vaq6ZozLnH0+nhZmppID/i4/0RnuPx1rRGtFivr2NiZGoXt25RUU6mlrhQfufvE6LjU9AwDOXb5+/vK15a5z9/t4EomkNVu2i9eiNlQkNOJ07Jt3Wz1WBWzdVFBYtDsoRNzKvSfPMQzz3eQxbeLYY2cuxH9KBgCXSeOunAwb4mjf3abzlZNhV06GTRk7unkBV1XXDJnkUu/D5/MBQMhiERmyAMBJTExxmiisKP8hZ7iMhQvEznAIRDOQlr4dALQ1NZUUmfLycgb6uqrKyrIMmdKycgA4e+nKXBen7jadAcB9qevkOQufxb7Gbdu+W6SklH3pxq2QAF/cmnbxvFnzlrtXVdfIyjCgAV86CplMIZNJZDKJRKpr/9aMgI0MDZAzHEI6kSK1f5diFqu8otLKstZhjkGnmxoZpGVk1nWbrEdqWoZQKJy33B3/iWEYhmH5BYUmRgbQLF+6HwI5wyGkFmlXO069i+F/m0B/uzEQCYT9Pp7kL4vPAUBLQ/37mzap6R9YvImc4RBSi7SrXUVJSV5O9n18Ii5XDpeTkp45dvgQCUUM9HRFGFZcysYH/wBQw+HQvnVl+S5UKpnL49VLZDIVKquq8O8CoaDRSpAzHEJqkaJZuu9CIBAmjhkZdvLMqzfvs3Jy/Q6EKCsyu9taSyiipqoy0N5uT3Do05jYvILCM1GXF6xcJxQ2bllnYmj4ISEp9s279Kzsz6lpeGKHtpbPY1+z2OyKyqqwE2careR3OsOdvnDJaf7iRkNCIHCkvW8HgIkjhwHArsCDldXVndq33eW5gdTYi0qWLph9/PS5gKBQDpdrbmayadWyRosAQD+7Xm8+fPTatRcI2LAB/UyNjQBgaH+Hz6npsxavkmEw5k13uvOw+W6TP90ZjssTIPs3RNNBbhZ/MNv891HI5Lqu8giEBKR9JI9oCBGGFRQWz5wysaUDQfwxoL4dgWgtoL4dgWgtILUjEK0FpHYEorWA1I5AtBaQ2hGI1gJSOwLRWkBPYv0+jj8q8778zer0QR1k97poSCiy8VzxuRfl+Perq3TNNBt/2h+BaIi/Vu0PnjzfGxJ28djhlg7kGwxUKQdnf31aVpbWyOq6xYMUXfoolFaJXIKR/yTiv/LXql06oZEJRmqUxrf7groCWV0BiisaX9KDQDSKtKj9aUzs4eOnZzlNOnLqbCm7rJtNp+Wuc8Q2Mg+fvgiNOFNSWmpharzMdS5uSgMA2Xn5h8IjPiQm0un03t26zJk2hUalxr5557HNF98AN5nr0M7Sz3MDnpKanrn30JHPaWkaaqrzZkwVr4p9F5+4buuOfd5b9oaEp6Sld+rQbrvHGjzru654vvuCMIC1X55Rj3v3YfNO/8iwoKZb39TlxWdOwE3Wpzyeihxpck/5OfaKjRZJL+LvuFLyKo3DoBIHWMmsHq5MpxABQCDCgm6zTz0p4wmwgR3kNoxRlWtsBIFoJUiL2gGgsKj4/tNna5e6lZdX7jpwMOp69JSxowDgWeyr/aHhy13n6OnoXLl5y32L97ED/hQKBQC27gowMjTYt2NraSnb70AInU6f7TzJukP7KyfDHj59GRx+/PThQAAgEmonI4tZrJWbvKZNHL9myYJ3H+O9dgUc2OltpF9rNcPn87fu3jfIse/ooYNotNorZNwVb+XC+RqqKsfOXFizZXuIvy+RSBzk0HfTDn8ul0uj0QDg/uNnfXt0p9PoEtwsGtrxogrh/CP5Swcp7ZmmnpDHWxVRYKhK6d++kVe+LzlWYK5NjVyqU1Qu9DhbJENjrxyqDAB+11iv0jkH52jSSATvyyXrzxZKnhpAtB6kSO1AIKxd4oarop9dr/jEZDw5/GTkzCkTe3axBQDXmdMePXv56u377rbWIgzLzS+cNnG8nraWnrbWuuVurNIyACASiXQanUalEgiEej3tmYtXulp3Gjt8MADoaGm+evvh1r0H86c7izdYvmBOx/Zt6xZpyBWvY/u2TAX5pzGvHXr34AsEj17EeK5dCRLdLAAguYDXcV3tynkigRDnbQgAMlTiSTetdro0ANBUJPc0k3mRUiNZ7SIMMksEiwYpGalRjNQoflPVisuFAFBYLox4XH51tS5+vbB5nNoIv6wKjkiejm6+IKRJ7SQSUdwBysvJlldUAgCXy03Pyt53OHx/6FE8SygU5uYXAgCRQJjlPGlX4ME7Dx/bdOzQq5ut5Rf/5ob49Dk1OSX14bPal7SIRKIetjZ1N7Bqa1H3pwRXPAKBMNChz71HTxx693j15p28nGx7izbQmC+dvso3s3Q4sjRCJQebcSjvcz6Py8c4fGy0rbzkHSESYMVQpXVnCq+8kunVhjHASraTPh0AEnO4AhE2Ylc2vhkGgGGQUyKw0EGT+QhpUntdCHWs4AgEwtJ5My3N24hTlBSZ+Jcxwwb36d71acyrp7GvQo6fWrN4Qe/uXSRVSyAM6ucwZtggcUpdU0oJper+FLviDXLoeybqanlF5b3HTwc52uGbSR7Jf3eWLqOYP/9I/obRKsM7ydKpxBURhY2GBAAufZiDrGT/+Vh9N7565zWW7xS1gVayBAIQCRC5RJtC/hqznoqU/pURvxlp/z+g0Wia6mpZuXlD+jviKTUcDoNOB4CCoqJrt+66TBo3cvCAkYMHHDtz/nTUZbHaKVQyjy/AMKyuVo30dFPS08V9L4fDFV+ffxfJrnjqaqrtLdrcuvfweWzcbOfJeKLkkfx3iU3jqMqRxnet7c+5fEyW1shhySnln3lWsWSgknMvBedeCvuiSw/dYQ+0kjXTpIowKKgQOljK4FtWcTE6Bc3SIQD+iGfpnMePuXQj+uK1/+UVFD5+HjPNdWl2Xj4AyMrI3Pzn7uHjp/ILC9MyMt/HJ+jpaItLGRvoC/j8i9f+l5WT+y4+EU8cP3p4WkZWQHBoRnZO/Kfkpeu3RN97IKHpRl3xBjnan7oQZdHGVF2t1gpWgi9dQxioUvLYgvsJ1exq0amn5Q8SqgWi2uFDUYUwrYifUcwHgGwWP62Ij9+Nk6eTzj0v33m9JJvFT8rjxabWGKtTAEBTkTzWVn5TZNGdj1VZLH7IXfYY/yxxbQDg7uXjuy/oB44+4i9C2vt2ABjoYAcAJ89HhUWc1tHSXDJ3lq6WJgDIycr6blp36PipBSs9KGRyF+uOrjNdxKU01dUXzJwWce7ikZNnzEyM9mzfAgB62lr+WzcGhh5zW+XBVFAY0t9+oL2d5NYlu+L17mYbGBo+qLFKJGNrRF8zXHnTueJyjqh3G4ZDO0Z6Ua317b7/lYqfpXM9UgAAzr0UNo5RVWAQw+dr+V5ljd6dTSET7SwYHqNqTzee41X3/q90Q2RxDQ/roE/d56JJJn491/B5PCr5B274I/4mkHdNK0KEYU5zF013mjDE0b6lY0G0AH/ASB7xs8jNL9DV1hzYt09LB4JoGVDfjkC0FlDfjkC0FpDaEYjWAlI7AtFaQGpHIFoLSO0IRGsBqR2BaC38DWrfuT/YP6hJjlQHj57Y5OP3K2I4EHbMc2fAr6j5h3ieXGOxKvVlCgf/WcAWWKxKTc6v/1J6ROvkD3hytlH62/UmEH/CaWtfSHgpm715zfL/XlXLcvgeu6tJ/XW1CMTfoHbrjlYtHYJ08TSpJiGHa6lDwxrfFtGKkAq1l1dUTpy14FJEKJ1GX7x209xpUzq0swwOP0Elk2dPmwIN+NIVs1hO8xbjNfTp0XXjyqXiCquqa/wCD8a8eaeipNjVulP0vQdXIo7gWRgGJ89HXboRTSKSRgzu7zx+DACEnTx7NuoKvgFuZTdt4thpE8dJDjs9K9t3X3BObn57yzZ06tdFqkKhMOJc1NXo2zw+v0/3rgtnT5dhMPCsT59T9hw6kpWTq6Op7jxhrF2Pbnj62w/x4aciUzOyFJkKwwf3mzhyOAA8fhnj7b8/4uA+3AkPALb4BmAY5rl2heTABnaQCbnHDpha36DqUWL19sslOaUCY3WK53hV3ADjzseqnVdZK4Yq+99glVQI+raV3TZBlUGtHSvdfFu1+zqrsFzQQY+2daLaD1loIqQNqbhuV5CXU1VVyczK5XK5KenpHxM/AUBmTo6psRF88aVbMNP54G4fY0MD9y3efD4fAJSYzJAA35AAX7ue3epVuDvwUHlFxZG9u3ZtWZ+Sll43683HeIFAuGPjuiljRx07c/59wicAcJk07srJsCGO9t1tOl85GXblZNiUsaMlx8zj8dZ5+Wiqq2pxjfoAACAASURBVO3y9BjoYPfyzVtxVmjE6dg377Z6rArYuqmgsGh3UAieXlBUtHLTtp5dbIL9vMcMH+K7N+jT5xQAYLHZG3z8+vToGrZ3p9tsl5ORUU9exgJAT1sbZSWlW1/W5JaVV7yMixsxuD9+TIZMcqn7Wb7BUxzAfAel2++qM0sEWJ3O/V0Wx+1ogVNPhcsrdPu1k3UJystm8fGsXLbgxptKPyd1/6kaz5Nrjj8qw9PvxldtjSpeN0r58kpdc23qjIN5PAEaLvzBSEXfDgBtjIzSs7I5XK6hvv6HT0kAkJmda2ZiBA370pFIJNyXQkFOvqyiXFwVi81+EhMbtHMbvuZ87MihO/cFi3PbtjGdPnk8AJgYGfzv3oOET0lWluYUMplCJpPIZBKJ1ETT2Gcxrzlc7tolrjQazdzU5O2HBHZZGQCUlLIv3bgVEuCLD0AWz5s1b7l7VXWNrAzj8s1bFqbG0yaOBQA9ba2MrOzPaenmpiYMOt3fayO+s2qqKjYdrN5+iO/V1ZZIJI4YPOB69J1Jo0cSCIQ7D5+oqajYdLQCgE7t29XzzKBRv9pymGpR7CxkQu+xXft99a4NvVs2rJOcSx8mACwZpBSbWnP8UbnHKBUAIADsclKnkgkAMMJaLi6dixcJuFG6bLBSv3ayAOAxSuXWu6onSdUObRuxx0RILdKidjMTw8ysnGJWiV2PLpdv3q7hcKqrq7U01CX40jVETl4BAcDIQB//SfzWSaKuKpSYCmUVFc0LODsvz0hfDzecBQAyuXbRe2pahlAonLfcHf+JYRiGYfkFhSZGBulZORampuIa5k+fin9h0OnVNTXunt7pWdk8Ho/L4w3oW7tgfmg/h4izF16//WDTyerW/QcjBg3AjTEYdLoE9zsCwLx+TJfgvLFd5MSJibncuY5fxW9rzHiVVlMbPBGoX5ytmDJEdpUIADg8UXI+z/NiidfF2vfbCERYZrGgWUcLIRVIi9pNjYwu/++WCMNcJo6NffP+8fMYEyND/D9bgi/dd8EwDAMQibDG5+klWspIpp4HVt0qiQTCfh9Pch1LadzoqqEGc/LyN/j4uc12cezVg0ajeQcEirPk5WQd+/S6dvuOIlMhOzd/kGNfPP1Z7CuvXXvrVmJhZhKwbfOXVgidDOidDGhHH5Z9G1s9g73vBFN3EwIBtoxT6WTwdbCjKk/6ThnEH4K0qN3MxCgrJ1cgFJoaGVlZWvzz8LGZsRFI9KVrCF1tTQD49DmlnUUbABDwm/qiFSqVzOU19da0vo7OxWs3uTwePljgC2o7PQM9XRGGFZeyxe+lqOFw8G0MdHUSPqeIa7h5556SomJ3m87vExKVmEyxwwSPx6+7g6OHDlzovoFKIdv37C4vVzuKljySxwU710Fxfli+OLGNFu11Kkfsfvc6ndNGS5InH51K1FMmpxXxJ3RTwFOquFijr7JCSDNSMUsHAIpMBYFQqKWuRiaT2luYv49PwNUODfvSCYXCrNy8rNy8iqrK6poa/LtIJFJWVOzVzXbvobC3H+LfxScejzzfxBhMDA0/JCTFvnmXnpX9OTVN8sY9uljTafRd+w9++pxy/8mzfx48xtPVVFUG2tvtCQ59GhObV1B4JurygpXrhEIhAIweOjAxOeX0xcv5hYX3Hj8LDj8hLysLADpaWoXFxS9ex5VXVF6N/ufF6zih6OsZyshAv20bs3uPn+Hzczj4SL7uRzx8gC/9cx8LGbM6ep7jyLz6pvLMs/LMEkHIXfbrNI5Ln0beSOPaX+nEo/JjD8sySwS33lf1256RXsQX556+cMlp/uJGjilCmpCWvh0ATA0NDfV1AaCthZlIhJkZG+LpDfnSlZaVzV6ySlwc/34+/JCCvNxKt/m79h/02L5TXVWlU/t2dx89aUoA/ex6vfnw0WvXXiBgwwb0M/1yuvkuFArFZ9PaHXuDVm/2tjQ37denV/mXKYClC2YfP30uICiUw+Wam5lsWrUMt7LTUFPz81y/N+TIyfOXdDQ13Je44aMPK0vzeS7Oew6GVVZV23a06m5rnZ2bV7etLjada7hcc1OTJh5JMfMdFcV+1Z306Qema/hcKdl+ucRYnXLcVUu/MefpMV3kASDoNtvvBstQlbJ5nJphnTtwXJ6AItFLFyFt/J3eNXw+X/wiigtXb9y6/+jQbp/mVeU0b3FldVXdFPclbr262v7XEJuMSCSas3T1pLEjBzn0/W2NNoVt/vsoZLL7lzfhIaSfv/PcvHX3PkszE4c+PbNz8s5dvl73dRE/iv+2jfVms5QUFf5rfE0mIzvn8s1onkDg0KvHb2u0KYgwrKCweOPKJS0dCOIH+Dv79ozsnMPHT739EM9kKgzo22fqhDF1baH/IJzmLZaXl1uzaIGJkUFLx4L44/k71Y5AIP6NtMzJIxCIXw1SOwLRWkBqRyBaC0jtCERrAakdgWgt/AH32wOCQ2/euYd/Dwnw/ffar537g8kk8gq3ub89tB/D+UAuiQjHXWtfO70hsqiCI9rrUt9zAoH4RfwBaneZNG7M8MHlFZWrNm397gY/y5fuN/AyhfMmk4ObxiAQv5k/QCQqykqGerq4OcR3se5o1dmq3e8MqdkQCXD4Tu0q1O8uOEUgfh1S1LeXsssCDobGvfvAZCoMtLebOmEMUWKP3ZAvXVV1zRiXOXOmTr52624pm92rm+3yBXNw24mDR0/UVHNUVJSvRt8mEomjhgxwGjcGL5VXULj7wKGE5BRFpsLUiWPrvuF81eZtNh3a13B4N/65w+XyvDeutbI0n7FohZG+3rv4BBUlJVNjw0fPXtp26rBp9bLvLnoXM8BK9s6H6s8FfFONbwzeMksE688Wvs3kKsuRFg1UEq9LHR2QPaGrQmxazcOEahU5ksdoVXtLmdrDVSX0iiq+97FGjk5w6cOc66D4H1brI1oF0qJ2kUjk7umto62119uTXVbmFxQiw2CMHzlUQhHclw4AIs5dxP7VUb6Me7t+xaIiFisw5OihY6eWzJuJp9978nzciCG+mzzik5L2Hz7aqX37tuZmHA53+XrPbtadFs2dmZqeuedgGI1CdezTU1zb+as32pm3mTfdWSgQaGvWXmm3MTFaMm+Wi9syh949wgN3u7gtS03P0NTQGD9zfr1grkSE4at0DNWoA6wg9B57x2Q1ccTVPMw5MKevpcymsaqfcnkbzxfTyYTh1rW2M4fulK4YqrzAUenU0/I1pwofbNRnUIkiDOaG5ptpUi8u18krFXhEFsnSiM69ft8D/Ig/EWlR+8u4t/mFxft8vOh0GgDMcZ78Nj5RcpGGfOlw5k6bYm5qYg4mPA4v4GDowtku+KPybUyNcF86Y0P967fvfUxMamtuFn3vAYVCWbpgNpFINNTTzcnLj7x8ta7ajfT1PNeurNdva2tqKiky5eXlDPR1VZWVZRkypWXlRoYG9XwmAID8ZWUoAWCug+Kk/blLBymJc6NiKqhkoud4VRKRYKZJTS/mH77PFqt9YneF0bbyALB6hMrZ5+UpBfz2erTb76uKKoRnF6uSiARjdcr8fornX1YgtSMkIy1qz8zKNtDTwaUOAI52vRztev2XComE2quAthZmXB6vqKREU10dAGTq2MIoyMmWV1YCQGp6ZjvLNuILBytL89MXLwmFQvFamvaWlpKH6HXaJUhyjCNAW11aV1N62AM2fOncE3N51kY0ErG2fltj+qE7bIEIIxMJACDzxexZjkYgEQnsaiEAvM/kFpYJOq5Nx7NEGCZL+wOmYBAti7So/dchSaV1sn7WNW9VdY2EkTze4HxHpXmh+d1M6XQK4V+BSKJuuOba1F1T6vrVoKt2RCNIi9r1dXUysqM4HC7evb+LT0xOSRs3YkizKxRhIvxLQtJnGpWqpqIiYWNDfd1LN6JFGIYb1MYnJelpazdvkSyDQZc8kgeAriZ0cy3qo8TqAVayAGCmSYl4XCbCAO/d49I5xuoUMlGSettoUiOelCvLkVTkSACAYcDhi5oRLaJVIS3Dv67WnTTV1PwOHMrMzv2QmOQfFCIQ1FqgsdjsrNy8nPwCAMgvKMzKzStll0HDvnR4qYjIqMzs3Lcf4kMjzgx0sJMs3cH97Gs4nMDQ8Jy8/CcvYiIvXZ8wanjzdgQfydf7iDtecQc815Ep+jKSH9dVoYqLbY0qzijm335fHXaPPcu+Ece4IR1ltZikheEFbzM5nwv4K04WbLlQLM79mJg0cLxzXoEkH25EK0Ra+nYikei72SMg+PDCNeuZTIVh/R0mjh6BZx07fV78LN2mHbsBYNSQgQtnT2/Ilw4Xtqammsd2X3ZZee9utvOmO0tunUGn79m+xT8oZN6KtYpMhfnTnfr37f0rdlNMv3ayJuq1N+FkaYTTi3U2RBaO8MtWliO5j1QZZSMnuTiFTDjmqr0tqnjGwXwyCRzayqwbpSrO5fH5AIBM4xD1+AvdLPD77Qd8t+FvX2mFXIu+czrqckTwXnQxj6iLtIzkET+R5LR0t1kuSOqIeqDB3l/I8gWzWzoEhDTyF47kEQjEd0EjeQSitYDUjkC0FpDaEYjWAlI7AtFaQGpHIFoLf4DaA4JDB453xj/pWdn/3mDn/mD/oMMt1fp/Z+//SrtsSK/k1j5Je+VVZY/NGb+iIUQr5w+4396yvnSNtv5TqOCIzjwtm+PQyOPxCMR/4Q9Qu4qykoqyEr4S5rtYd7RqwdZ/CkQCHH1YNq03k0YhILs6xC9CitT+q33pRBjm4rbMefzoIf0c8C3DT5+L/5S0a8t6AHj7IT78VGRqRpYiU2H44H4TRzayBi7u/Ud3T+9b50/iPw8ePZGZk+e9fg0ACIXCiHNRV6Nv8/j8Pt27Lpw9XYbBkFxbOz1aaaUoKrZico/6/jOh99lHH5RVcEQ9TRleE9XU5EkAcOdj1c6rrBVDlf1vsEoqBH3bym6boMqgEgFAIMKCbrNPPSnjCbCBHeQ2jFGVo6FHaBEA0nPdjvvSkUikvd6eKxbM+d/d+xev/U9yEdyXLiTA165nt3/n4r507svc3ryPP3TsFAAQCYQBffvcffRUvM39x08H2tsBAIvN3uDj16dH17C9O91mu5yMjHryMrbZ+xIacTr2zbutHqsCtm4qKCzaHRSCpx86dnLIJJe6n/BTkXgWmQiz7Zlh98qEIqyux17Y/bIj98u2TlQ7t0SHSCTMCM4Vflkom8sW3HhT6eek7j9V43lyzfFHtaMPv2usR5+qD87RPLlQO4fFX38WrXtF1CItffvv8aUb6GB3+uLlYhZLVVn50+eU0rKyPj26AACDTvf32oivmVNTVbHpYPX2Q3yvrrbN2JGSUvalG7dCAnxxS+zF82bNW+5eVV0jK8OYMGrYIMe+dTdmytd6yxIAxnaRD7xV+r+3VXU3OHy3dM0IFQdLGQDY6aRu55V+L766f3tZvMguJ3UqmQAAI6zl4tK5AFBYLox4XH51ta6RGgUANo9TG+GXVcERydOl5bSOaEGkRe2/x5dOS0O9vaX5/cfPx48cev/Jc/uePeg0OgAw6PTqmhp3T+/0rGwej8fl8Qb0tWteu6lpGUKhcN5yd/wnhmEYhuUXFJoYGSgrKiorfn8ejkAg0CiE6XbMQ3fZM/oy8cSCMgG7WmRrXHsVIEsjWGrTPuXxcLWTiYBLHQCYMkR2lQgAEnO4AhE2YlftvQMMAMMgp0RgoUNt3u4g/iakRe2/jnoLPwc72l+4dnPciCEPnjz3WFF72Z+Tl7/Bx89ttotjrx40Gs07ILDxahtsDogEwn4fTzLlq2O8loY6ABw6dvLSjei6G08cNXym00RxbVN6KoTcKX2YUC2h3e++c0K8iwQCEAkQuUSbQv4aoJ7K3/9XRjQFafk/+G2+dH26dwkMPXr99h0qldLeog2e+D4hUYnJFL8xgsfjM+iNvLyJyWQCQGVVtZysDAAIBEI83UBPV4RhxaXs7jad8ZQaDodGpQKApJE8AQBAnk6c3JN55D6bKUMCAHUFMlOG+Cq1Rl9FHgBqeKLEXO50O0l36cw0qSIMCiqEDl9eMlHFxcRel4hWjrRczv02Xzoajda3V48jJ88Ocvg6VtfR0iosLn7xOq68ovJq9D8vXscJRULJretqaSgrKkbfvS8QCN99TLj/5Bm+vZqqykB7uz3BoU9jYvMKCs9EXV6wcp1QKAQAZUXFen51Soq1g3Zx5zzdjkkmfTWxm+uouPsG68mnmtRCvsfZIlUFskM7SdP7morksbbymyKL7nysymLxQ+6yx/hnCURfxwPuXj6++4Ka9SdC/PFIS9/+O33pBvezi75zr5/dV+c5K0vzeS7Oew6GVVZV23a06m5rnZ2bJ7l1CoXivtQt8HB4+OlzNh2sBjvYp2Zl4ZstXTD7+OlzAUGhHC7X3Mxk06plTbevVZMnjbGVv/W+dq5udl9FAFh7prCcI+puyjjuqiXZixYAPMer7v1f6YbI4hoe1kGfus9Fs24RPo9HJVMkFEf8xfyFbhbIl64hRBjmNHfRdKcJdd9yh2g9SMtIHvEbyM0v0NXWHNi3T0sHgmgZpGUkj/gN6Gpp+nltbOkoEC3GXziSRyAQ3wWN5BGI1gJSOwLRWkBqRyBaC0jtCERrAakdgWgt/AFq/1FnOA6XM3C8c2Ly56Y3UcxiiZvYunvvfwgWAGDGohV4VRNmLvjuBlNdl9669/A/tvKrEYowi1WpgbdKxSkDfTJPPqm/shjxB/EH3G//Dc5wuDEGAEScu4h9d5XZj7B9/Rq+QBDz+m3kpavf3cB53Cirthb/sZXfQ8Tjstn2TNwVB/Gn8weo/Tc4w0k2xvhRdLQ0ASAjs8FhyJD+jv+xid9GeY0o8nnFdDsmAGAYWkv3ZyNFak/LzPbddyArJ8/YQF9DTZXH43mtWyW5SF5B4e4DhxKSUxSZClMnjq37+PeTl6989hwoLSuz7dBhxcK5crKyePq16DtR128WlrB0tbVmTZnYxbpjswP+USO9uw+f7Piy/mzRnBkjBw/Avz+NiQ06csKhd88bt+9gGEwcPWzymFF4lutqjyH9HN4nJL589UZJkek6a1o3686N7vvA8c5e61bdvv/w5eu3VAr5TGhQWXm507zFjn16Pn352qZj+1J2WWpmpvOEsZNGNWK/N6ij7JGHZU69FCikb6SeWSJYf7bwbSZXWY60aKDS+K7yAFDBEXXZkH54jmbwP6UJuXwLbYrPJHVDtdpFOJ9yeZvPF3/M5eookd1HqojX5CJ+G9IyQuPxeB5bfTq2a3vm8IGFs13eJzRiUwUAHA53+XpPHU3NAzu3zXaeHBx2oq7n3Ku371cvdt22bnVKRsbekCN44rPYV4dPnFowY1rYnp2OvXt6+e0pKWU3L+BmGOl1s7XGjfQ01dXrZRUWFXO4nJ2b10+dMPbYmQsPnjwXZ52+cKlr504B2zZ3tmrvuzeYw+U0uu8AsPvAIRUlpeXzZ89ynkQh157Thw8asH7loicvY+e4OK1aOP/0+Uv4Mannlrd8g6e4nlE28gBw9XUlAIivcKp5mHNgjoEq5cIynVVDlbdfKrn2+usTmftulS4coHzMVRMAvKKK8cSCMsHUoNwhnWSvrdKdbc9ccrQgKZ/XxEON+FlIS9/+LOY1XyCYO82JTCZZmJn27dk9v6AR+8Toew8oFMrSBbOJRKKhnm5OXn7k5auOfXriuQumO+NmFfOmO3v77+dwOXQavY2xceDObbhj3IRRw05fvJyQnNy7a5dmBNwMIz1ZGYasjC4AUCj1DzuNRnOb6UIgEEyMDDKysm/cude3V3c8a+gAxwH2fQBgrsuU67fvZGbltjE1lrzvADBi0ACXSePqtaKjqcHhcgHASF9PTlamuqaGz+d3at8u2M/7m2CoX22taCTCTDvm4bvs0bby4sSomAoqmeg5XpVEJJhpUtOL+Yfvs4dby+G5q4epdDWhA8BcR8WVEUV4Yshdtp2lDH5FYKBKeZJUExVT4T5CRfIRQ/xcpEXt2Xl5hnq6ZHLtOnBiY6u4ASA1PbOdZRvx4NnK0vz0xUu4bwQAUKm1A0gLUxO+QFBQVGKgq6OirPT89h2fPQcKCgsxDKuqruFxmtnD/FwjPQLhq6NWWwuzV+/ei7MY9Fr7ChkGg0gklldWQsP7Ll5I3/RZQAadjs9ZNBTYxO4Kwf+U3vlQLZ6+TMzlWRvRSF/+RrbG9EN32GLPDNkvhtZMBqmGJ+IJMCqZ8D6T9yGbE/3FY1OIYY5tZZsYIeJnIS1qxzBM+MV2puk0ZdYIFwA+0/7Pg8fHz17YsHKppZkpmUyaPGfhDwf666lnpNdQ1s+aMXsW+8pr1zc3HS3MTAK2bRY3I0MlTOvNPHS3FPs6loeGY4Q629SJlgDjuiq49Pnqli9Lk5aryNaDtKhdX0fn/JUbXC6XRqMBAI/Pb7SIob7upRvRIgwjEggAEJ+UpKetTSKR+AI+AAiFteeOlLQMEomkpa4GAK/fve/auZOVpTkAiDCML2i8lQYD/qlGenXv+iV8+qyrrSV5+4b2vRlNSx7JE4AAAFN7M0Pvl/H4tYfUTJMS8bhMhAHeu8elc4zVKWQioc6lfX3MNCkJuVwzzdqaq3kYA7nl/Xak5fzao4s1g0HfGXjw0+eU+0+e/fPgsTirIWe4wf3sazicwNDwnLz8Jy9iIi9dn1Bnhjni/MVSdllxCSv8TGTfnt3wk4iutmbch48Z2TnFJax9IUcqKqsEIiE0ZnH3XSQY6eUVFGbl5hWzWEJRbbU1HA4AiGvm8wWs0rKs3Lz8wtq5CS6XG376XF5B4a37D2/dezC0v4PkwyV5338IfCRf94M75OLg3bOiDHFiN3mxvd24rgpVXGxrVHFGMf/2++qwe+xZ9o28wW62g2JSHm/jueLPBfy4dO7k/TkXYyvEuacvXHKav7h58SOajrT07RQKxWfj2h17D6zYuNXcxKhTu7biwWJDznAMOn3P9i3+QSHzVqxVZCrMn+7Uv+9XqzkTQ8Ml6zazy8u7dOyweO4sPHH8iGF5+UXLPDaTSKQB9n10tTRzcvMBoCGLOwV5uYYClmCkt27rjtz8grpVbVq1rHf3Ls9jXovvwJ26EHXqQpSRvu4hf18AoNFoPB5v4ZoNAJjLpHF2Pb7z9pu6SN73X8GsvszTT2ufRJClEU4v1tkQWTjCL1tZjuQ+UmWUTYMHCsdIjRKxUGvbRdaYgGxlWdKEbvKj6xTh8gTiGweIX4cUuVnw+XzKFw/2TTt2a6qruc1yadmQAMBp3uLK6m/e3+K+xK15r5FpiKcxsTv2Bl2JOPIT6/yz2Oa/j0Imuy9xa+lA/nKk5YTK4/FcV3m4TBpv0cYk9s27mLi3u6XDU8l/28Z6j9IqKdZ/MSPivyDCsILC4o0rl7R0IH8/0qJ2KpU618XpeOTFjKxsHU2NtUvc2pqbtXRQAAD/fhIG8XMhEgj7d3i1dBStAikaySMQiF+KtMzJIxCIXw1SOwLRWkBqRyBaC0jtCERrAakdgWgtSMsduL+JLhvTK2q+eer26ipd8SPi/6agTNB3ayb+fVAH2b0uGr82PkRrBan9l7B+lGpvi68vWtdVknScVeRJV1fpAkDQ7VLRfzXFQyAaBKn9l6ChSDJSa+pr0slEAt7zM2VIpVXCXxkXolUjLWqPe//R3dP71vmT+M+DR09k5uR5r1+D/7xw9caV/90uZZcb6uvOcprYyaodnl5WUREYevR5zGsZGcaYYYMmjR4pYXE4Tmp65t5DRz6npWmoqc6bMbW7TWcAmLFohZG+3rv4BBUlJVNjw0fPXtp26rBp9TICgcDl8cIizjx+EVNdXdPW3Mx1loteY8tRJXD6afnxR2V5ZUIjNcrywUp2TfBmC39QdvppWVGFqI0mdflQpe6mtUOG0iqhV1TxvY81cnSCSx/mXAfFpqw5R7Rm/oBZusfPYyLOXXSb7XJwt3fHthabfHeXV1QCgAjD1m/fSaNSg3ZtX7PI9crNf65G/yO5qmIWa+Umr769uocE+E4YNcxrV0DaF2fYNiZGoXt25RUU6mlrhQfufvE6LjU9AwCOno58F5+wde3KAzu3ycvJbvffh28v2c7tu9yNr/K7XrJupMrN1brDO8stOV5YWN5IT37rfVXQ7VKP0aqXV+p2Maa7HclnV4sAQITB3NB8OoV4cbmO72T1k0/KTz1FTu+IRpCWvl0COXl56mpqXTt3IhAIM50nqamp8vl8AHjyPIZVyt7n7UkkEvV0tKeMG3Xzzn2xket3OXPxSlfrTmOHDwYAHS3NV28/3Lr3YP50ZwDQ1tRUUmTKy8sZ6OuqKivLMmRKy8oBYOiAfuNHDFNRVgKAyWNGzl+5rrKqSk5WVrIJxMqIQrH97KIBSnMdFQGgvS7t/DJdfIQ/25556E7p20zOgPaSDJsyivhaSuS+FjIEAiwfqqSlROYJRADE2++riiqEZxerkogEY3XK/H6K519WOPdCy3UQkvgD1D7Awe7u42dzlq3pat2pm3UnsZ6TPqeUsEqHTZmB/8REIgaDLrmqT59Tk1NSHz57if8UiUQ9bG0kF1FXUY6IvPjkZWxpWZlIhAEAh8uVk5WVbOe2ZriKeJZOSbbWUkZdgXz2efnKk4U5LL4Ig0qOiMNrZFJudBf5q3GVw3Zl9bWU6WspI9bz+0xuYZmg49r02h3BMGT8hGgUaVG7hEtOZUXFYD/vuLcfXsa92bn/oLam+vYN7jQqFSMQjA316y6KbvSinUAgDOrnMGbYIHGKDL2RE8SBsOPZubleHqu1NTVy8vLFpheS7dy+O0t3+VXl/ujSPS4aHfVpFBKhj2eG5KYBQE2edGmF7rOkmgeJ1e6niwxUySFzNOkUIhDAXJu6a0pdkxl01Y5oBGlRO5PJBIDKqmo5WRkAEAi+XtDevHNPVUm5i3VHm05WM6ZMmDR7Ydz7j91tOhvpFHciNAAAIABJREFU612+eUtRQUGRqQAAGIZxeVzJrRjp6aakp4v7ZA6HS6M1eBsc59W79zMmT9DV0gQAHverQa3kkfx3eZpUbWchY2tEBwARBjxh43fbzr0o11Ag21nK9DJnLB2s3Nsz49lnjoOlTBtNasSTcmU5kooc7rEJHP4Pe3giWhvSMvzT1dJQVlSMvntfIBC++5hw/8kzcRarlB1wKDTu/cfiEtajZy8FQr6OpgYA2PXspq6ivMXXPzH5c0Z2jveewH0h4ZJbGT96eFpGVkBwaEZ2Tvyn5KXrt0Tfe9BYYJoPnj5nsdlpmVn7Q8MBADexlmzn9l0M1SjPP9d8LuAXsAVbLhSXVYv4IgwABCIsrYifVsQvqxFWckX4d6EIA4CicuHGC8XPk2sK2IJb7yoFQsxAhQIAQzrKajFJC8ML3mZyPhfwV5ws2HKhWNzQx8SkgeOd8xoz5Ee0NqSlb6dQKO5L3QIPh4efPmfTwWqwg31qVhaeNWXsKJEICwgOZbHZOpoaHssW6+loAwCFTN7pueFA2NE1W3zIZGI3m84LZkyT3Iqetpb/1o2BocfcVnkwFRSG9LcfaG8nucgKt7m7gw5Pd1uupKg4fKBj/KfknNx8DTW1ZuzjrL6KWSWCKftzSEQYbStvqEbJKBIAQEmFcIhvlngz/PtzL0NFGcL8fooiDDacKy6qEBiqUnZPVTdWpwAAhUw45qq9Lap4xsF8Mgkc2sqsG6UqrgF37EVOb4h6/IVuFmmZWUs9NtdLjAjeJ8FS8i/jWvSd01GXI4L3oot5RF3+QrXzBYLiEla9RA11NWKr+dcPOBjW1brjz7XKRPwF/IVqRyAQ30VaZukQCMSvBqkdgWgtILUjEK0FpHYEorWA1I5AtBaQ2hGI1gJS+9+GqKY6e8O6+B5dEnp3z93mJeLxGi3CzchInT41vkvn5DEjqt/Efc3AsKKww4n2veO7d8nd7oUJBL8wbsSvB6n9dzN76eqo6//7dfXnbt/Ky8gwDj9hePBw9etXBXv8JW8v4vHS5s6i6RsYnzil0G9A+vw5/NxcPIt19kzxsaPaW7wMDhysfPYsz9dbclUIKQep/a9CVFNdduOGxopVdAsLRnsrjWXLS6MuACZpsV3lo4dYdZXWhk10C0uNRUtopmalVy/hWazzkWozZyrYO8ra2Gi5r2NfuSziNrLKECHNSNHCie+azN19+OR45AUlRWZKWqajXc/YN+94PJ7HskW4Nd3bD/HhpyJTM7IUmQrDB/ebOHK4hPqLWSyneYsd+/R8+vK1Tcf2peyy1MxM5wljJ40aDgB5BYW7DxxKSE5RZCpMnTh2iKM9AEhu/bsBV1XXjHGZ471+zckLl1LSMo0N9VYtWoAvmF26bktCcjIABIefCA4/AQB+Xhs7tLVoyJNPcuvfhZedjQkFDLM24p+i6mpBSQlZVVVCEaqePpFGw3/Kdu7MTUkRZ9FMTGvTrW1EHA4/J4dmbNzYXxIhpUiL2nGTOUM93aBd2wuLSnYHhcgwZHCbmuqamr0+nueirkXffxC6d1dE5MWo69GdrNqx2OwNPn4zJo9fv2JxSkamT0CgjqZmow+HDx80wKFPz43efv7bNrNKS/2DDk8aNZzD4S5f79nNutOiuTNT0zP3HAyjUaiOfXpKaF1CwABw7OyFGZMnyMnJBIefCAw9umPjWgDY6emBYSK3VesH9XcYNbg/AFCpNMnRNtR6Q14aQhYLAAgMBiYU5vvvKo/+HwAIWSwJaicpKfIL8kEkAtxbi0Ti5+d/zcqr/Q4EAhCJ/IJ8pPY/F2lRuwSTOXk5Oaa8vI6ulqqKMlNeXk9HO+lzGgAw6HR/r41mJkYAoKaqYtPB6u2H+EbVrqOpweFyAcBIX09OVqa6pobP50ffe0ChUJYumE0kEg31dHPy8iMvX8XV3lDrkl3x5ro4dWhrAQCTxozwCQjCE3G7CwKRSCWT6bRGPHNwGmpdspeGqLIia90ajMc3DD2aPGoYJnEkL9+nb673tqLwMNXpM6tjY1iRZ2U6W+NZzIGDio8flevdi8xUytm6BUQiolxrWUf4VyItam+GyRyDTq+uqXH39E7PyubxeFweb0DfRharN0RqemY7yzbEL8aRVpbmpy9ewl0rmhcw48vAWF5OnsPl8Pl8CqWp9vJNQbIrXuo0J9lu3bXWeogqG1/yRFZS0tuxM3ude0HgPqq2DqNDR4pq7ep99QVu3JSUpKGDCRSK0vCRACDOQvyJSIvam2Eyl5OXv8HHz222i2OvHjQazTsg8L8E8KOrYZsYcFOqbcZC3IZG8iRlZQBQnjJVZYoTAAgrKwGArKIiuTYFe0eL+49F7FKymnr6wvnUL+cRIkPGIDBYUFxMpNM5qZ/ZN6+Tm2XjgZASpEXtzTCZe5+QqMRk4tNpAMDj8RmNWUo2hKG+7qUb0SIMw9fAxycl6Wlrk0iknxswDpVK4X17D1yCJ19DNDSSp+rqEkgkRru2eCInOYnIkKmndkwoJPxr14g0GlFDk5OYWBUTo7l6bd0ssqoqYFjxiePyfe0JyA/nT0Za7sA1w2ROR0ursLj4xeu48orKq9H/vHgdJxQ187VKg/vZ13A4gaHhOXn5T17ERF66PmGUpOn95gWMY2poePfR08+packpafmFhSDRk68hGnLFIzJkFAYNzvfbxUn5zElMKAzcrzR6NNQZdHCSk+K72RQdO1K3NkworH73tvjE8dSZ05QnTKIbm4iz+Pn5FY8epi+cX/XsqcbS5XVLnb5wyWn+4qbsMkJKkJZTdTNM5qwszee5OO85GFZZVW3b0aq7rXV2bl7zWmfQ6Xu2b/EPCpm3Yq0iU2H+dKf+fXv/9IBxpk8Z7+2/f4nHZjlZ2YWzpmuqq0vw5GsGOhu35G73SnWeAkSC4qAhGstXfZNNIhGoVCLpm0kEUWVF+txZFH19jUVLVKY4180qPhZedvO6bNduxhFnqDrfzBRweQJkffdn8Rd61yBfut/DNv99FDK57swFQsr5C8/Nutpah3bvqJcoJyfpBUyIH0WEYQWFxRtXLmnpQBA/wF/YtyMQiO8iLbN0CATiV4PUjkC0FpDaEYjWAlI7AtFaQGpHIFoLSO0IRGvhL7zf/ueyc38wmURe4Tb31zUhwrDjZy7ce/ykrLzC1NjQz3PDr2tLenA+kEsiwnFXbfznhsiiCo5or4tGy0b1+0FqlyL62/UmEOuPtkrZZZPmuB308zE21P/vTVy/defK/6JXuM7T0dKo4bQi26mXKZw3mZxO+s1cN/V3gNQuRVh3tPrVTXz8lNSzq23v7l1+dUPSBpEAh++UHZhJB5Ds0/c3I0Vq/9W+dDixcW+DjhwvKCrW09VeOn+WpZkZAPjuC8IA1n555Dvu3YfNO/0jw4Jwh5mHT1+ERpwpKS21MDVe5jpXT1sL3+xdfOK6rTv2eW/ZGxKekpbeqUO77R5r5q9wnzvNybZzx9Djp2l02rSJY5+8jD1z8cr+HV4AcCLywv/bO8+4JpI+AP83ndCr9N5tiIhiBexiFytS7KB3enbF3sWGDREEUQSxo6h4oogVOQGxAkrvvSqQRvJ+WAwRTRDu0Pgyz48Pm8nO7MyG/85smWdTPqYPGzLo7IXLZRUVrtMdp08ajwvz8DIH2VhvWrkMX2az2Xxbhvuq9fgCX1/33d0louGb9xyIS2yyR0fFPAaAhS5OjuPHCGsIvqawtmfl5u075ptfWKyprqooL08mkbasWc7lckdNc8ZlewAQG5+w29vn1vmmqYGZ2blH/E6nZ2V1UVZa6Da7X+9e+DqngsPmzpp++vzFquqavr0tlnvM54t97sY8OnfpWm3tZxMjfXfX2QZ6OgCwaOX6Hl1Nl8x1xdfJyMrxWO15Yt9OQ309Ec0f3l0y+l19egnbsMtXM4JyKzgbLpa+zmUqSBH/GCHvaC2Np0/0zp9qLZOQ1fA4pV5Riug5UcnWjI5/VVXXuD28POZ9gxQNcxkku8BO7nd5V7i4RPvP8dJ9SM/Y4nVovvNMK4seD57Ertq8K/DIPlUVlZF2QzbvPcRkMqlUKgA8fPp8iE0//H/ueULisYCg5R7ztTQ0Iu5Erd26+6zPIb6Ihs1m7zh4dKT9kIljRlKpFAAwMtDPys236tXz/cePFAoFAPIKCowE/hFT09IrKqumjh9Lo1G1NNQAQF5W1t/bCwBCLl8TtEqRyeSI0MCq6lrXJcsP796qr6P1I7tLGBtXLuXyuF5HfGWkpDzmOQMASWAm3LcNEdF2Fou1bvse2wE23js3l5VXrt/pZaSnK/r3La+sXLl5u/M0xzVL3d+8T96+39tn3249bU0AKC0rfxj7fN2yxbW1n/f7nAy/fXfm5AkA8OhZnE/g2eXuCwz1dSP+jtq4e1/QsUM0GnXimBGngs/Pnz0Tn9If9fCxmZGRob5eXX2D45xFLbYbERKI/1i6ypTh3SEgpnrvDGX+Lq5n8ZyOFwwxo2+erPShkLXpSjmNhI21bJo95RddtWKMgru9/PnY2jXnSx9t0pagELg8WBBQbKRKubZco6iK43mpTJJKcBogI7r5YoK4RPvP8dJdvH7TdqDNJIdRAOA6w/Ftckr47bsec5x7djOXlZGOjX9pN9CGzeE8+Sd+27qVeJag0EtzZk7r38cKADzmOD95/iLx9dt+Vpb8Mpe7z+/ZzZz/0VBPNz0zm81m19TUsjgcLpebm1/Y3dxUoBbYge2bpAVm6RCJRFw7JSMlXfOpVrDCNCqNRmUCAI1CFVTZibbifRf80EMgEohCrHgtGiKi7c/jX7LZnPmzZ5DJZC0NdRsry/KKShGbBoAL1yKsLS0mjx0FABpqqomv30XFPFrk6gQAgGHrli7GY3Lo4AHJqWl4lksRtxzHOdgNtAEAjzkuWTl5ufkFxob69oMGBJwLexQbN8J2MIfT+ODxs0VuswFAQoLWwvABAKQvc3IxgAV2ctOPFS4bKc//Njz+E4VE2OaoRCRgRqqU7HL2qYfV/Gif1k9mopU0AKwep3gxrjajhN1Ni3rvbV3Zp8aLfyoRCZi+CnnRULkrLz6haG8bP8dLl5mdO33SOP7H7uZm71I/AACGYSPsBsU8eWY30Cbx1RtpKclupsYAwGQys/Pyj54KOhZwBs/S2NhYWFwqWObXkQxG+nrRj599yMjSVFdjstlZOXl5BUWTHUbxV9DV0pD+1xPy2rG7WqVFQ0S0Pb+oSE9bs02mvQ/pmWkZmY+fv8A/crlcG6ve+DKRSOAXJS0lWftlmlZuXoHrdEd8mYBh/NsHVAplzFC7yKgHI2wH//MyiQe8wTbW+DoiXH0YBuaaVGtDWuCjavjSuacWsiz1qERC00DcSp/mF13N4fJIBAwA6JSmK6ZSVIxIwKrrGwHgbS6ztIbTc112U0N4PEnqb3MbW1yi/ed56b4ulj9yHmk35EL4zdpPn2Oexo60H8zfOoZhyxbOMTMx5meRl5MVUbyBnnZeQeG7lJRuZiZMFutd6oeikhIdbS0RWdpBO3ZXOxDWdh6P18jlfjcDwPcvgmEYNnKo3SSHkfwU+ve0YtjXkj5MiLNv3Kjhl29GZuXk3ot5MtreFh+2iB7J41VbZC+/MKC4ryGNRub/vt/dwrcVa14yUafsn6ki2LQfKkIMEJdo/zleOj1trffJH/hZkj981PtyMqyirNTN1Dgq5nFcQtI8pxl4IpVKVVVRzissGj3MHk9pYDBEb4VGpSkpyse+eLnQ1YnDZoeFR6goK/8bxwt+Fs1kf7U32m3Fa8t2hbZdW0Pj8o3bDCYDPyPgfol8AobJSEt9qqvDPzZymo8IelqaGdnZ/L6XwWDyrw4IQ0tTIzU9vY9lT/xj4LmwEUNt8cuEKspK/a16XwiPiH/1epFbk2yn1ZE8AFgb0EzUKE9S64d3lwQAI1VyyNMaLg/w3j0pm6GvQiYRREWvsSol5FmtghRRUYoIADweMNjfO/CJJeIyCPk5Xrppk8bGPI29FXW/qKT0QviNd6kfJ41pHmOPtLc9fzXc1NhQRbn5XQtOjpOuR969duvvopLSp3Hxzh7L8vkvVBCCob5eVk6usb6uqbFBcupHI5HXigGgsbExr7Aor7DoU93n+oYGfJkfQnQJCVUVlRuRUbn5hW9TPjQwGPAvrHhtQljbbfpY0ukSB3z8c/ILEl69eRQbx8/Sw8ws+vFTFotVUFR86cYtfrrjxLFZOXnevgE5+QXJH9KWbdh6N+aR6K1Pm+BwJSLy2T/xJWVlp0MvRT16Ii/bPKqa6DAy5unzXt274kI++DKSb/EnMEZryrjAXpb7ZfAxxVqmjsnbEV6eU86+97Y+MKZ6rq2c6FqN7impJktcElTyOpeRXsJeEVqy9Wo5/9v3qR9HODoVlZSKKOEXIi59+8/x0pkZGW1ds+LkmXO+p89paarv37ZBXbX5gaqBfa2OBwSNtP3q5H+E3WAACL0SHhgSpqGmunTBXPw1TyIw0tMrLinFh5e62lpG+jqi16+qqZm3tNkehy9fCfLjq7VW/bHooI/fwhVrVVWUd25Yo6mm2m4rXpsQ1nYymbxn0zqvoycWr/I01NPDL5TiuM+Zve+Y7xS3RRrqquNGDvMNCsHTtdTVDu3YdDzg7OJVnrIyMqOH2Y6wbeUii+0AGwaT6XsmpLb2s5mJ4d7NnriTF6ebmYkEjTZu1LC2NmpoV0kDlabLBJJULOxPjY2XSscdyFeQIq4drzihdys6MzIJO+uhvjO83O1kMYkIdub09ROa+wYWmw0AYqvr+z9013RmL90vabtP4Nnyisota5a3vup/x/1HT89euHL2hDdBnE6bb92NDgu/EeJ7RDxP5sX0IPRv6Mxeus7Q9s919alp6afOnXeeOkWsQh0A0rKyF891Ec9Qh//LaCeTSPxzuc5GZ2j749g4/+DzY4bbOYyw/9V1acly93m/ugqi+D8cySMQiO8iLtfkEQhER4OiHYHoLKBoRyA6CyjaEYjOAop2BKKzIC534IQZHX5H3P5YUVhcAgCy0tKXg07++wJraj/5njn3+u17Noczepj9PKfp/77MjiAurcHNryjYQ93agAYAJdWcITtzb67SNFJt5ZF4xM9BXKJdmNHhd2TXhjVsDif+5etL12/+JwUeOxVUWFK6btkSKUlJAvFfDcfmLVs9dsTQSQIzcP9zTsVUWxu08nAx4pcgLtEuwujw26GhpgoAObn5/1WByR/S3GZNbaGaEFtiPzakFDDNNKi/9zH7/xFxiXbRXLxx69rNyLr6BsvuXf/ymK8g1zRRKb+o2C8o5F1qKo1GG9i3z3znJnsRg8H0Oxv6PD6RxWZ1NzPzmDtbVaWVJ8yEFQVC7GjQLived91sIhg/ey6DwQSAA8f9Dhz3AwAfr534LBRhW+dwGgNDL0TFPMIwrE+vnu5uzrIy0gCwbP3WlLQ0APANOucbdA4A+AK5opLSgz5+KWkZcrIys6dN5s8IBoBVW3b27tGtgcGKvB/NZLJ2b1rX3cxEdJ1H9KD7x1R7z27pb36SWr/rRkVBFUdfhbzNUQnXv0a/r9t3s3LFGIVDkZUVnzhDzCV3TlWS+KKRuPO67uDtytJaTg8t6o5pynrKbfBnIL7lN4j2yzduX7lxa+WSRV2UFM9euLpm6y7/Q14EAgEAduz31tPVObp3R1VV9QEffxqNhp/TBoZeSE1P37ZuBYVCORV8fo/3iSN7toreirCihNnR2mHFE+FmE8alwBMAMNt92UIXp8H9rQGAQqECgIitnzgd/Pp98pY1K6To9BNBwQd9/LavXwUA+7Z58njcxas2jBxmN2HUMH5RDAZz+YZtfS0t/lgwJzM79/DJQCqZYj+oP78OV25GdjUxXujq1Mjh4FMGnyckbt9/RLCepkYG3jubZuMsspN3PFKQW8EhC5xzvMljLD5TstpBYaAJ/VbSZ5cTRZFrNDUVyABQWM2JfPX5wCyVqrrG9RfLgp/ULBoqDwAPkut2hJfvmKqkr0IJeVrjdrLo3notCklMH0H/LfgNov3i9YgFLrPwbnDtMo8Z85c8T3g5wNqKy+MVFpc6T3PUUlfTUldbv3xxZVUNnqWgqLibqYmJoQEALHefH5eYxOPxRMxVEFGUMDtaO6x4otxsQsB1ERhgVApFUCYnbOuf6+ruRMfs3bQO77SXLZy7/7gfh9NIIhHxoQpGIFC+9tLdjXlEJpOXuc8jEAi6WpoFRcWXbtwUjHY9ba1t61YK7j2Lbl1beCP44yAAMFQjDzalB8RUewxtnise8KDGwULKZZAsACwdKZ+Q2RD8pNZzgiIAYAD7Z6ngYTzOUiopu0nL4R1Z9dco+aFdJQHAc4Ji1Ju6Zx/r7cz/r2b4/GTEPdrLKytrP33ubtakTJOg0Qz1dLJycgdYWxEwbK7T9P3HT0Y/ftq7Z48Bfa1wXTQAzJg8Ycf+w5nZOVYWPWysrcaNbGUWtIiihNnR2mHFE+FmayvCtp5fWNTY2GhqZICvpqWhfnTPNtFFZWbndjUzJnx5a0V3M5Owa9cbGxuJRCKe0s3MrMWBUoJGE2WAA1g4VNbFt2hyn+ZptqmFzAX2zcFvpS+RmNWAL5MIwO+xZemE6jouADBY3LRi1rZrFduvVeBfcbi83HKO6LYgRCPu0Y6DCZHJTXIYNaifdWx8YmxCon/w+TV/uuPvRehhbhrsezguISk+6VXY+s3jRg5b4DxL9CaEFQVC7GjtsOL9oJvtR2hl622ccdnWwbHokTyGYRY6NAsd6pnHNV9XqsWP+L2aYF8tb52iaKHTvIuUpIltrCniK8Q92hXl5aWlJN8mp+ITORlMRkZ27uSxowGgpKzsVtQDl+lTxo8aPn7U8LMXroSF3xjYrw+PxzsTdnmY7SC7gTZ2A21G2A5eu32Pk+MkuoSEsK0IKwqE29HaY8Vru5tNGMK2rqmuRiQSP6Rn4iP5isqqC9cj3F1n8ztqCoXMYrEEi9LV1rweeZfL4+FzxZM/ftRSV+ev/11Ej+TxgF1gJ7cosFnpZaxGfZnJ4L+b4WU2w1hNVNtpFIKWAimrjD21b5O8uY7Jk6Sik/Z/hbg8SyfMzYZh2LRJ4wNDLyS+eptXUHjAx19BThbXuUvS6XfuPzgVfL64tDQrJ/dtcoqWhjoAYBiWkpZ+1P90ZnZucWlpbHyiooK86FAUVhQIt6OJsOIVlZTmFRaVV1Y2cpsahcvk2uFmE4awrUtJSo6ytz3mfzolLS2voND7ZEBBYbFg6Brq6j54EpuemZWWkVVcWgoAo4baNjAYxwOCCoqKn/0Tf+n67akTWrm5gI/kBf8EJ9Xj/fMgU7qRQDzPt5e9+erzhee1uRUc/wfVL7MYLoNaMcB5DJM/96T27OOa3ApO1Nu6obtyssvY/G/Drl6ftejPH99jCBCf+e2Cz9Lxwd1sPB7vUsTt8Jt3PtfXW3QzX+4+X1Gh6QUAGVnZfsHnP6ZnkkmkPpY9Pea44Kr26ppa/+DQxNdvGxgMUyNDd9fZrb4yUVhRAPD3g4chl8NxO5q7mzP/Kvq1W39fjriFW/EAw6qqqw/v2goCz9Lx2bzqL3yk8CE943jA2czsHNzN5uQ4ifDNax6/Zeoc9z/muw0Z0E8wUdjWOZzGwNCwuw8eYxjYWPVe5DZbUF9fXlm5+9Cx1PQMKUnJJXNd8TILi0sOnfBvugPnOJEvmQWAVVt2djM1dZvp2Gol4cuzdKkH9PGPka8+rwgp5T9L9zilfk9ERT5+B26KEj5Ej35ftzq09OXuJrPdyeiqh+8bLixtOtSGx386ca+6uJajq0RePFx+dM/mhpwJuxLz9NlZH+8fqRgCR1yi/eew2/t4XOJLwRSH4UNFXxX/Cdy8e//UufOCKTqamvh74xDC2HnoKJlEEjTqI1qlc0V7ZXU1k/nVWSudLiErLf2r6oNTV99Q++mTYAqJSFRWUvxV9RF/uDzesvVbNq1cKugCR7RK54p2BKIzIy5X6RAIREeDoh2B6CygaEcgOgso2hGIzgKKdgSis4CiHYHoLPz/R/vTuPjJrgtaJM72WBYV8/iX1EfcKK+sHOHohP/tOHik9Qw/wJ0HD12X/NSXQP5y4tIaTFdlvshg4B9LqjmmqzLTilmic/1k/v+j/bs4TZnQ3dz035dz1D9o277f++FN3Ajo7+01uH/fNmUU0fYeZqYzpkz4L2rXZh49i/v24P7TOBVT/as2/SOI+xy4DkLwUfBOTkcYATXUVDVae8v9/yVi7uQTo2jPys33OuqTV1Ckr6PdRVmJxWLhiiUQbkcT5marq284eNwv/tVrdTXVXt2b5Y0PHj/be/QEvvzHfLfxo4bzv6r59Ol4wJm4+Jd0usQkh5HTJ47H52N7rPYcPdTubUrqi8RX8nKyHnOd+1r2AoDA0IsXwyPwvCMcnQDAedpk52lTRLfx1t3o8Nt3SisqNdXV5s6cxp9IW1Vd430yIOnNO1lZmRG2g2dPbZ4t810rXtLb92u37Y66Eoqvc/LMudyCot0b1nj7BhSWlBSXlDEYjCED+kU/fqqipLh703pFebkzYVfepabybRweqz3tBthMmzhORG2ZLFZgyIWn/8TX1zeYmxh5zHXRUlcT3XYRdu2EpNcnTgeXlJVraaovWzQX94XExiecCg6bO2v66fMXq6pr+va2WO4xX1Ct812+KxFMePXGc6eXYK16dDXjt/e7RsDY+IQTp8/ZDewfeS+ax4NpEx1mTGoekly9GRnx972q6lpdbc25s6ZZdO8qulYg9k4+cRnJs1gszx17enY1v3DKZ8k8l7cpqS1WuHIzMjs3d6Gr0+K5zrgdDXezDbKxDjyyb/E8l9BL4c9eJOArHzzul1tYsH39qiXzXOMSkviF9LWyxEetLaSUXB5vw659VArlxP5da/7wiLhz/+bd+/xvw65et+5l4b1zS6/u3byO+DKYDABwmT7WoPDgAAAUm0lEQVQlIjRwtL1tv969IkIDI0IDZ06eKLqNzxMST5077+7mHHh4n/3A/tsPHK6oqgYALpe7dttuIpF4ZPe2Fe7z/37w8Nqtv/EsuBVvntMMn/07dbU1N+7eh0spRUChkE95e2moqxaWlIb5+xCIpIdPn4vOIowzYZfeJKfsWLfSZ99OaSnJXYeO4uki2r5rwxp/b69v3SEf0jO2eB0aN2r4yYN7bKx6r9q8C59vCwClZeUPY5+vW7Z4w/I/k96+D799t9WK7djvLSlFP7p3x/plS/5JfBVyORwALHt0iwgNXLVkkSRdAq/V7g1r8PVxI+CQAf38vb2mTnDYvt8764sRuLSsnMFk7NuyYfbUyWcvXH30LA5PfxoXH3L52uJ5LicP7u5pbrrZ62Dtp88A8DwhcfR0F8G/5Rub7UCL7OTvvanPreAIujpwJ9+s/jI3VmgO7SrpcqIov7Jp6i7fyXdodpe4tIbgJ03+D9zJt36Cwo2VmibqFLeTRSzOfzBcEJe+/Xn8SzaHs8B5FolENDUyHNK/X3FJqeAK39rRhLnZKqurn8UnHNqxuaupMQC4zZx61P80nkWSLiFJ1wQAMvmrhj+Li6+sqj66exuBQNDSUJ85ZcKd6If8nn/McPvhtoMAYIHLzNv3onPzCo0N9ckkEplEIpJIRCKx1b4Ix1hf//i+nXj3OHWCQ9i1GylpaQOt+7xIel1cWn50z3YajQoA851mvE5uOtgJs+KJ2EoXJWUajarWRUVWRppGo6qrqlTXtnN8Pmb4UMdxDvj84hmTxi9auf5zXZ2UpKSItguza1+8ftN2oA3usXed4fg2OSX89l2POc4AABi2buliMpkMAEMHD0hOTRNdK2ESQQKBQKPSqBQKhmEtaiXCCEilUhfPccEwzEBPJycvPzI6Bp8FXFBUpKKsbN3LAsOwOU7TlZWV2Gw2/OZOPnGJ9vyiIl0tTRKpybtAILS0lHzXjvZdN1tBUQkA4ApKACARW2/jx/SMisoqh5lu+EcelyshIah8bJLe0CUkCARC7ed2ziNSVJCPuxe957BPSWkpj8erq29gMVgAkJuXr6OlgYc6ANgPHmA/eAC+LMyK93NQUVQIuXTt2YuEqpoaLpcHAAwmU0qyPf9zmdm50yc1nzV0Nzd7l/oBXyYSCXioA4C0lGRta9O0REgEhSHCCIhhzQotc1OjxDdv8eXhdoMfPH0+/6811pYWfS0t+If+39rJJy7RzuPxGrncNmUR5mbDrXVtUrPxMExfV1twsrQwQa0IcW2r3H/0NPji1Y0rl5kZGZJIxBnzl/xIru9a8dpRCQwT4oITjk9gcH5h4XbP1eqqXQqKiuctXdX2zbaoQTPffSPQdxv7LSIkgkK2/ENGQMEfV0FOzvfA7qTX714kvdp37KS6qsqujWupFMpv7eQTl2jX1tC4EhHJZDKpVCoAsNjsVrMId7OpAsDHzEz8kM/mtH5Q1NPWunEnSk5GRk5WBgB4PB6T1crpMQ6FQmKyfvSe6ss3b617WeDXF7k8HpvT1EZtTY2c/HAGg4l372+SU9MysqaMGw3CrXiysrIA8LmuXkqSDgAcTmOrW5eTlflcX8//2PgDWRLfvHWbMVVTTRUAWMyWzWxT2/W0td4nf+D/WMkfPurpaP1g3haIkAgCAJlCYrE5LYTiIoyAgoGX8iFdU10NX74THaMkr9DHsmdvi+5uM6dOn7ck6e37fr17/dZOPnG5SmfTx1JCgrbv+MkP6RkPnz2//+hpq1mEudkU5OQG9LU67Bvw+l3ym+TUM2GX+Fn4xjs2m1NZVZNXWIRfKxrcv6+KosJWr0Opaek5+QW7Dx8/6h/0I9U20NV9l/Ix4dWb7Lz89Mws0StrqqsmvXufk19QXlF51P/0p891HG4jAFhbWqgqKx/w8cvNL3yX+vHQCX/OlwOBMCueploXBTm5uw8ecjiNb96nPHzW+nW47mamOXkFqWnpLBbr1t3onPwCPF2YERAANNVUH8XGVVZXZ+XmHQsIwlcW3XZhTr5pk8bGPI29FXW/qKT0QviNd6kfJ41p57voREgEAUBfR5vDZl+79XdeQeGbL5c/RBgBmUxmUNjlopLSqIePo2IejRlmh6dXVlV7+wUkvX1fXlH55PkLTiNbQ7UL/OZOPnHp28lk8p5N6/Ye8VmxaYeJgZ5FV/NWx+LdzUwWujgdPhmIu9n6WVnmFxbhX61asujAMb+Nu/erq6qMsBt89WYknh4X/5J/B+781fDzV8P1tDX9DnmRSaR92zb6BJ5Zs3UPiUTo27uXu5vzj1R76OABr969377/CGA8h+FDDfX1RKzsOM6hqLjsL88tRCJxuO0gTTXVgsJiACAQCF5bPL19Ty1Zs0FWVsZhmB3/xpjtABsGk+l7JgS34u3d7Il35mQyee2yxcdPBQWFXe7do/soO9vMvDzRVdXX1Z4/e+ZWL28mi+kwYhj/flJVTY3gEB1fxo2AKxYvOHjilOvi5fJycmNH2Cd/SCsoLO6irCyi7et37OU7+fCicCefmZHR1jUrTp4553v6nJam+v5tG/AbK+1ASlLSa/N6v+Dz7is9+RJB/reqKiruc5xDLl87HXrByEAPd/Vpqasd2rHpeMDZxas8cSPgCNsm+T+VSmWxWEvWbATguUyfMtim6RGjmZMncLk8b9+AyupqDdUunn/9KXhMaZVF9nIrQpouM1to03xcu+yJqNh1o0JfhRzsoaat2ErcTeojDQAn7lUfiKzUVSJvmaKsK3AHjsnikEntiVwxctew2Wz+1ZrNew+qqigvnusiOosYkpWbt8xzS4vEEN+jMtJS310fIYxZC//8XF8nmLJ26WLRb+NpK7HxCXuPnIgIOf0flvkTaLeTT1z6dhaL5bHK02W6o6mxQcKrN/FJrw9u3/SrK9UeNNXV/A7ubZEoJYXeZ9RmDu3c1OJqlryczC+qixjB5fFKSss3rVzajrziEu0UCmWBy6zgS9dy8vI1VLusW7rY3KSV2yriCZlEEjyRQ7SbVl/L2zkhYFi7fcRiNJJHIBAdirhck0cgEB0NinYEorOAoh2B6CygaEcgOgso2hGIzoK43IETB0o+lQ0/7fpmWWSL9OCX4aGvbpR9ruiuZrp60PxuqiZ4evGn0h3RPnF5SUp0+VkWE1x6T8IASy3LmBC8CADoZJqZiuGSfrMH6H71QEhE8v2I1OiAyXt+TqMQCD6ob2+GBzwaidoi8XTC5aOxZ5b2dw2d4W2oqO18aWVOdSEAsBrZbpfXAAZBU/ctHeB2/Hlw2Kub/FwRrqfCnU/aG/Z3v77pVmpMq1tBIH4CqG9vhscDSQq9ReLFN7ede012MLUDgI32f8TnvQlJCt9gtyQiJbqO1XDQwZNGovZQNS2rqwyIvzTLYjyeS5Eup0SXn281jU6ibY8+OszAhkam8bci9c1WEIifgLhEuwg/mTA7mtsfK/S0td4kpyjKyxvq6z55/sLKosfm1X9hGNbY2BhyOfzm3XssNntQP+sl81zpEhKt1kGKJrnIekaLRCqRXPKpDF/GADs+cTuXxwWAp9nxQ/T78Xvp0caDK+qr2Y0tJ+pO7TFm/2P/2Lwke30bPMVMxUCBLtv+PYVAtBcxGskL85MJs6MBgLGBXsDh/UUlpVrqakHHD/7zMikzOwcAAkLCEl692eG5ynvH5pLSsoMn/PH1/c6GtpCKBZ1vng8rTZGc0bOllfHPAa7X3t9d//f+5JI0ANCWVdOV0wCAwppSLblmrWoXaeWVg+aRiS1VgWQCSV9RJ7uy2dxkoqw/WM/6X+8tBKLNiEvfDiDUTybMjgYA6qqq8nKy0tJSOtqaSgoKkhL0qpraiqrq65FR/t5e+BDgz4VzFy5fW1ffIEmXmDrBYaT9EMFtykpLi67UcMOBgY579z3ynxTiYaluvsFuCX6VjsllkQk/tPfoJGots6719RCIDkaMol2Yn6ytdrTMrJzGxsaFy9fiH3k8Ho/HKy4pNdDTUZCTU5BrRSTwLQN0et9w8XtTnOr7PNTp4opLs46ZKOvTiFRWIwsAimpLRwa54Wvemxf8bfY6NkOKik7UEb8eMYp2QQT9ZG21o2EYEDDs2J5tJHLzuBqfl+Z3NvR65FcC42kTxs6ZNU1YUQwO80N5prmyIZlI7qFqemLSdsfQP84kXt0zarWWnGpmZT4AKEsp3nDxr6ivcrqwnMdrqdZjczlZlbk6cm0QISAQHYSYRrsgou1o36Kjpcnl8cqrqvE3BABAA4OBy8PaOpLnAXdW2F/eYzeOMBoEABhgqlJKdewGALA36L85yruW+VmGKqUnr0knS8D37ILh76NIBFJ/nd4/3FwEoqMQo6t0whBtR/sWZSXFEbaDD/sGxMYn4BY095Xr8SwKcnItpGLycqIuj0uQJGb3mrjt/tG/Pz7+WJ59NvHaw8y4SV1HAMAo48H6CtqLr296VZT8oSwzOPGqNEWSTmm68l9RX51dlR+UcGXXA5/NQ/+UJLd+R6DdsjEE4gf5Dfp20Xa077LMfV5w2GXvEwEMJtPEyGDzqr+IxHYKetcOWaQu0+XIs6DCT2V68pqHHDbY6fcDAAJG8J+ya1fMiQVXPTEM66tlcdHpmCxNuuhTKQCMP7tAikI3VzE8MWFbi2fphNFu2RgC8YMgm4W40G7ZGALxg/wGI/nOAC4bmzNT6PVCBOLfg/p2BKKzgPp2BKKzgKIdgegsoGhHIDoLKNoRiM4CinYEorOAoh2B6CyIXbRv2Xvo0vWb36ZnZGU7zHQTTPnnZdLYWXN+UrUQiN8fsYt2SUkJOv07T5XT6XT8ZcYIBKJ9iEu0Z2Tl/LFu04MnsRQKhUgi3bobvXzjNh6PBwB7j/j4BJ6tqqmRotMzsrL3HfO9c//Br64vAvH7IS7RLisjPaBP78h70XcfPPINPPc47h/rXj1ZbDYADLSxZjCYOw4cKSgu2bb/CJlI0lBvOV389bvkcU5zn8bFA8CiFWsTkl4DQEBw2LlL1wDg2YuEP9dtxte8dTd63tJV45zmeqzeEP/yNb+EN8mpDjPdMrKyl67f4jDDdcPufXg6j8c7HXppovP8qXPcA0MvjprmnJaRhX+VX1S8afeBSS7zZy78wyfwLJPV+mxcBOIXIi6TrpQUFWZOmWhmbOR9MgDDsC2rl0t+Gc8PtO7Tv4/Vuu17KGTy5LGjJ4we0SJvWkbW5r0HF7rMGtivDwAYGehn5eZb9er5/uNHCoUCAHkFBUb6egDwPCHx1LnzG1cs1dHSeBT7z/YDh8/4eCvKN9ls2Gz2joNHR9oPmThmJJVKwRNv3ImKinm0e9NabQ2Nsxcuc7nNvood+731dHWO7t1RVVV9wMefRqPNc5rewfsJgWg/4tK3A0BldfWeIz7LFs7tYW7m7XtK8KvQy+FsNnvPpnWBoRfSM7MEv8ovKvbc6TV57OhxI4fhKYZ6ujl5+Ww2u6amtqComMvl5uYXGhnoAoCxvv7xfTv7WPZUUVaaOsGBTCanpKUJlrbcff7MyRPsB/UfYN00TfXm3ftTJ4w1NzaSkqS7znDkr8nl8QqLSwda99FSV+vR1Wz98sWmRgYdsFcQiP8McenbAeBjRlZXY2PLnt11tDRXb9lZVV2Dqya4XO7r98mLXJ3UVbuMGWYXn/TaUF8Pz9LY2Lhhp1cjlzt9YrMr1khfL/rxsw8ZWZrqakw2OysnL6+gaLLDKABQVJCPuxe957BPSWkpj8erq29gMb4afnc3NxX8yOXxikpKDPV08I8Y1nxwJGDYXKfp+4+fjH78tHfPHgP6WpkZGXXMjkEg/hvEKNr79e7V19ICABQV5E8d3sf3TxAIhP1bN2AYBgALnGcJeikaGxv1dbTTs3KOBQSt/sMdTzTQ084rKHyXktLNzITJYr1L/VBUUqKjrQUA9x89Db54dePKZWZGhiQSccb8Ja3UiccDAMHRuyCTHEYN6mcdG58Ym5DoH3x+zZ/u+KkEAiGeiNFIHgDwkAaAFqoZYelkEmnDiqWeK5Y8eBJ77+ETPJFGpSkpyse+eGluatLdzDQ2PlFFWRnXwrx889a6l0V3MxMSicjl8dicli97aAGBQFBX7ZKalo5/ZLOb1y8pKwsMvSgrKzN+1PDdG9ZMGTc6LPxG+1uOQHQ8YtS3twOMQCCRiGZGRq4zphw7dcbU2BB3yBvq6z2LizfW1+XyuMmpH+0HD8TX11RXjbz/MCe/QFJCIuRK+KfPdRyuKMUdAIwbOfx06EXVLl20NdRCLofz0yXp9Dv3HzCZzMljRzU0MN4mp2hpILEsQqz5vaOdz7SJ45PeJu86dPTo7m0UCsVIT6+4pBS/IK+rrWWk33Ti7TjOoai47C/PLUQicbjtIE011YLCYtEljx81vLKq+vDJAAqFPHqoPUACPs6QkpT02rzeL/i8+0pPMonUx7KnxxyXDm4lAvGvQO6aVmhsbMQwjEAgAEB6ZtbiNRuvnvGXlhL67goEQmz5P+nbO47w23dT09Odp01hs1g+p4OtLHqgUEf8pqC+vRU+19UHhIQ9ef4PhmFWFj3c3ZzlZGV+daUQiPaAoh2B6CyI1x04BALRcaBoRyA6CyjaEYjOAop2BKKz8KPRHhh6saiktEOrgkAgOpQfjfYeZqaeO70aGIwOrQ0Cgeg4fjTa+1j2NDcxCr0U3vqqCARCLGnDeftkh9E3o+6j7h2B+E1pQ7Qb6OnIycq8SHzVcbVBIBAdR9uuyZsZG75NSe2gqiAQiA6lbdGuJK9QWl7RQVVBIBAdStuinS5Jq6391EFVQSAQHUrbop3NbuSrlxEIxO9F26K99tMnWRk03xOB+C1pW7TnFhQaG+h3UFUQCESH0oZoZ7JYqR/TLXt067jaIBCIjqMN0f40Ll5XW0tfV7vjaoNAIDqOH412JosVevnaApdZHVobBALRcfxotJ8IODvMdmCPr1+chEAgfiN+1EtXVFKq1kWlo2uDQCA6DmShRCA6C8hdg0B0FlC0IxCdBRTtCERnAUU7AtFZQNGOQHQWULQjEJ2F/wGondj6u5GXQAAAAABJRU5ErkJggg==;" vertex="1" parent="1">
          <mxGeometry x="361" y="304" width="335" height="333" as="geometry" />
        </mxCell>
        <mxCell id="R63uXbcuIfAMWrUYM_r6-1" value="" style="rounded=0;whiteSpace=wrap;html=1;fillColor=none;fontColor=#ffffff;strokeColor=#009900;strokeWidth=3.1496;" vertex="1" parent="1">
          <mxGeometry x="392" y="329.5" width="177" height="21" as="geometry" />
        </mxCell>
        <mxCell id="R63uXbcuIfAMWrUYM_r6-2" value="" style="rounded=0;whiteSpace=wrap;html=1;fillColor=none;fontColor=#ffffff;strokeColor=#FF3399;strokeWidth=3.1496;" vertex="1" parent="1">
          <mxGeometry x="392" y="352.5" width="297" height="260.5" as="geometry" />
        </mxCell>
        <mxCell id="R63uXbcuIfAMWrUYM_r6-3" value="well known" style="text;html=1;align=center;verticalAlign=middle;whiteSpace=wrap;rounded=0;fontColor=#009900;fontStyle=1;fontSize=19;" vertex="1" parent="1">
          <mxGeometry x="575" y="324" width="114" height="30" as="geometry" />
        </mxCell>
      </root>
    </mxGraphModel>
  </diagram>
</mxfile>
